<?xml version="1.0" encoding="UTF-8" standalone="no"?>
<svg
   xmlns:dc="http://purl.org/dc/elements/1.1/"
   xmlns:cc="http://creativecommons.org/ns#"
   xmlns:rdf="http://www.w3.org/1999/02/22-rdf-syntax-ns#"
   xmlns:svg="http://www.w3.org/2000/svg"
   xmlns="http://www.w3.org/2000/svg"
   xmlns:sodipodi="http://sodipodi.sourceforge.net/DTD/sodipodi-0.dtd"
   xmlns:inkscape="http://www.inkscape.org/namespaces/inkscape"
   inkscape:version="1.0beta2 (2b71d25, 2019-12-03)"
   sodipodi:docname="200213-DMF-final-layout.svg"
   viewBox="0 0 793.70074 1122.5197"
   height="1122.5197"
   width="793.70074"
   xml:space="preserve"
   id="svg10"
   version="1.1"><metadata
     id="metadata16"><rdf:RDF><cc:Work
         rdf:about=""><dc:format>image/svg+xml</dc:format><dc:type
           rdf:resource="http://purl.org/dc/dcmitype/StillImage" /><dc:title></dc:title></cc:Work></rdf:RDF></metadata><defs
     id="defs14" /><sodipodi:namedview
     inkscape:current-layer="g18"
     inkscape:window-maximized="0"
     inkscape:window-y="23"
     inkscape:window-x="0"
     inkscape:cy="561.25983"
     inkscape:cx="396.85037"
     inkscape:zoom="0.92915968"
     showgrid="false"
     id="namedview12"
     inkscape:window-height="480"
     inkscape:window-width="724"
     inkscape:pageshadow="2"
     inkscape:pageopacity="0"
     guidetolerance="10"
     gridtolerance="10"
     objecttolerance="10"
     borderopacity="1"
     inkscape:document-rotation="0"
     bordercolor="#666666"
     pagecolor="#ffffff" /><g
     transform="matrix(1.3333333,0,0,1.3333333,0,3.3396326e-5)"
     inkscape:label="200213-DMF-final-layout"
     inkscape:groupmode="layer"
     id="g18"><g
       id="g20"><g
         id="g22"><path
           inkscape:connector-curvature="0"
           id="path24"
           style="fill:none;stroke:#000000;stroke-width:0.075;stroke-linecap:butt;stroke-linejoin:miter;stroke-miterlimit:4;stroke-dasharray:none;stroke-opacity:1"
           d="m 15.383,734.977 v 4.23 H 14.25 v 2.551 h 4.102 v 1.062 h 6.152 v 9.793 h 7.281 v 53.125 h -3.676 v 5.891 h -1.504 v 3.543 h 3.543 v -3.543 H 28.68 v -5.328 h 3.668 V 752.043 H 25.07 v -9.785 h -4.16 v -3.426 h 1.133 v -2.711 H 17.949 V 735 Z" /></g><g
         id="g26"><path
           inkscape:connector-curvature="0"
           id="path28"
           style="fill:none;stroke:#000000;stroke-width:0.075;stroke-linecap:butt;stroke-linejoin:miter;stroke-miterlimit:4;stroke-dasharray:none;stroke-opacity:1"
           d="m 22.43,734.977 v 4.23 h -1.137 v 2.551 h 4.102 v 10.004 h 7.519 v 55.39 h -2.266 v 20.723 h 3.051 v 1.465 h 3.543 v -3.543 h -3.543 v 1.512 h -2.484 v -19.59 h 2.269 v -56.52 h -7.523 v -8.379 h 1.996 v -3.988 h 1.133 v -2.711 H 24.996 V 735 Z" /></g><g
         id="g30"><path
           inkscape:connector-curvature="0"
           id="path32"
           style="fill:none;stroke:#000000;stroke-width:0.075;stroke-linecap:butt;stroke-linejoin:miter;stroke-miterlimit:4;stroke-dasharray:none;stroke-opacity:1"
           d="m 29.473,734.977 v 4.23 H 28.34 v 1.051 h -0.004 v 3.883 H 26.77 v 6.769 h 7.281 v 57.66 h -1.699 v 12.243 h 1.347 v 1.445 h 3.543 v -3.547 h -3.543 v 1.531 h -0.785 v -11.105 h 1.703 V 750.344 H 27.34 v -5.637 h 1.566 v -2.949 h 3.535 v 1.062 H 35 v -3.988 h 1.137 v -2.711 H 32.039 V 735 Z" /></g><g
         id="g34"><path
           inkscape:connector-curvature="0"
           id="path36"
           style="fill:none;stroke:#000000;stroke-width:0.075;stroke-linecap:butt;stroke-linejoin:miter;stroke-miterlimit:4;stroke-dasharray:none;stroke-opacity:1"
           d="m 36.516,734.977 v 4.23 h -1.133 v 2.551 h 4.101 v 1.062 h 5.454 v 7.524 H 38.02 v 58.793 h 6.918 v 11.105 h -0.602 v -1.531 h -3.543 v 3.547 h 3.543 v -1.445 h 1.168 V 808.57 h -6.922 v -57.66 h 6.922 v -8.652 h -3.457 v -3.426 h 1.133 v -2.711 H 39.086 V 735 Z" /></g><g
         id="g38"><path
           inkscape:connector-curvature="0"
           id="path40"
           style="fill:none;stroke:#000000;stroke-width:0.075;stroke-linecap:butt;stroke-linejoin:miter;stroke-miterlimit:4;stroke-dasharray:none;stroke-opacity:1"
           d="m 43.563,734.977 v 4.23 h -1.137 v 2.551 h 4.101 v 9.441 h -7.375 v 56.52 h 7.489 v 19.59 h -2.305 v -1.512 h -3.543 v 3.543 h 3.543 v -1.465 h 2.867 v -20.723 h -7.484 v -55.39 h 7.375 v -8.942 h 1.996 v -3.988 h 1.133 v -2.711 H 46.129 V 735 Z" /></g><g
         id="g42"><path
           inkscape:connector-curvature="0"
           id="path44"
           style="fill:none;stroke:#000000;stroke-width:0.075;stroke-linecap:butt;stroke-linejoin:miter;stroke-miterlimit:4;stroke-dasharray:none;stroke-opacity:1"
           d="m 50.605,734.977 v 4.23 h -1.132 v 4.934 h -1.981 v 7.906 h -7.203 v 54.254 h 9.184 v 5.328 h -1.586 v 3.543 h 3.543 v -3.543 h -1.391 v -5.891 h -9.187 v -53.125 h 7.203 v -7.906 h 1.984 v -2.949 h 3.535 v 1.062 h 2.559 v -3.988 h 1.137 v -2.711 H 53.172 V 735 Z" /></g><g
         id="g46"><path
           inkscape:connector-curvature="0"
           id="path48"
           style="fill:none;stroke:#000000;stroke-width:0.075;stroke-linecap:butt;stroke-linejoin:miter;stroke-miterlimit:4;stroke-dasharray:none;stroke-opacity:1"
           d="m 57.648,734.977 v 4.23 H 56.52 v 2.551 h 2.625 v 10.004 h 6.011 v 55.39 h -6.011 v 13.09 h -0.622 v -1.531 H 54.98 v 3.547 h 3.543 v -1.445 h 1.192 v -13.094 h 6.008 v -56.52 h -6.008 v -9.441 h 0.902 v 1.062 h 2.563 v -3.988 h 1.133 v -2.711 H 60.219 V 735 Z" /></g><g
         id="g50"><path
           inkscape:connector-curvature="0"
           id="path52"
           style="fill:none;stroke:#000000;stroke-width:0.075;stroke-linecap:butt;stroke-linejoin:miter;stroke-miterlimit:4;stroke-dasharray:none;stroke-opacity:1"
           d="m 64.695,734.977 v 4.23 h -1.132 v 4.934 h -1.938 v 6.058 h 4.945 v 58.371 h -5.621 v 18.739 h -2.426 v -1.512 H 54.98 v 3.543 h 3.543 v -1.465 h 2.997 v -18.738 h 5.621 v -59.5 h -4.95 v -4.93 h 1.938 v -2.949 h 3.535 v 1.062 h 2.559 v -3.988 h 1.132 v -2.711 H 67.262 V 735 Z" /></g><g
         id="g54"><path
           inkscape:connector-curvature="0"
           id="path56"
           style="fill:none;stroke:#000000;stroke-width:0.075;stroke-linecap:butt;stroke-linejoin:miter;stroke-miterlimit:4;stroke-dasharray:none;stroke-opacity:1"
           d="m 71.742,734.977 v 4.23 h -1.137 v 2.551 h 4.102 v 1.062 h 2.563 v -0.007 l 2.238,-0.012 v 8.269 h -4.965 v 58.071 h 5.902 v 18.734 h 2.918 v 1.465 h 3.543 v -3.543 h -3.543 v 1.516 H 81.016 V 808.57 h -5.911 v -56.929 h 4.969 v -9.411 l -2.804,0.016 v -3.414 h 1.132 v -2.711 H 74.309 V 735 Z" /></g><g
         id="g58"><path
           inkscape:connector-curvature="0"
           id="path60"
           style="fill:none;stroke:#000000;stroke-width:0.075;stroke-linecap:butt;stroke-linejoin:miter;stroke-miterlimit:4;stroke-dasharray:none;stroke-opacity:1"
           d="m 78.785,734.977 v 4.23 h -1.133 v 2.551 h 4.098 v 11.254 h -5.637 v 54.707 h 6.141 v 13.094 h 1.109 v 1.445 h 3.543 v -3.547 h -3.543 v 1.531 H 82.82 v -13.09 h -6.136 v -53.574 h 5.632 V 742.82 h 1.997 v -3.988 h 1.136 v -2.711 H 81.352 V 735 Z" /></g><g
         id="g62"><path
           inkscape:connector-curvature="0"
           id="path64"
           style="fill:none;stroke:#000000;stroke-width:0.075;stroke-linecap:butt;stroke-linejoin:miter;stroke-miterlimit:4;stroke-dasharray:none;stroke-opacity:1"
           d="m 85.828,734.977 v 4.23 h -1.133 v 2.551 h 4.102 v 1.062 h 5.516 v 9.793 h 7.203 v 53.125 h -9.524 v 5.891 h -1.535 v 3.543 H 94 v -3.543 h -1.441 v -5.328 h 9.523 v -54.258 h -7.203 v -9.785 h -3.52 v -3.426 h 1.133 v -2.711 H 88.398 V 735 Z" /></g><g
         id="g66"><path
           inkscape:connector-curvature="0"
           id="path68"
           style="fill:none;stroke:#000000;stroke-width:0.075;stroke-linecap:butt;stroke-linejoin:miter;stroke-miterlimit:4;stroke-dasharray:none;stroke-opacity:1"
           d="m 92.875,734.977 v 4.23 h -1.137 v 2.551 h 4.102 v 10.004 h 6.812 v 55.39 h -8.023 v 20.723 h 2.922 v 1.465 h 3.543 v -3.543 h -3.543 v 1.512 h -2.36 v -19.59 h 8.024 v -56.52 H 96.41 v -8.379 h 1.992 v -3.988 h 1.133 v -2.711 H 95.441 V 735 Z" /></g><g
         id="g70"><path
           inkscape:connector-curvature="0"
           id="path72"
           style="fill:none;stroke:#000000;stroke-width:0.075;stroke-linecap:butt;stroke-linejoin:miter;stroke-miterlimit:4;stroke-dasharray:none;stroke-opacity:1"
           d="m 99.918,734.977 v 4.23 h -1.133 v 4.883 h -1.918 v 6.82 h 6.914 v 57.996 h -7.386 v 11.907 h 1.156 v 1.445 h 3.543 v -3.547 h -3.543 v 1.531 h -0.586 v -10.769 h 7.387 V 750.344 H 97.43 v -5.692 h 1.922 v -2.894 h 3.535 v 1.062 h 2.558 v -3.988 h 1.137 v -2.711 h -4.094 V 735 Z" /></g><g
         id="g74"><path
           inkscape:connector-curvature="0"
           id="path76"
           style="fill:none;stroke:#000000;stroke-width:0.075;stroke-linecap:butt;stroke-linejoin:miter;stroke-miterlimit:4;stroke-dasharray:none;stroke-opacity:1"
           d="m 106.965,734.977 v 4.23 h -1.133 v 2.551 h 4.098 v 1.062 h 4 v 7.524 h -6.18 v 58.793 h 1.168 v 11.105 h -0.73 v -1.531 h -3.543 v 3.547 h 3.543 v -1.445 h 1.292 V 808.57 h -1.16 v -57.66 h 6.172 v -8.652 h -2 v -3.426 h 1.133 v -2.711 h -4.094 V 735 Z" /></g><g
         id="g78"><path
           inkscape:connector-curvature="0"
           id="path80"
           style="fill:none;stroke:#000000;stroke-width:0.075;stroke-linecap:butt;stroke-linejoin:miter;stroke-miterlimit:4;stroke-dasharray:none;stroke-opacity:1"
           d="m 114.008,734.977 v 4.23 h -1.133 v 2.551 h 2.094 v 9.441 h -6.082 v 56.52 h 1.664 v 19.59 h -2.363 v -1.512 h -3.543 v 3.543 h 3.543 v -1.465 h 2.929 v -20.723 h -1.668 v -55.39 h 6.09 v -10.004 h 1.438 v 1.062 h 2.558 v -3.988 h 1.133 v -2.711 h -4.094 V 735 Z" /></g><g
         id="g82"><path
           inkscape:connector-curvature="0"
           id="path84"
           style="fill:none;stroke:#000000;stroke-width:0.075;stroke-linecap:butt;stroke-linejoin:miter;stroke-miterlimit:4;stroke-dasharray:none;stroke-opacity:1"
           d="m 121.055,734.977 v 4.23 h -1.137 v 5.613 h -3.613 v 7.227 h -6.285 v 54.254 h 3.207 v 5.328 h -1.489 v 3.543 h 3.543 v -3.543 h -1.492 v -5.891 h -3.207 v -53.125 h 6.285 v -7.23 h 3.621 v -3.625 h 3.532 v 1.062 h 2.562 v -3.988 h 1.133 v -2.711 h -4.094 V 735 Z" /></g><g
         id="g86"><path
           inkscape:connector-curvature="0"
           id="path88"
           style="fill:none;stroke:#000000;stroke-width:0.075;stroke-linecap:butt;stroke-linejoin:miter;stroke-miterlimit:4;stroke-dasharray:none;stroke-opacity:1"
           d="m 29.48,741.988 v 4.231 h -1.132 v 2.551 h 5.394 v 0.863 h 1.442 l 0.007,61.996 h -1.492 v 3.543 h 3.543 v -3.543 h -1.488 l -0.008,-62.566 h -1.437 v -0.293 h 0.699 v -2.926 h 1.137 v -2.711 h -4.094 v -1.121 z" /></g><g
         id="g90"><path
           inkscape:connector-curvature="0"
           id="path92"
           style="fill:none;stroke:#000000;stroke-width:0.075;stroke-linecap:butt;stroke-linejoin:miter;stroke-miterlimit:4;stroke-dasharray:none;stroke-opacity:1"
           d="m 36.531,741.988 v 4.231 h -1.133 v 2.551 h 1.485 v 62.394 h 4.535 v 0.465 h -0.625 v 3.543 h 3.543 v -3.543 h -2.348 v -1.031 H 37.453 V 748.77 h 4.606 v -2.926 h 1.136 v -2.711 h -4.097 v -1.121 z" /></g><g
         id="g94"><path
           inkscape:connector-curvature="0"
           id="path96"
           style="fill:none;stroke:#000000;stroke-width:0.075;stroke-linecap:butt;stroke-linejoin:miter;stroke-miterlimit:4;stroke-dasharray:none;stroke-opacity:1"
           d="m 64.664,741.988 v 4.231 h -1.133 v 2.551 h 4.992 v 61.828 h -4.96 v 1.031 h -1.489 v 3.543 h 3.543 v -3.543 h -1.488 v -0.465 H 69.09 V 748.77 h 1.101 v -2.926 h 1.133 v -2.711 H 67.23 v -1.121 z" /></g><g
         id="g98"><path
           inkscape:connector-curvature="0"
           id="path100"
           style="fill:none;stroke:#000000;stroke-width:0.075;stroke-linecap:butt;stroke-linejoin:miter;stroke-miterlimit:4;stroke-dasharray:none;stroke-opacity:1"
           d="m 71.715,741.988 v 4.231 h -1.133 v 2.551 h 2.172 v 62.394 h 5.484 v 0.465 H 76.27 v 3.543 h 3.543 v -3.543 h -1.008 v -1.031 H 73.324 V 748.77 h 3.918 v -2.926 h 1.133 v -2.711 h -4.094 v -1.121 z" /></g><g
         id="g102"><path
           inkscape:connector-curvature="0"
           id="path104"
           style="fill:none;stroke:#000000;stroke-width:0.075;stroke-linecap:butt;stroke-linejoin:miter;stroke-miterlimit:4;stroke-dasharray:none;stroke-opacity:1"
           d="m 99.848,741.988 v 4.231 h -1.133 v 2.551 h 6.094 v 61.828 h -5.766 v 1.031 h -1.492 v 3.543 h 3.543 v -3.543 h -1.485 v -0.465 h 5.766 v -65.32 h 1.137 v -2.711 h -4.094 v -1.121 z" /></g><g
         id="g106"><path
           inkscape:connector-curvature="0"
           id="path108"
           style="fill:none;stroke:#000000;stroke-width:0.075;stroke-linecap:butt;stroke-linejoin:miter;stroke-miterlimit:4;stroke-dasharray:none;stroke-opacity:1"
           d="m 106.898,741.988 v 4.231 h -1.132 v 2.551 h 0.847 v 62.859 h -1.968 v 3.543 h 3.543 v -3.543 h -1.008 l 0.008,-62.859 h 5.238 v -2.926 h 1.137 v -2.711 h -4.098 v -1.121 z" /></g><g
         id="g110"><path
           inkscape:connector-curvature="0"
           id="path112"
           style="fill:none;stroke:#000000;stroke-width:0.075;stroke-linecap:butt;stroke-linejoin:miter;stroke-miterlimit:4;stroke-dasharray:none;stroke-opacity:1"
           d="m 15.449,742.031 v 4.235 h -1.133 v 2.55 h 4.102 v 1.063 h 2.559 v -3.992 h 2.675 v 7.574 h 6.996 v 50.859 h -5.296 v 16.493 h 1.253 v 1.445 h 3.543 v -3.547 h -3.543 v 1.531 h -0.683 v -15.359 h 5.293 v -51.985 h -6.992 v -7.574 h -2.114 v -2.144 h -4.093 v -1.121 z" /></g><g
         id="g114"><path
           inkscape:connector-curvature="0"
           id="path116"
           style="fill:none;stroke:#000000;stroke-width:0.075;stroke-linecap:butt;stroke-linejoin:miter;stroke-miterlimit:4;stroke-dasharray:none;stroke-opacity:1"
           d="m 50.676,742.031 v 3.293 H 48.34 v 7.574 h -6.922 v 51.985 h 10.574 v 15.359 H 51.43 v -1.531 h -3.543 v 3.547 h 3.543 v -1.445 h 1.129 V 804.32 H 41.988 v -50.859 h 6.918 v -7.574 h 1.77 v 0.379 h -1.137 v 2.55 h 4.102 v 1.063 h 2.562 v -3.992 h 1.133 v -2.707 h -4.094 v -1.121 z" /></g><g
         id="g118"><path
           inkscape:connector-curvature="0"
           id="path120"
           style="fill:none;stroke:#000000;stroke-width:0.075;stroke-linecap:butt;stroke-linejoin:miter;stroke-miterlimit:4;stroke-dasharray:none;stroke-opacity:1"
           d="m 85.902,742.031 v 4.235 H 84.77 v 2.55 h 4.101 v 1.063 h 2.559 v -3.992 h 2.031 v 7.574 h 6.922 v 50.859 h -11.11 v 16.493 h 1.184 v 1.445 H 94 v -3.547 h -3.543 v 1.531 H 89.84 v -15.359 h 11.105 v -51.985 h -6.914 v -7.574 h -1.468 v -2.144 h -4.094 v -1.121 z" /></g><g
         id="g122"><path
           inkscape:connector-curvature="0"
           id="path124"
           style="fill:none;stroke:#000000;stroke-width:0.075;stroke-linecap:butt;stroke-linejoin:miter;stroke-miterlimit:4;stroke-dasharray:none;stroke-opacity:1"
           d="m 121.129,742.031 v 4.235 h -1.133 v 1.73 h -2.578 v 4.902 h -6.262 v 51.985 h 4.723 v 15.359 h -0.598 v -1.531 h -3.543 v 3.547 h 3.543 v -1.445 h 1.168 V 804.32 h -4.73 v -50.859 h 6.261 v -4.898 h 2.016 v 0.253 h 4.102 v 1.063 h 2.558 v -3.992 h 1.133 v -2.707 h -4.094 v -1.121 z" /></g><g
         id="g126"><path
           inkscape:connector-curvature="0"
           id="path128"
           style="fill:none;stroke:#000000;stroke-width:0.075;stroke-linecap:butt;stroke-linejoin:miter;stroke-miterlimit:4;stroke-dasharray:none;stroke-opacity:1"
           d="m 15.449,749.176 v 13.461 h 3.625 v 1.113 h 2.895 v -9.434 h 7.547 v 48.586 h -5.864 v 24.973 h 2.953 v 1.465 h 3.543 v -3.543 h -3.543 v 1.512 h -2.382 v -23.84 h 5.863 v -49.727 h -8.117 v -3.484 h -4.024 v -1.059 z" /></g><g
         id="g130"><path
           inkscape:connector-curvature="0"
           id="path132"
           style="fill:none;stroke:#000000;stroke-width:0.075;stroke-linecap:butt;stroke-linejoin:miter;stroke-miterlimit:4;stroke-dasharray:none;stroke-opacity:1"
           d="m 50.676,749.176 v 4.566 h -8.125 v 49.727 h 11.14 v 23.84 H 51.43 v -1.512 h -3.543 v 3.543 h 3.543 v -1.465 h 2.832 V 802.902 H 43.125 v -48.586 h 7.551 v 8.321 h 3.625 v 1.113 h 2.894 v -13.492 h -4.023 v -1.059 z" /></g><g
         id="g134"><path
           inkscape:connector-curvature="0"
           id="path136"
           style="fill:none;stroke:#000000;stroke-width:0.075;stroke-linecap:butt;stroke-linejoin:miter;stroke-miterlimit:4;stroke-dasharray:none;stroke-opacity:1"
           d="m 85.902,749.176 v 13.461 h 3.625 v 1.113 h 2.895 v -9.434 h 6.824 v 48.586 H 87.57 v 24.973 h 2.887 v 1.465 H 94 v -3.543 h -3.543 v 1.512 h -2.316 v -23.84 h 11.675 v -49.727 h -7.394 v -3.484 h -4.024 v -1.059 z" /></g><g
         id="g138"><path
           inkscape:connector-curvature="0"
           id="path140"
           style="fill:none;stroke:#000000;stroke-width:0.075;stroke-linecap:butt;stroke-linejoin:miter;stroke-miterlimit:4;stroke-dasharray:none;stroke-opacity:1"
           d="m 121.129,749.176 v 4.566 h -8.844 v 49.727 h 5.344 v 23.84 h -2.348 v -1.512 h -3.543 v 3.543 h 3.543 v -1.465 h 2.914 v -24.973 h -5.34 v -48.586 h 8.274 v 8.321 h 3.625 v 1.113 h 2.894 v -13.492 h -4.023 v -1.059 z" /></g><g
         id="g142"><path
           inkscape:connector-curvature="0"
           id="path144"
           style="fill:none;stroke:#000000;stroke-width:0.075;stroke-linecap:butt;stroke-linejoin:miter;stroke-miterlimit:4;stroke-dasharray:none;stroke-opacity:1"
           d="m 9.059,754.863 v 28.172 h 11.812 v 28.594 h -1.359 v 3.543 h 3.543 v -3.543 H 21.582 V 783.035 H 27.73 V 754.863 H 22.5 l -0.066,9.356 h -3.817 v -1.133 H 15 l 0.023,-8.223 z" /></g><g
         id="g146"><path
           inkscape:connector-curvature="0"
           id="path148"
           style="fill:none;stroke:#000000;stroke-width:0.075;stroke-linecap:butt;stroke-linejoin:miter;stroke-miterlimit:4;stroke-dasharray:none;stroke-opacity:1"
           d="m 44.285,754.863 v 28.172 h 12.156 v 28.594 H 54.98 v 3.543 h 3.543 v -3.543 h -1.515 v -28.594 h 5.949 v -28.172 h -5.23 l -0.067,9.356 h -3.816 v -1.133 h -3.617 l 0.023,-8.223 z" /></g><g
         id="g150"><path
           inkscape:connector-curvature="0"
           id="path152"
           style="fill:none;stroke:#000000;stroke-width:0.075;stroke-linecap:butt;stroke-linejoin:miter;stroke-miterlimit:4;stroke-dasharray:none;stroke-opacity:1"
           d="m 79.512,754.863 v 28.172 h 5.312 v 28.594 h -1.461 v 3.543 h 3.543 v -3.543 h -1.519 v -28.594 h 12.797 v -28.172 h -5.231 l -0.066,9.356 H 89.07 v -1.133 h -3.617 l 0.024,-8.223 z" /></g><g
         id="g154"><path
           inkscape:connector-curvature="0"
           id="path156"
           style="fill:none;stroke:#000000;stroke-width:0.075;stroke-linecap:butt;stroke-linejoin:miter;stroke-miterlimit:4;stroke-dasharray:none;stroke-opacity:1"
           d="m 114.738,754.863 v 28.172 h 5.512 v 28.594 h -1.418 v 3.543 h 3.543 v -3.543 h -1.414 v -28.594 h 12.449 v -28.172 h -5.23 l -0.067,9.356 h -3.816 v -1.133 h -3.617 l 0.023,-8.223 z" /></g><g
         transform="scale(-1)"
         id="g158"><path
           inkscape:connector-curvature="0"
           id="path160"
           style="fill:none;stroke:#000000;stroke-width:0.075;stroke-linecap:butt;stroke-linejoin:miter;stroke-miterlimit:4;stroke-dasharray:none;stroke-opacity:1"
           d="m -126.684,-735.738 v 4.234 h -1.132 v 2.547 h 4.097 v 1.066 h 6.156 v 9.793 h 7.278 v 53.121 h -3.672 v 5.895 h -1.504 v 3.543 h 3.543 v -3.543 h -1.473 v -5.328 h 3.672 v -54.258 H -117 v -9.789 h -4.156 v -3.426 h 1.133 v -2.707 h -4.094 v -1.121 z" /></g><g
         transform="scale(-1)"
         id="g162"><path
           inkscape:connector-curvature="0"
           id="path164"
           style="fill:none;stroke:#000000;stroke-width:0.075;stroke-linecap:butt;stroke-linejoin:miter;stroke-miterlimit:4;stroke-dasharray:none;stroke-opacity:1"
           d="m -119.641,-735.738 v 4.234 h -1.132 v 2.547 h 4.101 v 10.008 h 7.52 v 55.39 h -2.266 v 20.723 h 3.051 v 1.465 h 3.543 v -3.543 h -3.543 v 1.508 h -2.485 v -19.586 h 2.27 v -56.524 h -7.527 v -8.375 h 1.996 v -3.988 h 1.136 v -2.711 h -4.097 v -1.121 z" /></g><g
         transform="scale(-1)"
         id="g166"><path
           inkscape:connector-curvature="0"
           id="path168"
           style="fill:none;stroke:#000000;stroke-width:0.075;stroke-linecap:butt;stroke-linejoin:miter;stroke-miterlimit:4;stroke-dasharray:none;stroke-opacity:1"
           d="m -112.594,-735.738 v 4.234 h -1.136 v 4.93 h -1.571 v 6.769 h 7.281 v 57.664 h -1.699 v 12.239 h 1.352 v 1.445 h 3.543 V -652 h -3.543 v 1.527 h -0.785 v -11.105 h 1.703 v -58.789 h -7.281 v -5.637 h 1.57 v -2.953 h 3.531 v 1.066 h 2.563 v -3.988 h 1.132 v -2.711 h -4.093 v -1.121 z" /></g><g
         transform="scale(-1)"
         id="g170"><path
           inkscape:connector-curvature="0"
           id="path172"
           style="fill:none;stroke:#000000;stroke-width:0.075;stroke-linecap:butt;stroke-linejoin:miter;stroke-miterlimit:4;stroke-dasharray:none;stroke-opacity:1"
           d="m -105.551,-735.738 v 4.234 h -1.133 v 2.547 h 4.102 v 1.066 h 5.453 v 7.524 h -6.922 v 58.789 h 6.922 v 11.105 H -97.73 V -652 h -3.543 v 3.543 h 3.543 v -1.445 h 1.167 v -12.239 h -6.921 v -57.664 h 6.921 v -8.652 h -3.46 v -3.426 h 1.136 v -2.707 h -4.097 v -1.121 z" /></g><g
         transform="scale(-1)"
         id="g174"><path
           inkscape:connector-curvature="0"
           id="path176"
           style="fill:none;stroke:#000000;stroke-width:0.075;stroke-linecap:butt;stroke-linejoin:miter;stroke-miterlimit:4;stroke-dasharray:none;stroke-opacity:1"
           d="m -98.508,-735.738 v 4.234 h -1.133 v 2.547 h 4.102 v 9.441 h -7.375 v 56.524 h 7.484 v 19.586 h -2.3 v -1.508 h -3.543 v 3.543 h 3.543 v -1.465 h 2.867 v -20.723 h -7.489 v -55.39 h 7.379 v -8.942 h 1.996 v -3.988 h 1.133 v -2.711 h -4.094 v -1.121 z" /></g><g
         transform="scale(-1)"
         id="g178"><path
           inkscape:connector-curvature="0"
           id="path180"
           style="fill:none;stroke:#000000;stroke-width:0.075;stroke-linecap:butt;stroke-linejoin:miter;stroke-miterlimit:4;stroke-dasharray:none;stroke-opacity:1"
           d="m -91.461,-735.738 v 4.234 h -1.133 v 4.93 h -1.98 v 7.906 h -7.203 v 54.258 h 9.183 v 5.328 h -1.586 v 3.543 h 3.543 v -3.543 h -1.394 v -5.895 h -9.184 v -53.121 h 7.203 v -7.906 h 1.981 v -2.953 h 3.539 v 1.066 h 2.558 v -3.988 h 1.133 v -2.711 h -4.094 v -1.121 z" /></g><g
         transform="scale(-1)"
         id="g182"><path
           inkscape:connector-curvature="0"
           id="path184"
           style="fill:none;stroke:#000000;stroke-width:0.075;stroke-linecap:butt;stroke-linejoin:miter;stroke-miterlimit:4;stroke-dasharray:none;stroke-opacity:1"
           d="m -84.418,-735.738 v 4.234 h -1.133 v 2.547 h 2.629 v 10.008 h 6.012 v 55.39 h -6.012 v 13.086 h -0.621 V -652 h -3.543 v 3.543 h 3.543 v -1.445 h 1.191 v -13.09 h 6.008 v -56.524 h -6.008 v -9.441 h 0.903 v 1.066 h 2.558 v -3.988 h 1.137 v -2.711 h -4.094 v -1.121 z" /></g><g
         transform="scale(-1)"
         id="g186"><path
           inkscape:connector-curvature="0"
           id="path188"
           style="fill:none;stroke:#000000;stroke-width:0.075;stroke-linecap:butt;stroke-linejoin:miter;stroke-miterlimit:4;stroke-dasharray:none;stroke-opacity:1"
           d="m -77.371,-735.738 v 4.234 h -1.133 v 4.93 h -1.937 v 6.062 h 4.945 v 58.371 h -5.621 v 18.735 h -2.426 v -1.508 h -3.543 v 3.543 h 3.543 v -1.465 h 2.996 v -18.742 h 5.617 v -59.496 h -4.949 v -4.93 h 1.938 v -2.953 h 3.535 v 1.066 h 2.562 v -3.988 h 1.133 v -2.711 h -4.094 v -1.121 z" /></g><g
         transform="scale(-1)"
         id="g190"><path
           inkscape:connector-curvature="0"
           id="path192"
           style="fill:none;stroke:#000000;stroke-width:0.075;stroke-linecap:butt;stroke-linejoin:miter;stroke-miterlimit:4;stroke-dasharray:none;stroke-opacity:1"
           d="m -70.328,-735.738 v 4.234 h -1.133 v 2.547 h 4.102 v 1.066 h 2.558 v -0.007 l 2.242,-0.016 v 8.273 h -4.964 v 58.071 h 5.902 v 18.734 h 2.918 v 1.465 h 3.539 v -3.543 h -3.539 v 1.516 h -2.352 v -18.743 h -5.906 v -56.929 h 4.965 v -9.414 l -2.805,0.019 v -3.414 h 1.137 v -2.711 h -4.098 v -1.121 z" /></g><g
         transform="scale(-1)"
         id="g194"><path
           inkscape:connector-curvature="0"
           id="path196"
           style="fill:none;stroke:#000000;stroke-width:0.075;stroke-linecap:butt;stroke-linejoin:miter;stroke-miterlimit:4;stroke-dasharray:none;stroke-opacity:1"
           d="m -63.281,-735.738 v 4.234 h -1.137 v 2.547 h 4.102 v 11.258 h -5.637 v 54.707 h 6.14 v 13.09 h 1.11 v 1.445 h 3.539 V -652 h -3.539 v 1.527 h -0.547 v -13.086 h -6.133 v -53.574 h 5.629 v -10.758 h 2 v -3.988 h 1.133 v -2.711 h -4.094 v -1.121 z" /></g><g
         transform="scale(-1)"
         id="g198"><path
           inkscape:connector-curvature="0"
           id="path200"
           style="fill:none;stroke:#000000;stroke-width:0.075;stroke-linecap:butt;stroke-linejoin:miter;stroke-miterlimit:4;stroke-dasharray:none;stroke-opacity:1"
           d="m -56.238,-735.738 v 4.234 h -1.133 v 2.547 h 4.101 v 1.066 h 5.516 v 9.793 h 7.203 v 53.121 h -9.523 v 5.895 h -1.539 v 3.543 h 3.543 v -3.543 h -1.442 v -5.328 h 9.524 v -54.258 h -7.203 v -9.789 h -3.52 v -3.426 h 1.137 v -2.707 h -4.098 v -1.121 z" /></g><g
         transform="scale(-1)"
         id="g202"><path
           inkscape:connector-curvature="0"
           id="path204"
           style="fill:none;stroke:#000000;stroke-width:0.075;stroke-linecap:butt;stroke-linejoin:miter;stroke-miterlimit:4;stroke-dasharray:none;stroke-opacity:1"
           d="m -49.195,-735.738 v 4.234 h -1.133 v 2.547 h 4.101 v 10.008 h 6.809 v 55.39 h -8.02 v 20.723 h 2.918 v 1.465 h 3.547 v -3.543 h -3.547 v 1.508 h -2.355 v -19.586 h 8.023 v -56.524 h -6.804 v -8.375 h 1.992 v -3.988 h 1.133 v -2.711 h -4.094 v -1.121 z" /></g><g
         transform="scale(-1)"
         id="g206"><path
           inkscape:connector-curvature="0"
           id="path208"
           style="fill:none;stroke:#000000;stroke-width:0.075;stroke-linecap:butt;stroke-linejoin:miter;stroke-miterlimit:4;stroke-dasharray:none;stroke-opacity:1"
           d="m -42.148,-735.738 v 4.234 h -1.133 v 4.879 h -1.922 v 6.82 h 6.914 v 57.996 h -7.383 v 11.907 h 1.152 v 1.445 h 3.547 V -652 h -3.547 v 1.527 h -0.582 v -10.765 h 7.387 v -59.129 h -6.922 v -5.692 h 1.922 v -2.898 h 3.535 v 1.066 h 2.559 v -3.988 h 1.133 v -2.711 h -4.094 v -1.121 z" /></g><g
         transform="scale(-1)"
         id="g210"><path
           inkscape:connector-curvature="0"
           id="path212"
           style="fill:none;stroke:#000000;stroke-width:0.075;stroke-linecap:butt;stroke-linejoin:miter;stroke-miterlimit:4;stroke-dasharray:none;stroke-opacity:1"
           d="m -35.105,-735.738 v 4.234 h -1.133 v 2.547 h 4.101 v 1.066 h 3.996 v 7.524 h -6.175 v 58.789 h 1.168 v 11.105 h -0.731 V -652 h -3.543 v 3.543 h 3.543 v -1.445 h 1.293 v -12.239 h -1.164 v -57.664 h 6.176 v -8.652 h -2.004 v -3.426 h 1.137 v -2.707 h -4.094 v -1.121 z" /></g><g
         transform="scale(-1)"
         id="g214"><path
           inkscape:connector-curvature="0"
           id="path216"
           style="fill:none;stroke:#000000;stroke-width:0.075;stroke-linecap:butt;stroke-linejoin:miter;stroke-miterlimit:4;stroke-dasharray:none;stroke-opacity:1"
           d="m -28.059,-735.738 v 4.234 h -1.132 v 2.547 h 2.093 v 9.441 h -6.086 v 56.524 h 1.668 v 19.586 h -2.363 v -1.508 h -3.543 v 3.543 h 3.543 v -1.465 h 2.926 v -20.723 h -1.664 v -55.39 h 6.09 v -10.008 h 1.433 v 1.066 h 2.563 v -3.988 h 1.133 v -2.711 h -4.094 v -1.121 z" /></g><g
         transform="scale(-1)"
         id="g218"><path
           inkscape:connector-curvature="0"
           id="path220"
           style="fill:none;stroke:#000000;stroke-width:0.075;stroke-linecap:butt;stroke-linejoin:miter;stroke-miterlimit:4;stroke-dasharray:none;stroke-opacity:1"
           d="m -21.016,-735.738 v 4.234 h -1.132 v 5.613 h -3.614 v 7.223 h -6.285 v 54.258 h 3.203 v 5.328 h -1.488 v 3.543 h 3.543 v -3.543 h -1.488 v -5.895 h -3.207 v -53.121 h 6.285 v -7.23 h 3.621 v -3.629 h 3.531 v 1.066 h 2.559 v -3.988 h 1.136 v -2.711 h -4.097 v -1.121 z" /></g><g
         transform="scale(-1)"
         id="g222"><path
           inkscape:connector-curvature="0"
           id="path224"
           style="fill:none;stroke:#000000;stroke-width:0.075;stroke-linecap:butt;stroke-linejoin:miter;stroke-miterlimit:4;stroke-dasharray:none;stroke-opacity:1"
           d="m -112.586,-728.727 v 4.235 h -1.133 v 2.547 l 5.395,0.004 v 0.859 h 1.441 l 0.004,62 h -1.488 v 3.543 h 3.543 v -3.543 h -1.489 l -0.007,-62.57 h -1.438 v -0.289 h 0.699 v -2.93 h 1.133 v -2.707 h -4.094 v -1.125 z" /></g><g
         transform="scale(-1)"
         id="g226"><path
           inkscape:connector-curvature="0"
           id="path228"
           style="fill:none;stroke:#000000;stroke-width:0.075;stroke-linecap:butt;stroke-linejoin:miter;stroke-miterlimit:4;stroke-dasharray:none;stroke-opacity:1"
           d="m -105.535,-728.727 v 4.235 h -1.133 v 2.547 h 1.484 v 62.394 h 4.536 v 0.469 h -0.625 v 3.543 h 3.543 v -3.543 h -2.348 v -1.031 h -4.535 v -61.832 l 4.605,0.004 v -2.93 h 1.133 v -2.707 h -4.094 v -1.125 z" /></g><g
         transform="scale(-1)"
         id="g230"><path
           inkscape:connector-curvature="0"
           id="path232"
           style="fill:none;stroke:#000000;stroke-width:0.075;stroke-linecap:butt;stroke-linejoin:miter;stroke-miterlimit:4;stroke-dasharray:none;stroke-opacity:1"
           d="m -77.402,-728.727 v 4.235 h -1.133 v 2.547 l 4.992,0.004 v 61.828 h -4.961 v 1.031 h -1.488 v 3.543 h 3.543 v -3.543 h -1.492 v -0.469 h 4.964 v -62.39 h 1.102 v -2.93 h 1.133 v -2.707 h -4.094 v -1.125 z" /></g><g
         transform="scale(-1)"
         id="g234"><path
           inkscape:connector-curvature="0"
           id="path236"
           style="fill:none;stroke:#000000;stroke-width:0.075;stroke-linecap:butt;stroke-linejoin:miter;stroke-miterlimit:4;stroke-dasharray:none;stroke-opacity:1"
           d="m -70.352,-728.727 v 4.235 h -1.132 v 2.547 h 2.171 v 62.394 h 5.485 v 0.469 h -1.973 v 3.543 h 3.547 v -3.543 h -1.008 v -1.031 h -5.48 v -61.832 l 3.918,0.004 v -2.93 h 1.133 v -2.707 h -4.094 v -1.125 z" /></g><g
         transform="scale(-1)"
         id="g238"><path
           inkscape:connector-curvature="0"
           id="path240"
           style="fill:none;stroke:#000000;stroke-width:0.075;stroke-linecap:butt;stroke-linejoin:miter;stroke-miterlimit:4;stroke-dasharray:none;stroke-opacity:1"
           d="m -42.219,-728.727 v 4.235 h -1.133 v 2.547 l 6.094,0.004 v 61.828 h -5.769 v 1.031 h -1.493 v 3.543 h 3.547 v -3.543 h -1.484 v -0.469 h 5.766 v -65.32 h 1.132 v -2.707 h -4.093 v -1.125 z" /></g><g
         transform="scale(-1)"
         id="g242"><path
           inkscape:connector-curvature="0"
           id="path244"
           style="fill:none;stroke:#000000;stroke-width:0.075;stroke-linecap:butt;stroke-linejoin:miter;stroke-miterlimit:4;stroke-dasharray:none;stroke-opacity:1"
           d="m -35.168,-728.727 v 4.235 h -1.137 v 2.547 h 0.852 v 62.863 h -1.969 v 3.543 h 3.543 v -3.543 h -1.008 l 0.004,-62.863 5.242,0.004 v -2.93 h 1.133 v -2.707 h -4.094 v -1.125 z" /></g><g
         transform="scale(-1)"
         id="g246"><path
           inkscape:connector-curvature="0"
           id="path248"
           style="fill:none;stroke:#000000;stroke-width:0.075;stroke-linecap:butt;stroke-linejoin:miter;stroke-miterlimit:4;stroke-dasharray:none;stroke-opacity:1"
           d="m -126.621,-728.68 v 4.235 h -1.133 v 2.547 h 4.102 v 1.062 h 2.562 v -3.988 h 2.672 v 7.574 h 7 v 50.855 h -5.301 v 16.493 h 1.258 v 1.445 h 3.543 V -652 h -3.543 v 1.527 h -0.684 v -15.355 h 5.293 v -51.988 h -6.996 v -7.571 h -2.109 v -2.144 l -4.094,-0.004 v -1.121 z" /></g><g
         transform="scale(-1)"
         id="g250"><path
           inkscape:connector-curvature="0"
           id="path252"
           style="fill:none;stroke:#000000;stroke-width:0.075;stroke-linecap:butt;stroke-linejoin:miter;stroke-miterlimit:4;stroke-dasharray:none;stroke-opacity:1"
           d="m -91.395,-728.68 v 3.293 h -2.335 v 7.571 h -6.918 v 51.988 h 10.574 v 15.355 h -0.563 V -652 h -3.543 v 3.543 h 3.543 v -1.445 h 1.125 v -16.493 h -10.566 v -50.855 h 6.918 v -7.574 h 1.765 v 0.379 h -1.132 v 2.547 h 4.101 v 1.062 h 2.563 v -3.988 h 1.133 v -2.707 l -4.094,-0.004 v -1.121 z" /></g><g
         transform="scale(-1)"
         id="g254"><path
           inkscape:connector-curvature="0"
           id="path256"
           style="fill:none;stroke:#000000;stroke-width:0.075;stroke-linecap:butt;stroke-linejoin:miter;stroke-miterlimit:4;stroke-dasharray:none;stroke-opacity:1"
           d="m -56.168,-728.68 v 4.235 h -1.129 v 2.547 h 4.098 v 1.062 h 2.562 v -3.988 h 2.028 v 7.574 h 6.921 v 50.855 h -11.105 v 16.493 h 1.18 v 1.445 h 3.543 V -652 h -3.543 v 1.527 h -0.617 v -15.355 h 11.109 v -51.988 h -6.918 v -7.571 h -1.465 v -2.144 l -4.094,-0.004 v -1.121 z" /></g><g
         transform="scale(-1)"
         id="g258"><path
           inkscape:connector-curvature="0"
           id="path260"
           style="fill:none;stroke:#000000;stroke-width:0.075;stroke-linecap:butt;stroke-linejoin:miter;stroke-miterlimit:4;stroke-dasharray:none;stroke-opacity:1"
           d="m -20.941,-728.68 v 4.235 h -1.129 v 1.73 h -2.582 v 4.899 h -6.262 v 51.988 h 4.723 v 15.355 h -0.598 V -652 h -3.543 v 3.543 h 3.543 v -1.445 h 1.168 v -16.493 h -4.727 v -50.855 h 6.262 v -4.898 h 2.016 v 0.25 h 4.097 v 1.062 h 2.563 v -3.988 h 1.133 v -2.707 l -4.094,-0.004 v -1.121 z" /></g><g
         transform="scale(-1)"
         id="g262"><path
           inkscape:connector-curvature="0"
           id="path264"
           style="fill:none;stroke:#000000;stroke-width:0.075;stroke-linecap:butt;stroke-linejoin:miter;stroke-miterlimit:4;stroke-dasharray:none;stroke-opacity:1"
           d="m -126.621,-721.535 v 13.461 h 3.629 v 1.109 h 2.894 v -9.433 h 7.547 v 48.589 h -5.867 v 24.973 h 2.957 v 1.465 h 3.543 v -3.543 h -3.543 v 1.508 h -2.387 v -23.84 h 5.864 v -49.723 h -8.114 v -3.484 h -4.027 v -1.059 z" /></g><g
         transform="scale(-1)"
         id="g266"><path
           inkscape:connector-curvature="0"
           id="path268"
           style="fill:none;stroke:#000000;stroke-width:0.075;stroke-linecap:butt;stroke-linejoin:miter;stroke-miterlimit:4;stroke-dasharray:none;stroke-opacity:1"
           d="m -91.395,-721.535 v 4.566 h -8.121 v 49.723 h 11.141 v 23.84 h -2.262 v -1.508 h -3.543 v 3.543 h 3.543 v -1.465 h 2.832 v -24.973 h -11.14 v -48.589 h 7.55 v 8.324 h 3.629 v 1.109 h 2.895 v -13.488 h -4.027 v -1.059 z" /></g><g
         transform="scale(-1)"
         id="g270"><path
           inkscape:connector-curvature="0"
           id="path272"
           style="fill:none;stroke:#000000;stroke-width:0.075;stroke-linecap:butt;stroke-linejoin:miter;stroke-miterlimit:4;stroke-dasharray:none;stroke-opacity:1"
           d="m -56.168,-721.535 v 13.461 h 3.629 v 1.109 h 2.894 v -9.433 h 6.825 v 48.589 h -11.676 v 24.973 h 2.883 v 1.465 h 3.543 v -3.543 h -3.543 v 1.508 h -2.317 v -23.84 h 11.68 v -49.723 h -7.395 v -3.484 h -4.027 v -1.059 z" /></g><g
         transform="scale(-1)"
         id="g274"><path
           inkscape:connector-curvature="0"
           id="path276"
           style="fill:none;stroke:#000000;stroke-width:0.075;stroke-linecap:butt;stroke-linejoin:miter;stroke-miterlimit:4;stroke-dasharray:none;stroke-opacity:1"
           d="m -20.941,-721.535 v 4.566 h -8.84 v 49.723 h 5.34 v 23.84 h -2.348 v -1.508 h -3.543 v 3.543 h 3.543 v -1.465 h 2.918 v -24.973 h -5.344 v -48.589 h 8.274 v 8.324 h 3.628 v 1.109 h 2.895 v -13.488 h -4.027 v -1.059 z" /></g><g
         transform="scale(-1)"
         id="g278"><path
           inkscape:connector-curvature="0"
           id="path280"
           style="fill:none;stroke:#000000;stroke-width:0.075;stroke-linecap:butt;stroke-linejoin:miter;stroke-miterlimit:4;stroke-dasharray:none;stroke-opacity:1"
           d="m -133.012,-715.848 v 28.172 h 11.817 v 28.594 h -1.36 v 3.543 h 3.543 v -3.543 h -1.472 v -28.594 h 6.148 v -28.172 h -5.23 l -0.071,9.356 h -3.812 v -1.133 h -3.617 l 0.023,-8.223 z" /></g><g
         transform="scale(-1)"
         id="g282"><path
           inkscape:connector-curvature="0"
           id="path284"
           style="fill:none;stroke:#000000;stroke-width:0.075;stroke-linecap:butt;stroke-linejoin:miter;stroke-miterlimit:4;stroke-dasharray:none;stroke-opacity:1"
           d="m -97.785,-715.848 v 28.172 h 12.16 v 28.594 h -1.461 v 3.543 h 3.543 v -3.543 h -1.516 v -28.594 h 5.95 v -28.172 h -5.231 l -0.07,9.356 h -3.813 v -1.133 h -3.617 l 0.024,-8.223 z" /></g><g
         transform="scale(-1)"
         id="g286"><path
           inkscape:connector-curvature="0"
           id="path288"
           style="fill:none;stroke:#000000;stroke-width:0.075;stroke-linecap:butt;stroke-linejoin:miter;stroke-miterlimit:4;stroke-dasharray:none;stroke-opacity:1"
           d="m -62.559,-715.848 v 28.172 h 5.313 v 28.594 h -1.457 v 3.543 h 3.539 v -3.543 h -1.516 v -28.594 h 12.797 v -28.172 h -5.23 l -0.071,9.356 h -3.812 v -1.133 h -3.617 l 0.023,-8.223 z" /></g><g
         transform="scale(-1)"
         id="g290"><path
           inkscape:connector-curvature="0"
           id="path292"
           style="fill:none;stroke:#000000;stroke-width:0.075;stroke-linecap:butt;stroke-linejoin:miter;stroke-miterlimit:4;stroke-dasharray:none;stroke-opacity:1"
           d="m -27.332,-715.848 v 28.172 h 5.516 v 28.594 h -1.422 v 3.543 h 3.547 v -3.543 h -1.418 v -28.594 h 12.453 v -28.172 h -5.231 l -0.066,9.356 h -3.817 v -1.133 h -3.617 l 0.024,-8.223 z" /></g></g></g></svg>
