<?xml version="1.0" encoding="UTF-8" standalone="no"?>
<svg
   xmlns:dc="http://purl.org/dc/elements/1.1/"
   xmlns:cc="http://creativecommons.org/ns#"
   xmlns:rdf="http://www.w3.org/1999/02/22-rdf-syntax-ns#"
   xmlns:svg="http://www.w3.org/2000/svg"
   xmlns="http://www.w3.org/2000/svg"
   xmlns:sodipodi="http://sodipodi.sourceforge.net/DTD/sodipodi-0.dtd"
   xmlns:inkscape="http://www.inkscape.org/namespaces/inkscape"
   inkscape:version="1.0beta2 (2b71d25, 2019-12-03)"
   sodipodi:docname="200227-DMF-final-layout-fromQCAD.svg"
   viewBox="0 0 793.70074 1122.5197"
   height="1122.5197"
   width="793.70074"
   xml:space="preserve"
   id="svg10"
   version="1.1"><metadata
     id="metadata16"><rdf:RDF><cc:Work
         rdf:about=""><dc:format>image/svg+xml</dc:format><dc:type
           rdf:resource="http://purl.org/dc/dcmitype/StillImage" /><dc:title></dc:title></cc:Work></rdf:RDF></metadata><defs
     id="defs14" /><sodipodi:namedview
     inkscape:current-layer="g18"
     inkscape:window-maximized="0"
     inkscape:window-y="23"
     inkscape:window-x="0"
     inkscape:cy="561.25983"
     inkscape:cx="396.85037"
     inkscape:zoom="0.92915968"
     showgrid="false"
     id="namedview12"
     inkscape:window-height="480"
     inkscape:window-width="795"
     inkscape:pageshadow="2"
     inkscape:pageopacity="0"
     guidetolerance="10"
     gridtolerance="10"
     objecttolerance="10"
     borderopacity="1"
     inkscape:document-rotation="0"
     bordercolor="#666666"
     pagecolor="#ffffff" /><g
     transform="matrix(1.3333333,0,0,1.3333333,0,3.3396326e-5)"
     inkscape:label="200227-DMF-final-layout-fromQCAD"
     inkscape:groupmode="layer"
     id="g18"><g
       id="g20"><g
         id="g22"><path
           inkscape:connector-curvature="0"
           id="path24"
           style="fill:none;stroke:#000000;stroke-width:0.075;stroke-linecap:butt;stroke-linejoin:miter;stroke-miterlimit:4;stroke-dasharray:none;stroke-opacity:1"
           d="m -17.965,840.809 v 12 h -3.215 v 7.226 h 0.008 v 6.75 h -5.496 v 17.184 h 14.016 v 165.461 h -15.93 v 53.105 h -6.875 v -4.281 h -10.047 v 10.047 h 10.047 v -4.149 h 8.492 v -53.125 h 15.926 V 882.371 H -25.07 v -13.969 h 5.496 v -8.367 h 10.019 v 3.02 h 7.258 v -11.313 h 3.215 v -7.683 h -11.606 v -3.18 z" /></g><g
         id="g26"><path
           inkscape:connector-curvature="0"
           id="path28"
           style="fill:none;stroke:#000000;stroke-width:0.075;stroke-linecap:butt;stroke-linejoin:miter;stroke-miterlimit:4;stroke-dasharray:none;stroke-opacity:1"
           d="m 2.004,840.809 v 12 h -3.215 v 7.226 h 11.625 v 3.02 h 7.258 v -0.028 l 6.351,-0.039 v 23.446 H 9.949 v 164.609 h 16.727 v 53.109 h 8.273 v 4.149 h 10.039 v -10.043 H 34.949 v 4.297 H 28.293 V 1049.43 H 11.547 V 888.051 h 14.074 v -26.68 l -7.949,0.051 v -9.68 h 3.219 v -7.683 H 9.277 v -3.18 z" /></g><g
         id="g30"><path
           inkscape:connector-curvature="0"
           id="path32"
           style="fill:none;stroke:#000000;stroke-width:0.075;stroke-linecap:butt;stroke-linejoin:miter;stroke-miterlimit:4;stroke-dasharray:none;stroke-opacity:1"
           d="m 21.973,840.809 v 12 h -3.215 v 7.226 h 11.625 v 31.906 H 14.402 v 155.071 h 17.403 v 37.113 h 3.144 v 4.094 h 10.039 v -10.043 H 34.949 v 4.336 H 33.406 V 1045.41 H 16.02 V 893.543 h 15.96 v -30.488 h 5.665 v -11.313 h 3.21 v -7.683 H 29.25 v -3.18 z" /></g><g
         id="g34"><path
           inkscape:connector-curvature="0"
           id="path36"
           style="fill:none;stroke:#000000;stroke-width:0.075;stroke-linecap:butt;stroke-linejoin:miter;stroke-miterlimit:4;stroke-dasharray:none;stroke-opacity:1"
           d="m 41.941,840.809 v 12 h -3.214 v 7.226 h 11.625 v 3.02 h 7.261 v -0.008 h 8.375 v 27.762 h 20.414 v 150.586 H 59.414 v 16.699 h -4.359 v 10.047 h 10.043 v -10.047 h -4.086 v -15.102 H 88.008 V 889.195 H 67.59 v -27.746 h -9.977 v -9.707 h 3.211 v -7.683 H 49.219 v -3.18 z" /></g><g
         id="g38"><path
           inkscape:connector-curvature="0"
           id="path40"
           style="fill:none;stroke:#000000;stroke-width:0.075;stroke-linecap:butt;stroke-linejoin:miter;stroke-miterlimit:4;stroke-dasharray:none;stroke-opacity:1"
           d="m 61.91,840.809 v 12 h -3.215 v 7.226 h 11.621 v 28.36 H 89.621 V 1045.41 H 66.883 v 58.742 h 8.281 v 4.149 h 10.043 v -10.047 H 75.164 v 4.281 h -6.68 v -55.523 H 91.223 V 886.797 H 71.938 v -23.742 h 5.644 v -11.313 h 3.211 v -7.683 H 69.188 v -3.18 z" /></g><g
         id="g42"><path
           inkscape:connector-curvature="0"
           id="path44"
           style="fill:none;stroke:#000000;stroke-width:0.075;stroke-linecap:butt;stroke-linejoin:miter;stroke-miterlimit:4;stroke-dasharray:none;stroke-opacity:1"
           d="m 81.879,840.809 v 12 h -3.211 v 13.836 h -5.445 v 19.332 h 19.601 v 164.394 H 71.887 v 33.754 h 3.277 v 4.094 h 10.043 v -10.043 H 75.164 v 4.336 h -1.656 v -30.524 H 94.441 V 884.379 H 74.824 v -16.137 h 5.446 v -8.207 h 10.019 v 3.02 h 7.258 v -11.313 h 3.215 v -7.683 H 89.156 v -3.18 z" /></g><g
         id="g46"><path
           inkscape:connector-curvature="0"
           id="path48"
           style="fill:none;stroke:#000000;stroke-width:0.075;stroke-linecap:butt;stroke-linejoin:miter;stroke-miterlimit:4;stroke-dasharray:none;stroke-opacity:1"
           d="m 101.848,840.809 v 12 h -3.211 v 7.226 h 11.621 v 3.02 h 7.258 v -0.008 h 4.074 v 21.332 h -17.516 v 166.648 h 3.317 v 31.485 h -2.075 v -4.336 H 95.273 v 10.043 h 10.043 v -4.094 h 3.672 v -34.695 h -3.297 V 885.977 h 17.5 v -24.528 h -5.675 v -9.707 h 3.215 v -7.683 h -11.606 v -3.18 z" /></g><g
         id="g50"><path
           inkscape:connector-curvature="0"
           id="path52"
           style="fill:none;stroke:#000000;stroke-width:0.075;stroke-linecap:butt;stroke-linejoin:miter;stroke-miterlimit:4;stroke-dasharray:none;stroke-opacity:1"
           d="m 121.82,840.809 v 12 h -3.214 v 7.226 h 5.937 v 26.762 h -17.25 v 160.215 h 4.727 v 55.523 h -6.704 v -4.281 H 95.273 v 10.047 h 10.043 v -4.149 h 8.301 v -58.742 h -4.722 V 888.395 h 17.261 v -28.36 h 4.071 v 3.02 h 7.257 v -11.313 h 3.215 v -7.683 h -11.605 v -3.18 z" /></g><g
         id="g54"><path
           inkscape:connector-curvature="0"
           id="path56"
           style="fill:none;stroke:#000000;stroke-width:0.075;stroke-linecap:butt;stroke-linejoin:miter;stroke-miterlimit:4;stroke-dasharray:none;stroke-opacity:1"
           d="m 141.789,840.809 v 12 h -3.215 v 15.906 h -10.25 v 20.48 h -17.812 v 153.797 h 9.086 v 15.102 h -4.219 v 10.047 h 10.043 v -10.047 h -4.223 v -16.699 h -9.09 V 890.813 h 17.817 v -20.497 h 10.262 v -10.281 h 10.007 v 3.02 h 7.258 v -11.313 h 3.219 v -7.683 h -11.609 v -3.18 z" /></g><g
         id="g58"><path
           inkscape:connector-curvature="0"
           id="path60"
           style="fill:none;stroke:#000000;stroke-width:0.075;stroke-linecap:butt;stroke-linejoin:miter;stroke-miterlimit:4;stroke-dasharray:none;stroke-opacity:1"
           d="m 157.746,842.973 v -12.004 h 3.215 v -7.223 H 149.34 v -3.019 h -7.258 v 0.003 H 131.895 V 792.969 H 111.258 V 642.387 h 10.418 v -16.703 h 4.262 v -10.043 h -10.047 v 10.043 h 4.172 v 15.101 h -10.407 v 153.797 h 20.637 v 27.746 h 11.789 v 9.711 h -3.215 v 7.68 h 11.606 v 3.179 z" /></g><g
         id="g62"><path
           inkscape:connector-curvature="0"
           id="path64"
           style="fill:none;stroke:#000000;stroke-width:0.075;stroke-linecap:butt;stroke-linejoin:miter;stroke-miterlimit:4;stroke-dasharray:none;stroke-opacity:1"
           d="m 137.777,842.973 v -12.004 h 3.215 v -7.223 h -11.621 v -3.019 h -0.004 v -25.34 H 108.055 V 638.371 h 6.422 v -58.742 h -8.649 V 575.48 H 95.781 v 10.043 h 10.047 v -4.281 h 7.047 v 55.524 h -6.437 v 160.218 h 21.328 v 23.743 h -5.653 v 11.312 h -3.218 v 7.68 h 11.609 v 3.179 z" /></g><g
         id="g66"><path
           inkscape:connector-curvature="0"
           id="path68"
           style="fill:none;stroke:#000000;stroke-width:0.075;stroke-linecap:butt;stroke-linejoin:miter;stroke-miterlimit:4;stroke-dasharray:none;stroke-opacity:1"
           d="m 117.813,842.973 v -12.004 h 3.211 v -2.977 h 0.007 v -11 h 4.446 V 797.801 H 104.84 V 634.352 h 4.816 v -34.7 h -3.828 v -4.093 H 95.781 v 10.046 h 10.047 v -4.335 h 2.231 v 31.484 h -4.836 v 166.648 h 20.636 v 15.977 h -4.441 v 8.367 h -10.02 v -3.019 h -7.257 v 11.312 h -3.215 v 7.68 h 11.605 v 3.179 z" /></g><g
         id="g70"><path
           inkscape:connector-curvature="0"
           id="path72"
           style="fill:none;stroke:#000000;stroke-width:0.075;stroke-linecap:butt;stroke-linejoin:miter;stroke-miterlimit:4;stroke-dasharray:none;stroke-opacity:1"
           d="m 97.844,842.973 v -12.004 h 3.211 v -7.223 H 89.43 v -3.019 h -7.258 v 0.003 H 73.969 V 799.402 H 93.586 V 632.754 H 73.969 V 601.27 h 1.703 v 4.335 H 85.719 V 595.559 H 75.672 v 4.093 h -3.305 v 34.7 H 91.984 V 797.801 H 72.367 v 24.527 h 9.805 v 9.711 h -3.215 v 7.68 h 11.606 v 3.179 z" /></g><g
         id="g74"><path
           inkscape:connector-curvature="0"
           id="path76"
           style="fill:none;stroke:#000000;stroke-width:0.075;stroke-linecap:butt;stroke-linejoin:miter;stroke-miterlimit:4;stroke-dasharray:none;stroke-opacity:1"
           d="m 77.875,842.973 v -12.004 h 3.211 v -7.223 H 69.465 V 796.984 H 90.367 V 636.766 H 69.148 v -55.524 h 6.524 v 4.281 H 85.719 V 575.48 H 75.672 v 4.149 h -8.121 v 58.742 H 88.77 V 795.387 H 67.863 v 25.34 h -5.66 v 11.312 h -3.215 v 7.68 h 11.606 v 3.179 z" /></g><g
         id="g78"><path
           inkscape:connector-curvature="0"
           id="path80"
           style="fill:none;stroke:#000000;stroke-width:0.075;stroke-linecap:butt;stroke-linejoin:miter;stroke-miterlimit:4;stroke-dasharray:none;stroke-opacity:1"
           d="m 57.906,842.973 v -12.004 h 3.207 v -13.977 h 5.621 v -22.41 H 87.148 V 640.785 H 61.113 v -15.101 h 4.5 V 615.641 H 55.566 v 10.043 h 3.95 v 16.703 H 85.551 V 792.969 H 65.133 v 22.41 h -5.617 v 8.367 H 49.492 v -3.019 h -7.258 v 11.312 H 39.02 v 7.68 h 11.605 v 3.179 z" /></g><g
         id="g82"><path
           inkscape:connector-curvature="0"
           id="path84"
           style="fill:none;stroke:#000000;stroke-width:0.075;stroke-linecap:butt;stroke-linejoin:miter;stroke-miterlimit:4;stroke-dasharray:none;stroke-opacity:1"
           d="m 37.938,842.973 v -12.004 h 3.21 v -7.223 H 33.699 V 795.387 H 16.656 V 638.371 H 33.699 V 601.27 h 1.758 v 4.335 H 45.504 V 595.559 H 35.457 v 4.093 h -3.375 v 37.114 H 15.055 v 160.218 h 17.027 v 26.762 h -2.559 v -3.019 h -7.257 v 11.312 h -3.215 v 7.68 h 11.605 v 3.179 z" /></g><g
         id="g86"><path
           inkscape:connector-curvature="0"
           id="path88"
           style="fill:none;stroke:#000000;stroke-width:0.075;stroke-linecap:butt;stroke-linejoin:miter;stroke-miterlimit:4;stroke-dasharray:none;stroke-opacity:1"
           d="m 17.965,842.973 v -12.004 h 3.215 v -7.223 h -0.008 v -6.754 h 5.496 V 799.813 H 12.652 V 634.352 h 15.93 v -53.11 h 6.875 v 4.281 H 45.504 V 575.48 H 35.457 v 4.149 h -8.492 v 53.125 H 11.039 V 801.41 H 25.07 v 13.969 h -5.496 v 8.367 H 9.555 v -3.019 H 2.297 v 11.312 h -3.215 v 7.68 h 11.609 v 3.179 z" /></g><g
         id="g90"><path
           inkscape:connector-curvature="0"
           id="path92"
           style="fill:none;stroke:#000000;stroke-width:0.075;stroke-linecap:butt;stroke-linejoin:miter;stroke-miterlimit:4;stroke-dasharray:none;stroke-opacity:1"
           d="m -2.004,842.973 v -12.004 h 3.215 v -7.223 h -11.625 v -3.019 h -7.258 v 0.023 l -6.351,0.043 v -23.449 h 14.074 v -164.61 h -16.727 v -53.105 h -8.273 v -4.149 h -10.039 v 10.043 h 10.039 v -4.296 h 6.656 v 53.125 h 16.746 V 795.73 h -14.074 v 26.68 l 7.949,-0.051 v 9.68 h -3.219 v 7.68 h 11.614 v 3.179 z" /></g><g
         id="g94"><path
           inkscape:connector-curvature="0"
           id="path96"
           style="fill:none;stroke:#000000;stroke-width:0.075;stroke-linecap:butt;stroke-linejoin:miter;stroke-miterlimit:4;stroke-dasharray:none;stroke-opacity:1"
           d="M 117.785,823.094 V 811.098 H 121 v -7.227 l -15.297,-0.004 v -2.441 h -4.082 l -0.015,-175.742 h 4.222 V 615.641 H 95.781 v 10.043 h 4.223 l 0.019,177.359 h 4.079 v 0.824 h -1.989 v 8.297 h -3.211 v 7.684 h 11.606 v 3.179 z" /></g><g
         id="g98"><path
           inkscape:connector-curvature="0"
           id="path100"
           style="fill:none;stroke:#000000;stroke-width:0.075;stroke-linecap:butt;stroke-linejoin:miter;stroke-miterlimit:4;stroke-dasharray:none;stroke-opacity:1"
           d="m 97.801,823.094 v -11.996 h 3.215 v -7.227 H 96.805 V 627.004 H 83.949 v -1.32 h 1.77 V 615.641 H 75.672 v 10.043 h 6.66 v 2.925 h 12.852 v 175.262 l -13.055,-0.004 v 8.297 h -3.215 v 7.684 h 11.609 v 3.179 z" /></g><g
         id="g102"><path
           inkscape:connector-curvature="0"
           id="path104"
           style="fill:none;stroke:#000000;stroke-width:0.075;stroke-linecap:butt;stroke-linejoin:miter;stroke-miterlimit:4;stroke-dasharray:none;stroke-opacity:1"
           d="m 18.051,823.094 v -11.996 h 3.215 v -7.227 L 7.113,803.867 V 628.609 h 14.063 v -2.925 h 4.219 V 615.641 H 15.348 v 10.043 h 4.226 v 1.32 H 5.512 V 803.867 H 2.387 v 8.297 h -3.215 v 7.684 h 11.605 v 3.179 z" /></g><g
         id="g106"><path
           inkscape:connector-curvature="0"
           id="path108"
           style="fill:none;stroke:#000000;stroke-width:0.075;stroke-linecap:butt;stroke-linejoin:miter;stroke-miterlimit:4;stroke-dasharray:none;stroke-opacity:1"
           d="m -1.93,823.094 v -11.996 h 3.211 v -7.227 h -6.16 V 627.004 H -20.43 v -1.32 h 5.59 v -10.043 h -10.043 v 10.043 h 2.852 v 2.925 h 15.539 v 175.262 l -11.11,-0.004 v 8.297 h -3.211 v 7.684 h 11.606 v 3.179 z" /></g><g
         id="g110"><path
           inkscape:connector-curvature="0"
           id="path112"
           style="fill:none;stroke:#000000;stroke-width:0.075;stroke-linecap:butt;stroke-linejoin:miter;stroke-miterlimit:4;stroke-dasharray:none;stroke-opacity:1"
           d="m 157.566,822.965 v -12 h 3.211 v -7.227 h -11.625 v -3.011 h -7.257 v 11.308 h -7.582 V 790.57 H 114.477 V 646.406 h 15.019 v -46.754 h -3.558 v -4.093 h -10.047 v 10.046 h 10.047 v -4.335 h 1.937 v 43.531 h -15 v 147.367 h 19.82 v 21.469 h 5.985 v 6.078 l 11.605,0.004 v 3.176 z" /></g><g
         id="g114"><path
           inkscape:connector-curvature="0"
           id="path116"
           style="fill:none;stroke:#000000;stroke-width:0.075;stroke-linecap:butt;stroke-linejoin:miter;stroke-miterlimit:4;stroke-dasharray:none;stroke-opacity:1"
           d="m 57.711,822.965 v -9.328 h 6.621 V 792.168 H 83.949 V 644.801 H 53.973 V 601.27 h 1.593 v 4.335 H 65.613 V 595.559 H 55.566 v 4.093 h -3.191 v 46.754 H 82.332 V 790.57 H 62.719 v 21.465 h -5.008 v -1.07 h 3.215 v -7.227 H 49.297 v -3.011 h -7.258 v 11.308 h -3.215 v 7.68 l 11.606,0.004 v 3.176 z" /></g><g
         id="g118"><path
           inkscape:connector-curvature="0"
           id="path120"
           style="fill:none;stroke:#000000;stroke-width:0.075;stroke-linecap:butt;stroke-linejoin:miter;stroke-miterlimit:4;stroke-dasharray:none;stroke-opacity:1"
           d="m 157.566,802.715 v -38.156 h -10.277 v -3.153 h -8.207 v 26.742 H 117.691 V 650.422 h 16.622 v -70.793 h -8.375 v -4.149 h -10.047 v 10.043 h 10.047 v -4.281 h 6.757 v 67.578 h -16.621 v 140.946 h 23.008 v 9.879 h 11.406 v 3.003 z" /></g><g
         id="g122"><path
           inkscape:connector-curvature="0"
           id="path124"
           style="fill:none;stroke:#000000;stroke-width:0.075;stroke-linecap:butt;stroke-linejoin:miter;stroke-miterlimit:4;stroke-dasharray:none;stroke-opacity:1"
           d="M 57.711,802.715 V 789.766 H 80.734 V 648.82 H 49.156 v -67.578 h 6.41 v 4.281 H 65.613 V 575.48 H 55.566 v 4.149 h -8.023 v 70.793 H 79.117 V 788.148 H 57.711 V 764.559 H 47.434 v -3.153 h -8.207 v 38.239 h 11.406 v 3.003 z" /></g><g
         id="g126"><path
           inkscape:connector-curvature="0"
           id="path128"
           style="fill:none;stroke:#000000;stroke-width:0.075;stroke-linecap:butt;stroke-linejoin:miter;stroke-miterlimit:4;stroke-dasharray:none;stroke-opacity:1"
           d="m 175.68,786.59 v -79.856 h -33.492 v -81.05 h 3.855 V 615.641 H 136 v 10.043 h 4.18 v 81.05 h -17.438 v 79.856 h 14.832 l 0.192,-26.52 h 10.816 v 3.215 h 10.254 l -0.066,23.305 z" /></g><g
         id="g130"><path
           inkscape:connector-curvature="0"
           id="path132"
           style="fill:none;stroke:#000000;stroke-width:0.075;stroke-linecap:butt;stroke-linejoin:miter;stroke-miterlimit:4;stroke-dasharray:none;stroke-opacity:1"
           d="M 75.828,786.59 V 706.734 H 41.359 v -81.05 h 4.145 V 615.641 H 35.457 v 10.043 h 4.297 v 81.05 H 22.891 v 79.856 h 14.832 l 0.187,-26.52 h 10.82 v 3.215 h 10.25 l -0.066,23.305 z" /></g></g></g></svg>
