<?xml version="1.0" encoding="UTF-8" standalone="no"?>
<svg
   xmlns:dc="http://purl.org/dc/elements/1.1/"
   xmlns:cc="http://creativecommons.org/ns#"
   xmlns:rdf="http://www.w3.org/1999/02/22-rdf-syntax-ns#"
   xmlns:svg="http://www.w3.org/2000/svg"
   xmlns="http://www.w3.org/2000/svg"
   xmlns:sodipodi="http://sodipodi.sourceforge.net/DTD/sodipodi-0.dtd"
   xmlns:inkscape="http://www.inkscape.org/namespaces/inkscape"
   inkscape:version="1.0beta2 (2b71d25, 2019-12-03)"
   sodipodi:docname="X2003_DMF_layout_v02_fromQCAD.svg"
   viewBox="0 0 793.70074 1122.5197"
   height="1122.5197"
   width="793.70074"
   xml:space="preserve"
   id="svg10"
   version="1.1"><metadata
     id="metadata16"><rdf:RDF><cc:Work
         rdf:about=""><dc:format>image/svg+xml</dc:format><dc:type
           rdf:resource="http://purl.org/dc/dcmitype/StillImage" /><dc:title></dc:title></cc:Work></rdf:RDF></metadata><defs
     id="defs14" /><sodipodi:namedview
     inkscape:current-layer="g18"
     inkscape:window-maximized="0"
     inkscape:window-y="23"
     inkscape:window-x="0"
     inkscape:cy="561.25983"
     inkscape:cx="396.85037"
     inkscape:zoom="0.92915968"
     showgrid="false"
     id="namedview12"
     inkscape:window-height="480"
     inkscape:window-width="778"
     inkscape:pageshadow="2"
     inkscape:pageopacity="0"
     guidetolerance="10"
     gridtolerance="10"
     objecttolerance="10"
     borderopacity="1"
     inkscape:document-rotation="0"
     bordercolor="#666666"
     pagecolor="#ffffff" /><g
     transform="matrix(1.3333333,0,0,1.3333333,0,3.3396326e-5)"
     inkscape:label="X2003_DMF_layout_v02_fromQCAD"
     inkscape:groupmode="layer"
     id="g18"><g
       id="g20"><g
         id="g22"><path
           inkscape:connector-curvature="0"
           id="path24"
           style="fill:none;stroke:#000000;stroke-width:0.075;stroke-linecap:butt;stroke-linejoin:miter;stroke-miterlimit:4;stroke-dasharray:none;stroke-opacity:1"
           d="m 65.004,793.895 h -4.25 v -1.137 h -2.551 v 4.254 h -1.137 v 2.551 h 4.254 v 1.132 h 2.551 v -4.25 h 1.133 z" /></g><g
         id="g26"><path
           inkscape:connector-curvature="0"
           id="path28"
           style="fill:none;stroke:#000000;stroke-width:0.075;stroke-linecap:butt;stroke-linejoin:miter;stroke-miterlimit:4;stroke-dasharray:none;stroke-opacity:1"
           d="m 65.004,801.262 h -4.25 v -1.133 h -2.551 v 4.254 h -1.137 v 2.551 h 4.254 v 1.132 h 2.551 v -4.253 h 1.133 z" /></g><g
         id="g30"><path
           inkscape:connector-curvature="0"
           id="path32"
           style="fill:none;stroke:#000000;stroke-width:0.075;stroke-linecap:butt;stroke-linejoin:miter;stroke-miterlimit:4;stroke-dasharray:none;stroke-opacity:1"
           d="m 57.637,793.895 h -4.254 v -1.137 h -2.551 v 4.254 h -1.133 v 2.551 h 4.25 v 1.132 H 56.5 v -4.25 h 1.137 z" /></g><g
         id="g34"><path
           inkscape:connector-curvature="0"
           id="path36"
           style="fill:none;stroke:#000000;stroke-width:0.075;stroke-linecap:butt;stroke-linejoin:miter;stroke-miterlimit:4;stroke-dasharray:none;stroke-opacity:1"
           d="m 50.266,793.895 h -4.254 v -1.137 h -2.551 v 4.254 h -1.133 v 2.551 h 4.25 v 1.132 h 2.555 v -4.25 h 1.133 z" /></g><g
         id="g38"><path
           inkscape:connector-curvature="0"
           id="path40"
           style="fill:none;stroke:#000000;stroke-width:0.075;stroke-linecap:butt;stroke-linejoin:miter;stroke-miterlimit:4;stroke-dasharray:none;stroke-opacity:1"
           d="m 50.266,801.262 h -4.254 v -1.133 h -2.551 v 4.254 h -1.133 v 2.551 h 4.25 v 1.132 h 2.555 v -4.253 h 1.133 z" /></g><g
         id="g42"><path
           inkscape:connector-curvature="0"
           id="path44"
           style="fill:none;stroke:#000000;stroke-width:0.075;stroke-linecap:butt;stroke-linejoin:miter;stroke-miterlimit:4;stroke-dasharray:none;stroke-opacity:1"
           d="m 42.895,793.895 h -4.25 v -1.137 H 36.09 v 4.254 h -1.133 v 2.551 h 4.254 v 1.132 h 2.551 v -4.25 h 1.133 z" /></g><g
         id="g46"><path
           inkscape:connector-curvature="0"
           id="path48"
           style="fill:none;stroke:#000000;stroke-width:0.075;stroke-linecap:butt;stroke-linejoin:miter;stroke-miterlimit:4;stroke-dasharray:none;stroke-opacity:1"
           d="m 35.523,793.895 h -4.25 v -1.137 h -2.55 v 4.254 h -1.137 v 2.551 h 4.254 v 1.132 h 2.551 v -4.25 h 1.132 z" /></g><g
         id="g50"><path
           inkscape:connector-curvature="0"
           id="path52"
           style="fill:none;stroke:#000000;stroke-width:0.075;stroke-linecap:butt;stroke-linejoin:miter;stroke-miterlimit:4;stroke-dasharray:none;stroke-opacity:1"
           d="m 35.523,801.262 h -4.25 v -1.133 h -2.55 v 4.254 h -1.137 v 2.551 h 4.254 v 1.132 h 2.551 v -4.253 h 1.132 z" /></g><g
         id="g54"><path
           inkscape:connector-curvature="0"
           id="path56"
           style="fill:none;stroke:#000000;stroke-width:0.075;stroke-linecap:butt;stroke-linejoin:miter;stroke-miterlimit:4;stroke-dasharray:none;stroke-opacity:1"
           d="m 28.156,793.895 h -4.254 v -1.137 h -2.55 v 4.254 h -1.133 v 2.551 h 4.25 v 1.132 h 2.551 v -4.25 h 1.136 z" /></g><g
         id="g58"><path
           inkscape:connector-curvature="0"
           id="path60"
           style="fill:none;stroke:#000000;stroke-width:0.075;stroke-linecap:butt;stroke-linejoin:miter;stroke-miterlimit:4;stroke-dasharray:none;stroke-opacity:1"
           d="m 28.156,801.262 h -4.254 v -1.133 h -2.55 v 4.254 h -1.133 v 2.551 h 4.25 v 1.132 h 2.551 v -4.253 h 1.136 z" /></g><g
         id="g62"><path
           inkscape:connector-curvature="0"
           id="path64"
           style="fill:none;stroke:#000000;stroke-width:0.075;stroke-linecap:butt;stroke-linejoin:miter;stroke-miterlimit:4;stroke-dasharray:none;stroke-opacity:1"
           d="m 20.785,793.895 h -4.254 v -1.137 H 13.98 v 4.254 h -1.132 v 2.551 h 4.25 v 1.132 h 2.554 v -4.25 h 1.133 z" /></g><g
         id="g66"><path
           inkscape:connector-curvature="0"
           id="path68"
           style="fill:none;stroke:#000000;stroke-width:0.075;stroke-linecap:butt;stroke-linejoin:miter;stroke-miterlimit:4;stroke-dasharray:none;stroke-opacity:1"
           d="m 13.414,793.895 h -4.25 v -1.137 H 6.609 v 4.254 H 5.477 v 2.551 H 9.73 v 1.132 h 2.551 v -4.25 h 1.133 z" /></g><g
         id="g70"><path
           inkscape:connector-curvature="0"
           id="path72"
           style="fill:none;stroke:#000000;stroke-width:0.075;stroke-linecap:butt;stroke-linejoin:miter;stroke-miterlimit:4;stroke-dasharray:none;stroke-opacity:1"
           d="m 13.414,801.262 h -4.25 v -1.133 H 6.609 v 4.254 H 5.477 v 2.551 H 9.73 v 1.132 h 2.551 v -4.253 h 1.133 z" /></g><g
         id="g74"><path
           inkscape:connector-curvature="0"
           id="path76"
           style="fill:none;stroke:#000000;stroke-width:0.075;stroke-linecap:butt;stroke-linejoin:miter;stroke-miterlimit:4;stroke-dasharray:none;stroke-opacity:1"
           d="M 50.266,808.633 H 46.012 V 807.5 h -2.551 v 12.473 h 3.117 v 1.132 h 3.688 z" /></g><g
         id="g78"><path
           inkscape:connector-curvature="0"
           id="path80"
           style="fill:none;stroke:#000000;stroke-width:0.075;stroke-linecap:butt;stroke-linejoin:miter;stroke-miterlimit:4;stroke-dasharray:none;stroke-opacity:1"
           d="M 13.414,808.633 H 9.164 V 807.5 H 6.609 v 12.473 H 9.73 v 1.132 h 3.684 z" /></g><g
         id="g82"><path
           inkscape:connector-curvature="0"
           id="path84"
           style="fill:none;stroke:#000000;stroke-width:0.075;stroke-linecap:butt;stroke-linejoin:miter;stroke-miterlimit:4;stroke-dasharray:none;stroke-opacity:1"
           d="m 50.832,821.672 h -4.82 v -1.133 h -3.117 v -7.371 h -5.668 v 28.348 H 56.5 v -28.348 h -5.668 z" /></g><g
         id="g86"><path
           inkscape:connector-curvature="0"
           id="path88"
           style="fill:none;stroke:#000000;stroke-width:0.075;stroke-linecap:butt;stroke-linejoin:miter;stroke-miterlimit:4;stroke-dasharray:none;stroke-opacity:1"
           d="M 13.98,821.672 H 9.164 v -1.133 H 6.043 v -7.371 H 0.375 v 28.348 H 19.652 V 813.168 H 13.98 Z" /></g></g></g></svg>
