<?xml version="1.0" encoding="UTF-8" standalone="no"?>
<svg
   xmlns:dc="http://purl.org/dc/elements/1.1/"
   xmlns:cc="http://creativecommons.org/ns#"
   xmlns:rdf="http://www.w3.org/1999/02/22-rdf-syntax-ns#"
   xmlns:svg="http://www.w3.org/2000/svg"
   xmlns="http://www.w3.org/2000/svg"
   xmlns:sodipodi="http://sodipodi.sourceforge.net/DTD/sodipodi-0.dtd"
   xmlns:inkscape="http://www.inkscape.org/namespaces/inkscape"
   inkscape:version="1.0beta2 (2b71d25, 2019-12-03)"
   sodipodi:docname="X2003_DMF_layout_v02_fromQCAD_complete.svg"
   viewBox="0 0 793.70074 1122.5197"
   height="1122.5197"
   width="793.70074"
   xml:space="preserve"
   id="svg10"
   version="1.1"><metadata
     id="metadata16"><rdf:RDF><cc:Work
         rdf:about=""><dc:format>image/svg+xml</dc:format><dc:type
           rdf:resource="http://purl.org/dc/dcmitype/StillImage" /><dc:title></dc:title></cc:Work></rdf:RDF></metadata><defs
     id="defs14" /><sodipodi:namedview
     inkscape:current-layer="g18"
     inkscape:window-maximized="0"
     inkscape:window-y="23"
     inkscape:window-x="0"
     inkscape:cy="561.25983"
     inkscape:cx="396.85037"
     inkscape:zoom="0.76791529"
     showgrid="false"
     id="namedview12"
     inkscape:window-height="480"
     inkscape:window-width="849"
     inkscape:pageshadow="2"
     inkscape:pageopacity="0"
     guidetolerance="10"
     gridtolerance="10"
     objecttolerance="10"
     borderopacity="1"
     inkscape:document-rotation="0"
     bordercolor="#666666"
     pagecolor="#ffffff" /><g
     transform="matrix(1.3333333,0,0,1.3333333,0,3.3396326e-5)"
     inkscape:label="X2003_DMF_layout_v02_fromQCAD_complete"
     inkscape:groupmode="layer"
     id="g18"><g
       id="g20"><g
         id="g22"><path
           inkscape:connector-curvature="0"
           id="path24"
           style="fill:none;stroke:#000000;stroke-width:0.0749996;stroke-linecap:butt;stroke-linejoin:miter;stroke-miterlimit:4;stroke-dasharray:none;stroke-opacity:1"
           d="m 21.227,652.781 v 1.489 h -2.739 v 19.628 h 1.653 v 53.672 h -7.063 v -7.183 H 9.957 v -1.133 H 6.273 v 12.473 h 4.25 v 1.132 h 2.555 v -4.722 h 7.629 v -54.805 h -1.652 v -18.496 h 2.172 v 1.488 h 3.543 v -3.543 z" /></g><g
         id="g26"><path
           inkscape:connector-curvature="0"
           id="path28"
           style="fill:none;stroke:#000000;stroke-width:0.0749996;stroke-linecap:butt;stroke-linejoin:miter;stroke-miterlimit:4;stroke-dasharray:none;stroke-opacity:1"
           d="m 28.313,652.781 v 1.489 h -2.739 v 16.796 h -1.246 v 59.336 h -6.262 v 10.395 h -0.738 v -1.133 h -2.551 v 4.25 h -1.132 v 2.551 h 4.25 v 1.137 h 2.55 v -4.254 h 1.137 v -2.551 h -2.949 v -9.828 h 6.262 v -59.336 h 1.246 v -16.797 h 2.172 v 1.488 h 3.542 v -3.543 z" /></g><g
         id="g30"><path
           inkscape:connector-curvature="0"
           id="path32"
           style="fill:none;stroke:#000000;stroke-width:0.0749996;stroke-linecap:butt;stroke-linejoin:miter;stroke-miterlimit:4;stroke-dasharray:none;stroke-opacity:1"
           d="m 35.398,652.781 v 3.543 h 3.543 v -1.488 h 2.172 v 21.898 h -9.808 v 54.235 h 7.394 v 8.695 h -1.812 v 4.25 h -1.133 v 2.551 h 4.25 v 1.137 h 2.551 v -4.254 h 1.136 v -2.551 h -4.253 v -1.133 H 39.27 v -9.262 h -7.399 v -53.101 h 9.813 V 654.27 h -2.743 v -1.489 z" /></g><g
         id="g34"><path
           inkscape:connector-curvature="0"
           id="path36"
           style="fill:none;stroke:#000000;stroke-width:0.0749996;stroke-linecap:butt;stroke-linejoin:miter;stroke-miterlimit:4;stroke-dasharray:none;stroke-opacity:1"
           d="m 42.484,652.781 v 3.543 h 3.547 v -1.488 h 2.172 v 25.301 H 35.492 v 48 h 7.633 v 3.59 h 4.25 v 1.132 h 2.551 v -12.472 h -3.117 v -1.133 h -3.684 v 8.316 H 36.059 V 680.703 H 48.77 V 654.27 h -2.739 v -1.489 z" /></g><g
         id="g38"><path
           inkscape:connector-curvature="0"
           id="path40"
           style="fill:none;stroke:#000000;stroke-width:0.0749996;stroke-linecap:butt;stroke-linejoin:miter;stroke-miterlimit:4;stroke-dasharray:none;stroke-opacity:1"
           d="m 49.57,652.781 v 3.543 h 3.543 v -1.488 h 2.176 v 17.93 h 6.301 v 57.636 h -6.277 v 9.828 h 3.683 v 3.684 h -1.133 v 2.551 h 4.25 v 1.137 h 2.555 v -4.254 h 1.133 v -2.551 h -4.254 v -1.133 h -5.668 v -8.695 h 6.277 v -58.77 H 55.855 V 654.27 h -2.742 v -1.489 z" /></g><g
         id="g42"><path
           inkscape:connector-curvature="0"
           id="path44"
           style="fill:none;stroke:#000000;stroke-width:0.0749996;stroke-linecap:butt;stroke-linejoin:miter;stroke-miterlimit:4;stroke-dasharray:none;stroke-opacity:1"
           d="m 77.918,652.781 v 1.489 H 75.18 v 17.929 h -6.301 v 59.434 h 6.277 v 5.902 h -2.554 v 3.262 h -3.684 v -1.133 h -2.551 v 4.25 h -1.133 v 2.551 h 4.25 v 1.137 h 2.551 v -4.254 h 1.137 v -5.243 h 2.551 v -7.039 h -6.278 v -58.3 h 6.301 v -17.93 h 2.172 v 1.488 h 3.543 v -3.543 z" /></g><g
         id="g46"><path
           inkscape:connector-curvature="0"
           id="path48"
           style="fill:none;stroke:#000000;stroke-width:0.0749996;stroke-linecap:butt;stroke-linejoin:miter;stroke-miterlimit:4;stroke-dasharray:none;stroke-opacity:1"
           d="m 85.004,652.781 v 1.489 h -2.738 v 24.164 H 93.84 v 49.136 h -7.063 v -7.183 H 83.66 v -1.133 h -3.687 v 12.473 h 4.254 v 1.132 h 2.55 v -4.722 h 7.633 v -50.27 H 82.832 v -23.031 h 2.172 v 1.488 h 3.543 v -3.543 z" /></g><g
         id="g50"><path
           inkscape:connector-curvature="0"
           id="path52"
           style="fill:none;stroke:#000000;stroke-width:0.0749996;stroke-linecap:butt;stroke-linejoin:miter;stroke-miterlimit:4;stroke-dasharray:none;stroke-opacity:1"
           d="m 92.09,652.781 v 1.489 h -2.738 v 20.765 h 8.675 v 55.367 h -6.261 v 10.395 h -0.739 v -1.133 h -2.55 v 4.25 h -1.133 v 2.551 h 4.25 v 1.137 h 2.554 v -4.254 h 1.133 v -2.551 h -2.949 v -9.828 h 6.266 v -56.504 h -8.68 v -19.629 h 2.172 v 1.488 h 3.547 v -3.543 z" /></g><g
         id="g54"><path
           inkscape:connector-curvature="0"
           id="path56"
           style="fill:none;stroke:#000000;stroke-width:0.0749996;stroke-linecap:butt;stroke-linejoin:miter;stroke-miterlimit:4;stroke-dasharray:none;stroke-opacity:1"
           d="m 99.18,652.781 v 3.543 h 3.543 v -1.488 h 2.172 v 16.797 h 0.109 v 59.336 h 7.398 v 8.695 h -1.816 v 4.25 h -1.133 v 2.551 h 4.254 v 1.137 h 2.551 v -4.254 h 1.133 v -2.551 h -4.254 v -1.133 h -0.168 v -9.262 h -7.395 v -59.336 h -0.113 V 654.27 h -2.738 v -1.489 z" /></g><g
         id="g58"><path
           inkscape:connector-curvature="0"
           id="path60"
           style="fill:none;stroke:#000000;stroke-width:0.0749996;stroke-linecap:butt;stroke-linejoin:miter;stroke-miterlimit:4;stroke-dasharray:none;stroke-opacity:1"
           d="m 106.266,652.781 v 3.543 h 3.543 v -1.488 h 2.171 v 18.496 h -2.789 v 54.805 h 7.633 v 3.59 h 4.25 v 1.132 h 2.555 v -12.472 h -3.121 v -1.133 h -3.684 v 8.316 h -7.066 v -53.672 h 2.789 V 654.27 h -2.738 v -1.489 z" /></g><g
         id="g62"><path
           inkscape:connector-curvature="0"
           id="path64"
           style="fill:none;stroke:#000000;stroke-width:0.0749996;stroke-linecap:butt;stroke-linejoin:miter;stroke-miterlimit:4;stroke-dasharray:none;stroke-opacity:1"
           d="m 21.227,659.867 v 1.488 h -1.372 v 11.411 h 1.684 v 55.746 h -6.422 v 8.316 h -2.039 v -0.851 h 1.133 v -2.551 H 9.957 v -1.133 H 7.406 v 4.254 H 6.273 v 2.547 h 4.25 v 1.136 h 2.555 v -2.835 h 2.606 v -8.313 h 6.421 v -56.883 h -1.683 v -10.277 h 0.805 v 1.488 h 3.543 v -3.543 z" /></g><g
         id="g66"><path
           inkscape:connector-curvature="0"
           id="path68"
           style="fill:none;stroke:#000000;stroke-width:0.0749996;stroke-linecap:butt;stroke-linejoin:miter;stroke-miterlimit:4;stroke-dasharray:none;stroke-opacity:1"
           d="m 28.313,659.867 v 1.488 h -1.372 v 10.844 h -1.218 v 59.149 h -6.184 v 8.882 h 2.609 v 3.684 h -1.136 v 2.551 h 4.254 v 1.137 h 2.55 v -4.254 h 1.133 v -2.551 h -4.25 v -1.133 h -4.594 v -7.75 h 6.188 v -59.148 h 1.219 v -10.844 h 0.801 v 1.488 h 3.542 v -3.543 z" /></g><g
         id="g70"><path
           inkscape:connector-curvature="0"
           id="path72"
           style="fill:none;stroke:#000000;stroke-width:0.0749996;stroke-linecap:butt;stroke-linejoin:miter;stroke-miterlimit:4;stroke-dasharray:none;stroke-opacity:1"
           d="m 35.398,659.867 v 3.543 h 3.543 v -1.488 h 0.805 v 13.68 H 29.91 v 56.312 h 7.317 v 5.621 h -2.039 v -1.558 h 1.132 v -2.551 h -4.254 v -1.133 h -2.984 v -57.258 h 8.371 V 670.5 h 1.488 v -3.547 h -3.543 v 3.547 h 1.489 v 3.965 h -8.371 v 58.394 h 1.004 v 3.688 h -1.137 v 2.547 h 4.254 v 1.136 h 2.551 v -2.125 h 2.605 v -6.757 h -7.316 v -55.18 h 9.836 v -14.813 h -1.372 v -1.488 z" /></g><g
         id="g74"><path
           inkscape:connector-curvature="0"
           id="path76"
           style="fill:none;stroke:#000000;stroke-width:0.0749996;stroke-linecap:butt;stroke-linejoin:miter;stroke-miterlimit:4;stroke-dasharray:none;stroke-opacity:1"
           d="m 42.484,659.867 v 3.543 h 3.547 v -1.488 h 0.801 V 679 H 34.098 v 50.082 h 7.55 v 8.313 h 1.477 v 1.699 h 4.25 v 1.136 h 2.551 v -4.253 h 1.133 v -2.551 h -4.25 v -1.133 h -2.551 v 4.254 h -1.133 v 0.281 h -0.91 v -8.316 H 34.664 V 679.57 h 12.734 v -18.215 h -1.367 v -1.488 z" /></g><g
         id="g78"><path
           inkscape:connector-curvature="0"
           id="path80"
           style="fill:none;stroke:#000000;stroke-width:0.0749996;stroke-linecap:butt;stroke-linejoin:miter;stroke-miterlimit:4;stroke-dasharray:none;stroke-opacity:1"
           d="m 49.57,659.867 v 3.543 h 3.543 v -1.488 h 0.805 v 11.976 h 5.242 v 54.614 h -6.117 v 11.152 h -1.418 v 4.25 h -1.133 v 2.551 h 4.254 v 1.137 h 2.551 v -4.254 h 1.133 v -2.551 h -4.25 v -1.133 h -0.567 v -10.582 h 6.114 v -55.75 h -5.243 v -11.977 h -1.371 v -1.488 z" /></g><g
         id="g82"><path
           inkscape:connector-curvature="0"
           id="path84"
           style="fill:none;stroke:#000000;stroke-width:0.0749996;stroke-linecap:butt;stroke-linejoin:miter;stroke-miterlimit:4;stroke-dasharray:none;stroke-opacity:1"
           d="m 77.918,659.867 v 1.488 h -1.371 v 11.977 h -5.238 v 56.223 h 6.113 v 11.242 h -1.133 v -1.133 h -2.551 v 4.25 h -1.136 v 2.551 h 4.253 v 1.137 h 2.551 v -4.254 h 1.133 v -2.551 h -2.551 v -11.809 h -6.113 v -55.09 h 5.238 v -11.976 h 0.805 v 1.488 h 3.543 v -3.543 z" /></g><g
         id="g86"><path
           inkscape:connector-curvature="0"
           id="path88"
           style="fill:none;stroke:#000000;stroke-width:0.0749996;stroke-linecap:butt;stroke-linejoin:miter;stroke-miterlimit:4;stroke-dasharray:none;stroke-opacity:1"
           d="m 85.004,659.867 v 1.488 h -1.367 v 15.946 h 11.601 v 51.211 h -6.422 v 8.316 h -2.039 v -0.851 h 1.133 v -2.551 h -4.25 v -1.133 h -2.555 v 4.254 h -1.132 v 2.547 h 4.254 v 1.136 h 2.55 v -2.835 h 2.61 v -8.313 h 6.418 V 676.734 H 84.203 v -14.812 h 0.801 v 1.488 h 3.543 v -3.543 z" /></g><g
         id="g90"><path
           inkscape:connector-curvature="0"
           id="path92"
           style="fill:none;stroke:#000000;stroke-width:0.0749996;stroke-linecap:butt;stroke-linejoin:miter;stroke-miterlimit:4;stroke-dasharray:none;stroke-opacity:1"
           d="m 92.09,659.867 v 1.488 h -1.367 v 12.543 h 8.699 v 57.45 h -6.184 v 8.882 h 2.61 v 3.684 h -1.133 v 2.551 h 4.25 v 1.137 h 2.551 v -4.254 h 1.136 v -2.551 h -4.254 v -1.133 h -4.589 v -7.75 h 6.179 v -58.582 h -8.699 v -11.41 h 0.801 v 1.488 h 3.547 v -3.543 z" /></g><g
         id="g94"><path
           inkscape:connector-curvature="0"
           id="path96"
           style="fill:none;stroke:#000000;stroke-width:0.0749996;stroke-linecap:butt;stroke-linejoin:miter;stroke-miterlimit:4;stroke-dasharray:none;stroke-opacity:1"
           d="m 99.18,659.867 v 3.543 h 3.543 v -1.488 h 0.8 v 9.711 h 0.086 v 60.281 h 7.321 v 5.766 h -1.477 v 3.117 h -3.683 v -1.133 h -2.551 v 4.25 h -1.137 v 2.551 h 4.254 v 1.137 h 2.551 v -4.254 h 1.133 v -5.102 h 1.476 v -6.898 h -7.32 v -60.282 h -0.086 v -9.711 h -1.367 v -1.488 z" /></g><g
         id="g98"><path
           inkscape:connector-curvature="0"
           id="path100"
           style="fill:none;stroke:#000000;stroke-width:0.0749996;stroke-linecap:butt;stroke-linejoin:miter;stroke-miterlimit:4;stroke-dasharray:none;stroke-opacity:1"
           d="m 106.266,659.867 v 3.543 h 3.543 v -1.488 h 0.804 v 10.277 h -2.816 v 56.883 h 7.551 v 8.031 h 1.476 v 1.981 h 4.25 v 1.136 h 2.555 v -4.253 h 1.133 v -2.551 h -4.254 v -1.133 h -2.551 v 4.254 h -2.039 v -8.035 h -7.555 v -55.746 h 2.817 v -11.411 h -1.371 v -1.488 z" /></g><g
         id="g102"><path
           inkscape:connector-curvature="0"
           id="path104"
           style="fill:none;stroke:#000000;stroke-width:0.0749996;stroke-linecap:butt;stroke-linejoin:miter;stroke-miterlimit:4;stroke-dasharray:none;stroke-opacity:1"
           d="m 14.141,666.953 v 3.547 h 1.488 v 28.344 H 0.039 v 28.347 h 5.668 v -8.503 h 4.816 v 1.132 h 3.122 v 7.371 h 5.668 V 698.844 H 16.195 V 670.5 h 1.489 v -3.547 z" /></g><g
         id="g106"><path
           inkscape:connector-curvature="0"
           id="path108"
           style="fill:none;stroke:#000000;stroke-width:0.0749996;stroke-linecap:butt;stroke-linejoin:miter;stroke-miterlimit:4;stroke-dasharray:none;stroke-opacity:1"
           d="m 21.227,666.953 v 3.547 h 1.488 v 1.133 h 0.219 v 57.824 h -6.34 v 8.789 h -2.949 v 2.551 H 9.957 v -1.133 H 7.406 v 4.25 H 6.273 v 2.551 h 4.25 v 1.137 h 2.555 v -4.254 h 1.133 v -4.535 h 2.949 v -8.79 H 23.5 V 671.066 H 23.281 V 670.5 h 1.489 v -3.547 z" /></g><g
         id="g110"><path
           inkscape:connector-curvature="0"
           id="path112"
           style="fill:none;stroke:#000000;stroke-width:0.0749996;stroke-linecap:butt;stroke-linejoin:miter;stroke-miterlimit:4;stroke-dasharray:none;stroke-opacity:1"
           d="m 28.313,666.953 v 3.547 h 1.488 v 2.832 h -2.684 v 60.094 h -2.418 v -1.133 h -2.551 v 4.254 h -1.136 v 2.547 h 4.254 v 1.136 h 2.55 v -4.253 h 1.133 v -2.551 h -1.265 v -59.528 h 2.683 V 670.5 h 1.488 v -3.547 z" /></g><g
         id="g114"><path
           inkscape:connector-curvature="0"
           id="path116"
           style="fill:none;stroke:#000000;stroke-width:0.0749996;stroke-linecap:butt;stroke-linejoin:miter;stroke-miterlimit:4;stroke-dasharray:none;stroke-opacity:1"
           d="m 42.484,666.953 v 3.547 h 1.489 v 7.367 H 32.699 v 52.156 h 7.477 v 10.207 h 4.082 v 3.684 h -1.133 v 2.551 h 4.25 v 1.137 h 2.551 v -4.254 h 1.133 v -2.551 h -4.25 v -1.133 H 40.742 V 729.457 H 33.27 V 678.434 H 44.543 V 670.5 h 1.488 v -3.547 z" /></g><g
         id="g118"><path
           inkscape:connector-curvature="0"
           id="path120"
           style="fill:none;stroke:#000000;stroke-width:0.0749996;stroke-linecap:butt;stroke-linejoin:miter;stroke-miterlimit:4;stroke-dasharray:none;stroke-opacity:1"
           d="m 49.57,666.953 v 3.547 h 1.489 v 28.344 H 36.887 v 28.347 h 5.668 v -8.503 h 4.82 v 1.132 h 3.117 v 7.371 h 5.672 V 698.844 H 51.625 V 670.5 h 1.488 v -3.547 z" /></g><g
         id="g122"><path
           inkscape:connector-curvature="0"
           id="path124"
           style="fill:none;stroke:#000000;stroke-width:0.0749996;stroke-linecap:butt;stroke-linejoin:miter;stroke-miterlimit:4;stroke-dasharray:none;stroke-opacity:1"
           d="m 56.66,666.953 v 3.547 h 1.488 v 1.133 h 5.872 v 61.793 h -2.473 v -1.133 h -2.551 v 4.254 h -1.133 v 2.547 h 4.25 v 1.136 h 2.555 v -4.253 h 1.133 v -2.551 h -1.215 v -62.36 H 58.715 V 670.5 h 1.488 v -3.547 z" /></g><g
         id="g126"><path
           inkscape:connector-curvature="0"
           id="path128"
           style="fill:none;stroke:#000000;stroke-width:0.0749996;stroke-linecap:butt;stroke-linejoin:miter;stroke-miterlimit:4;stroke-dasharray:none;stroke-opacity:1"
           d="m 70.832,666.953 v 3.547 h 1.488 v 0.566 h -5.871 v 61.227 h -0.082 v 4.254 h -1.133 v 2.547 h 4.25 v 1.136 h 2.551 v -4.253 h 1.137 v -2.551 h -4.254 v -1.133 h -1.902 v -60.66 h 5.871 V 670.5 h 1.488 v -3.547 z" /></g><g
         id="g130"><path
           inkscape:connector-curvature="0"
           id="path132"
           style="fill:none;stroke:#000000;stroke-width:0.0749996;stroke-linecap:butt;stroke-linejoin:miter;stroke-miterlimit:4;stroke-dasharray:none;stroke-opacity:1"
           d="m 77.918,666.953 v 3.547 h 1.488 v 28.344 h -5.668 v 28.347 h 5.668 v -8.503 h 4.821 v 1.132 h 3.117 v 7.371 h 5.668 V 698.844 H 79.973 V 670.5 h 1.488 v -3.547 z" /></g><g
         id="g134"><path
           inkscape:connector-curvature="0"
           id="path136"
           style="fill:none;stroke:#000000;stroke-width:0.0749996;stroke-linecap:butt;stroke-linejoin:miter;stroke-miterlimit:4;stroke-dasharray:none;stroke-opacity:1"
           d="m 85.004,666.953 v 3.547 h 1.488 v 5.668 h 10.141 v 53.289 h -6.34 v 8.789 h -2.949 v 2.551 H 83.66 v -1.133 h -2.555 v 4.25 h -1.132 v 2.551 h 4.254 v 1.137 h 2.55 v -4.254 h 1.133 v -4.535 h 2.949 v -8.79 h 6.34 V 675.602 H 87.059 V 670.5 h 1.488 v -3.547 z" /></g><g
         id="g138"><path
           inkscape:connector-curvature="0"
           id="path140"
           style="fill:none;stroke:#000000;stroke-width:0.0749996;stroke-linecap:butt;stroke-linejoin:miter;stroke-miterlimit:4;stroke-dasharray:none;stroke-opacity:1"
           d="m 92.09,666.953 v 3.547 h 1.492 v 2.266 h 7.238 v 60.66 h -2.422 v -1.133 h -2.55 v 4.254 h -1.133 v 2.547 h 4.25 v 1.136 h 2.551 v -4.253 h 1.136 v -2.551 h -1.265 V 672.199 H 94.148 V 670.5 h 1.489 v -3.547 z" /></g><g
         id="g142"><path
           inkscape:connector-curvature="0"
           id="path144"
           style="fill:none;stroke:#000000;stroke-width:0.0749996;stroke-linecap:butt;stroke-linejoin:miter;stroke-miterlimit:4;stroke-dasharray:none;stroke-opacity:1"
           d="m 99.18,666.953 v 3.547 h 1.488 v 1.133 h 1.547 v 61.226 h 1.004 v 3.688 h -1.137 v 2.547 h 4.254 v 1.136 h 2.551 v -4.253 h 1.133 v -2.551 h -4.25 v -1.133 h -2.989 v -61.227 h -1.547 V 670.5 h 1.489 v -3.547 z" /></g><g
         id="g146"><path
           inkscape:connector-curvature="0"
           id="path148"
           style="fill:none;stroke:#000000;stroke-width:0.0749996;stroke-linecap:butt;stroke-linejoin:miter;stroke-miterlimit:4;stroke-dasharray:none;stroke-opacity:1"
           d="m 106.266,666.953 v 3.547 h 1.488 v 0.566 h -1.352 v 58.957 h 7.473 v 10.207 h 4.082 v 3.684 h -1.133 v 2.551 h 4.25 v 1.137 h 2.555 v -4.254 h 1.133 v -2.551 h -4.254 v -1.133 h -6.067 v -10.207 h -7.472 v -57.824 h 1.351 V 670.5 h 1.489 v -3.547 z" /></g><g
         id="g150"><path
           inkscape:connector-curvature="0"
           id="path152"
           style="fill:none;stroke:#000000;stroke-width:0.0749996;stroke-linecap:butt;stroke-linejoin:miter;stroke-miterlimit:4;stroke-dasharray:none;stroke-opacity:1"
           d="m 113.352,666.953 v 3.547 h 1.488 v 28.344 h -4.254 v 28.347 h 5.672 v -8.503 h 4.816 v 1.132 h 3.121 v 7.371 h 5.668 V 698.844 H 115.406 V 670.5 h 1.489 v -3.547 z" /></g><g
         id="g154"><path
           inkscape:connector-curvature="0"
           id="path156"
           style="fill:none;stroke:#000000;stroke-width:0.0749996;stroke-linecap:butt;stroke-linejoin:miter;stroke-miterlimit:4;stroke-dasharray:none;stroke-opacity:1"
           d="m 29.52,739.664 v 4.25 h -1.137 v 2.551 h 4.254 v 1.137 h 2.551 v -4.254 h 1.132 v -2.551 h -4.254 v -1.133 z" /></g><g
         id="g158"><path
           inkscape:connector-curvature="0"
           id="path160"
           style="fill:none;stroke:#000000;stroke-width:0.0749996;stroke-linecap:butt;stroke-linejoin:miter;stroke-miterlimit:4;stroke-dasharray:none;stroke-opacity:1"
           d="m 7.406,747.035 v 4.25 H 6.273 v 2.551 h 4.25 v 1.133 h 6.071 v 10.207 h 7.472 V 823 h -1.351 v 1.137 h -1.488 v 3.543 h 3.543 v -3.543 h -1.489 v -0.567 h 1.352 V 764.609 H 17.16 v -10.207 h -4.082 v -3.683 h 1.133 v -2.551 H 9.957 v -1.133 z" /></g><g
         id="g162"><path
           inkscape:connector-curvature="0"
           id="path164"
           style="fill:none;stroke:#000000;stroke-width:0.0749996;stroke-linecap:butt;stroke-linejoin:miter;stroke-miterlimit:4;stroke-dasharray:none;stroke-opacity:1"
           d="m 14.777,747.035 v 4.25 h -1.132 v 2.551 h 4.25 v 1.133 h 0.171 v 9.261 h 7.395 v 59.34 h 0.113 v 16.793 h 2.739 v 1.489 h 3.542 v -3.543 h -3.542 v 1.488 H 26.141 V 823 h -0.114 v -59.336 h -7.394 v -8.695 h 1.812 v -4.25 h 1.137 v -2.551 h -4.254 v -1.133 z" /></g><g
         id="g166"><path
           inkscape:connector-curvature="0"
           id="path168"
           style="fill:none;stroke:#000000;stroke-width:0.0749996;stroke-linecap:butt;stroke-linejoin:miter;stroke-miterlimit:4;stroke-dasharray:none;stroke-opacity:1"
           d="m 22.148,747.035 v 4.25 h -1.136 v 5.102 h -1.473 v 6.898 h 7.32 v 60.285 h 0.082 v 9.707 h 1.372 v 1.489 h 3.542 v -3.543 h -3.542 v 1.488 H 27.512 V 823 h -0.086 v -60.281 h -7.321 v -5.766 h 1.477 v -3.117 h 3.684 v 1.133 h 2.55 v -4.25 h 1.133 v -2.551 h -4.25 v -1.133 z" /></g><g
         id="g170"><path
           inkscape:connector-curvature="0"
           id="path172"
           style="fill:none;stroke:#000000;stroke-width:0.0749996;stroke-linecap:butt;stroke-linejoin:miter;stroke-miterlimit:4;stroke-dasharray:none;stroke-opacity:1"
           d="m 29.52,747.035 v 4.25 h -1.137 v 2.551 h 4.254 v 1.133 h 4.59 v 7.75 h -6.184 v 58.582 h 8.703 v 11.41 h -0.805 v -1.488 h -3.543 v 3.543 h 3.543 v -1.489 h 1.372 v -12.543 h -8.704 v -57.449 h 6.184 v -8.883 h -2.605 v -3.683 h 1.132 v -2.551 h -4.254 v -1.133 z" /></g><g
         id="g174"><path
           inkscape:connector-curvature="0"
           id="path176"
           style="fill:none;stroke:#000000;stroke-width:0.0749996;stroke-linecap:butt;stroke-linejoin:miter;stroke-miterlimit:4;stroke-dasharray:none;stroke-opacity:1"
           d="m 36.887,747.035 v 4.25 h -1.133 v 2.551 h 2.945 v 9.828 h -6.261 v 56.504 h 8.675 v 19.629 h -2.172 v -1.488 h -3.543 v 3.543 h 3.543 v -1.489 h 2.743 v -20.761 h -8.68 V 764.23 h 6.266 v -10.394 h 0.734 v 1.133 h 2.551 v -4.25 h 1.136 v -2.551 h -4.253 v -1.133 z" /></g><g
         id="g178"><path
           inkscape:connector-curvature="0"
           id="path180"
           style="fill:none;stroke:#000000;stroke-width:0.0749996;stroke-linecap:butt;stroke-linejoin:miter;stroke-miterlimit:4;stroke-dasharray:none;stroke-opacity:1"
           d="m 44.258,747.035 v 4.25 h -1.133 v 4.535 h -2.949 v 8.789 h -6.34 v 54.426 h 10.137 v 5.102 h -1.489 v 3.543 h 3.547 v -3.543 h -1.488 v -5.668 H 34.402 v -53.293 h 6.34 v -8.789 h 2.949 v -2.551 h 3.684 v 1.133 h 2.551 v -4.25 h 1.133 v -2.551 h -4.25 v -1.133 z" /></g><g
         id="g182"><path
           inkscape:connector-curvature="0"
           id="path184"
           style="fill:none;stroke:#000000;stroke-width:0.0749996;stroke-linecap:butt;stroke-linejoin:miter;stroke-miterlimit:4;stroke-dasharray:none;stroke-opacity:1"
           d="m 51.625,747.035 v 4.25 h -1.133 v 2.551 h 2.551 v 11.812 h 6.117 v 55.086 h -5.242 v 11.977 h -0.805 v -1.488 H 49.57 v 3.543 h 3.543 v -1.489 h 1.371 v -11.976 h 5.243 v -56.219 h -6.114 v -11.246 h 1.133 v 1.133 h 2.551 v -4.25 h 1.133 v -2.551 h -4.25 v -1.133 z" /></g><g
         id="g186"><path
           inkscape:connector-curvature="0"
           id="path188"
           style="fill:none;stroke:#000000;stroke-width:0.0749996;stroke-linecap:butt;stroke-linejoin:miter;stroke-miterlimit:4;stroke-dasharray:none;stroke-opacity:1"
           d="m 58.996,747.035 v 4.25 h -1.133 v 5.242 h -2.55 v 7.043 h 6.277 v 58.297 h -6.301 v 17.93 h -2.176 v -1.488 H 49.57 v 3.543 h 3.543 v -1.489 h 2.742 v -17.929 h 6.301 V 763 h -6.277 v -5.906 h 2.551 v -3.258 h 3.683 v 1.133 h 2.555 v -4.25 h 1.133 v -2.551 h -4.254 v -1.133 z" /></g><g
         id="g190"><path
           inkscape:connector-curvature="0"
           id="path192"
           style="fill:none;stroke:#000000;stroke-width:0.0749996;stroke-linecap:butt;stroke-linejoin:miter;stroke-miterlimit:4;stroke-dasharray:none;stroke-opacity:1"
           d="m 66.367,747.035 v 4.25 h -1.133 v 2.551 h 4.25 v 1.133 h 5.672 v 8.695 h -6.277 v 58.77 h 6.301 v 17.929 h 2.738 v 1.489 h 3.543 v -3.543 h -3.543 v 1.488 h -2.172 v -17.93 H 69.445 V 764.23 h 6.278 v -9.828 h -3.688 v -3.683 h 1.137 v -2.551 h -4.254 v -1.133 z" /></g><g
         id="g194"><path
           inkscape:connector-curvature="0"
           id="path196"
           style="fill:none;stroke:#000000;stroke-width:0.0749996;stroke-linecap:butt;stroke-linejoin:miter;stroke-miterlimit:4;stroke-dasharray:none;stroke-opacity:1"
           d="m 73.738,747.035 v 4.25 h -1.136 v 2.551 h 4.253 v 1.133 h 0.567 v 10.586 h -6.113 v 55.746 h 5.238 v 11.976 h 1.371 v 1.489 h 3.543 v -3.543 h -3.543 v 1.488 h -0.805 v -11.977 h -5.238 v -54.613 h 6.113 v -11.152 h 1.418 v -4.25 h 1.133 v -2.551 h -4.25 v -1.133 z" /></g><g
         id="g198"><path
           inkscape:connector-curvature="0"
           id="path200"
           style="fill:none;stroke:#000000;stroke-width:0.0749996;stroke-linecap:butt;stroke-linejoin:miter;stroke-miterlimit:4;stroke-dasharray:none;stroke-opacity:1"
           d="m 81.105,747.035 v 4.25 h -1.132 v 2.551 h 4.254 v 1.133 h 6.066 v 10.207 h 7.473 v 51.023 H 86.492 v 7.938 h -1.488 v 3.543 h 3.543 v -3.543 h -1.488 v -7.371 h 11.273 v -52.157 h -7.473 v -10.207 h -4.082 v -3.683 h 1.133 v -2.551 h -4.25 v -1.133 z" /></g><g
         id="g202"><path
           inkscape:connector-curvature="0"
           id="path204"
           style="fill:none;stroke:#000000;stroke-width:0.0749996;stroke-linecap:butt;stroke-linejoin:miter;stroke-miterlimit:4;stroke-dasharray:none;stroke-opacity:1"
           d="m 88.477,747.035 v 4.25 h -1.133 v 2.551 h 4.25 v 1.133 h 0.172 v 9.261 h 7.398 v 53.102 h -9.812 v 23.031 h 2.738 v 1.489 h 3.547 v -3.543 H 92.09 v 1.488 h -2.172 v -21.899 h 9.812 v -54.234 h -7.398 v -8.695 h 1.816 v -4.25 h 1.133 v -2.551 h -4.254 v -1.133 z" /></g><g
         id="g206"><path
           inkscape:connector-curvature="0"
           id="path208"
           style="fill:none;stroke:#000000;stroke-width:0.0749996;stroke-linecap:butt;stroke-linejoin:miter;stroke-miterlimit:4;stroke-dasharray:none;stroke-opacity:1"
           d="m 95.848,747.035 v 4.25 h -1.133 v 2.551 h 4.25 v 1.133 h 2.551 v -4.25 h 1.136 v -2.551 h -4.254 v -1.133 z" /></g><g
         id="g210"><path
           inkscape:connector-curvature="0"
           id="path212"
           style="fill:none;stroke:#000000;stroke-width:0.0749996;stroke-linecap:butt;stroke-linejoin:miter;stroke-miterlimit:4;stroke-dasharray:none;stroke-opacity:1"
           d="m 103.219,747.035 v 4.25 h -1.137 v 2.551 h 4.254 v 1.133 h 4.594 v 7.75 h -6.188 v 59.148 h -1.219 v 10.844 h -0.8 v -1.488 H 99.18 v 3.543 h 3.543 v -1.489 h 1.367 v -10.843 h 1.219 v -59.149 h 6.187 v -8.883 h -2.609 v -3.683 h 1.133 v -2.551 h -4.25 v -1.133 z" /></g><g
         id="g214"><path
           inkscape:connector-curvature="0"
           id="path216"
           style="fill:none;stroke:#000000;stroke-width:0.0749996;stroke-linecap:butt;stroke-linejoin:miter;stroke-miterlimit:4;stroke-dasharray:none;stroke-opacity:1"
           d="m 110.586,747.035 v 4.25 h -1.133 v 2.551 h 2.949 v 9.828 h -6.261 V 823 h -1.246 v 16.797 h -2.172 v -1.488 H 99.18 v 3.543 h 3.543 v -1.489 h 2.738 V 823.57 h 1.246 v -59.34 h 6.262 v -10.394 h 0.738 v 1.133 h 2.551 v -4.25 h 1.133 v -2.551 h -4.254 v -1.133 z" /></g><g
         id="g218"><path
           inkscape:connector-curvature="0"
           id="path220"
           style="fill:none;stroke:#000000;stroke-width:0.0749996;stroke-linecap:butt;stroke-linejoin:miter;stroke-miterlimit:4;stroke-dasharray:none;stroke-opacity:1"
           d="m 117.957,747.035 v 4.25 h -1.133 v 4.535 h -2.949 v 8.789 h -6.34 v 58.961 h 0.219 v 0.567 h -1.488 v 3.543 h 3.543 v -3.543 H 108.32 V 823 h -0.218 v -57.824 h 6.339 v -8.789 h 2.95 v -2.551 h 3.683 v 1.133 h 2.555 v -4.25 h 1.133 v -2.551 h -4.254 v -1.133 z" /></g><g
         id="g222"><path
           inkscape:connector-curvature="0"
           id="path224"
           style="fill:none;stroke:#000000;stroke-width:0.0749996;stroke-linecap:butt;stroke-linejoin:miter;stroke-miterlimit:4;stroke-dasharray:none;stroke-opacity:1"
           d="m 7.406,754.402 v 4.254 H 6.273 v 2.551 h 4.25 v 1.133 h 2.555 v -4.25 h 2.039 v 8.031 h 7.555 v 55.746 h -2.817 v 11.41 h 1.372 v 1.489 h 3.543 v -3.543 h -3.543 v 1.488 h -0.805 v -10.277 h 2.816 v -56.879 h -7.554 v -8.032 h -1.473 v -1.988 H 9.957 v -1.133 z" /></g><g
         id="g226"><path
           inkscape:connector-curvature="0"
           id="path228"
           style="fill:none;stroke:#000000;stroke-width:0.0749996;stroke-linecap:butt;stroke-linejoin:miter;stroke-miterlimit:4;stroke-dasharray:none;stroke-opacity:1"
           d="m 22.148,754.402 v 4.254 h -1.136 v 2.551 h 4.254 v 1.133 h 2.988 v 61.23 h 1.547 v 0.567 h -1.488 v 3.543 h 3.542 v -3.543 H 30.367 V 823 H 28.82 v -61.227 h -1.004 v -3.683 h 1.133 v -2.555 h -4.25 v -1.133 z" /></g><g
         id="g230"><path
           inkscape:connector-curvature="0"
           id="path232"
           style="fill:none;stroke:#000000;stroke-width:0.0749996;stroke-linecap:butt;stroke-linejoin:miter;stroke-miterlimit:4;stroke-dasharray:none;stroke-opacity:1"
           d="m 29.52,754.402 v 4.254 h -1.137 v 2.551 h 1.265 v 61.227 h 7.239 v 1.703 h -1.489 v 3.543 h 3.543 v -3.543 h -1.488 v -2.27 h -7.238 v -60.66 h 2.422 v 1.133 h 2.551 v -4.25 h 1.132 v -2.555 h -4.254 v -1.133 z" /></g><g
         id="g234"><path
           inkscape:connector-curvature="0"
           id="path236"
           style="fill:none;stroke:#000000;stroke-width:0.0749996;stroke-linecap:butt;stroke-linejoin:miter;stroke-miterlimit:4;stroke-dasharray:none;stroke-opacity:1"
           d="m 44.258,754.402 v 2.836 h -2.61 v 8.317 H 35.23 v 52.343 h 11.602 v 14.813 h -0.801 v -1.488 h -3.547 v 3.543 h 3.547 v -1.489 h 1.367 V 817.332 H 35.797 v -51.211 h 6.418 v -8.316 h 2.043 v 0.851 h -1.133 v 2.551 h 4.25 v 1.133 h 2.551 v -4.25 h 1.133 v -2.555 h -4.25 v -1.133 z" /></g><g
         id="g238"><path
           inkscape:connector-curvature="0"
           id="path240"
           style="fill:none;stroke:#000000;stroke-width:0.0749996;stroke-linecap:butt;stroke-linejoin:miter;stroke-miterlimit:4;stroke-dasharray:none;stroke-opacity:1"
           d="m 58.996,754.402 v 4.254 h -1.133 v 2.551 h 4.25 v 1.133 H 64.02 V 823 h -5.872 v 1.137 H 56.66 v 3.543 h 3.543 v -3.543 h -1.488 v -0.567 h 5.871 v -61.23 h 0.082 v -4.25 h 1.133 v -2.555 h -4.254 v -1.133 z" /></g><g
         id="g242"><path
           inkscape:connector-curvature="0"
           id="path244"
           style="fill:none;stroke:#000000;stroke-width:0.0749996;stroke-linecap:butt;stroke-linejoin:miter;stroke-miterlimit:4;stroke-dasharray:none;stroke-opacity:1"
           d="m 66.367,754.402 v 4.254 h -1.133 v 2.551 h 1.215 v 62.363 h 5.871 v 0.567 h -1.488 v 3.543 h 3.543 v -3.543 H 72.887 V 823 h -5.871 v -61.793 h 2.468 v 1.133 h 2.551 v -4.25 h 1.137 v -2.555 h -4.254 v -1.133 z" /></g><g
         id="g246"><path
           inkscape:connector-curvature="0"
           id="path248"
           style="fill:none;stroke:#000000;stroke-width:0.0749996;stroke-linecap:butt;stroke-linejoin:miter;stroke-miterlimit:4;stroke-dasharray:none;stroke-opacity:1"
           d="m 81.105,754.402 v 4.254 h -1.132 v 2.551 h 4.254 v 1.133 h 2.55 v -4.25 h 1.133 v -0.285 h 0.906 v 8.316 h 7.555 v 48.945 H 83.637 v 18.211 h 1.367 v 1.489 h 3.543 v -3.543 h -3.543 v 1.488 h -0.801 v -17.078 h 12.735 v -50.078 h -7.551 v -8.317 H 87.91 v -1.703 h -4.25 v -1.133 z" /></g><g
         id="g250"><path
           inkscape:connector-curvature="0"
           id="path252"
           style="fill:none;stroke:#000000;stroke-width:0.0749996;stroke-linecap:butt;stroke-linejoin:miter;stroke-miterlimit:4;stroke-dasharray:none;stroke-opacity:1"
           d="m 95.848,754.402 v 2.125 h -2.61 v 6.758 h 7.321 v 55.184 h -9.836 v 14.808 h 1.367 v 1.489 h 3.547 v -3.543 H 92.09 v 1.488 h -0.801 v -13.676 h 9.836 v -56.316 h -7.316 v -5.625 h 2.039 v 1.562 h -1.133 v 2.551 h 4.25 v 1.133 h 2.988 v 57.262 h -8.371 v 4.535 H 92.09 v 3.543 h 3.547 v -3.543 h -1.489 v -3.969 h 8.372 v -58.395 h -1.004 v -3.683 h 1.136 v -2.555 h -4.254 v -1.133 z" /></g><g
         id="g254"><path
           inkscape:connector-curvature="0"
           id="path256"
           style="fill:none;stroke:#000000;stroke-width:0.0749996;stroke-linecap:butt;stroke-linejoin:miter;stroke-miterlimit:4;stroke-dasharray:none;stroke-opacity:1"
           d="m 103.219,754.402 v 4.254 h -1.137 v 2.551 h 1.266 v 59.527 h -2.68 v 3.403 H 99.18 v 3.543 h 3.543 v -3.543 h -1.489 v -2.836 h 2.684 v -60.094 h 2.418 v 1.133 h 2.551 v -4.25 h 1.133 v -2.555 h -4.25 v -1.133 z" /></g><g
         id="g258"><path
           inkscape:connector-curvature="0"
           id="path260"
           style="fill:none;stroke:#000000;stroke-width:0.0749996;stroke-linecap:butt;stroke-linejoin:miter;stroke-miterlimit:4;stroke-dasharray:none;stroke-opacity:1"
           d="m 117.957,754.402 v 2.836 h -2.609 v 8.317 h -6.418 v 56.879 h 1.683 v 10.277 h -0.804 v -1.488 h -3.543 v 3.543 h 3.543 v -1.489 h 1.371 v -11.41 h -1.684 v -55.746 h 6.422 v -8.316 h 2.039 v 0.851 h -1.133 v 2.551 h 4.25 v 1.133 h 2.555 v -4.25 h 1.133 v -2.555 h -4.254 v -1.133 z" /></g><g
         id="g262"><path
           inkscape:connector-curvature="0"
           id="path264"
           style="fill:none;stroke:#000000;stroke-width:0.0749996;stroke-linecap:butt;stroke-linejoin:miter;stroke-miterlimit:4;stroke-dasharray:none;stroke-opacity:1"
           d="m 7.406,761.773 v 12.473 h 3.117 v 1.133 h 3.688 v -8.313 h 7.066 v 53.668 h -2.789 v 19.629 h 2.739 v 1.489 h 3.543 v -3.543 h -3.543 v 1.488 h -2.172 v -18.496 h 2.789 V 766.5 h -7.633 v -3.594 H 9.957 v -1.133 z" /></g><g
         id="g266"><path
           inkscape:connector-curvature="0"
           id="path268"
           style="fill:none;stroke:#000000;stroke-width:0.0749996;stroke-linecap:butt;stroke-linejoin:miter;stroke-miterlimit:4;stroke-dasharray:none;stroke-opacity:1"
           d="m 44.258,761.773 v 4.727 h -7.633 v 50.266 h 11.578 v 23.031 h -2.172 v -1.488 h -3.547 v 3.543 h 3.547 v -1.489 H 48.77 V 816.199 H 37.191 v -49.133 h 7.067 v 7.18 h 3.117 v 1.133 h 3.684 v -12.473 h -4.25 v -1.133 z" /></g><g
         id="g270"><path
           inkscape:connector-curvature="0"
           id="path272"
           style="fill:none;stroke:#000000;stroke-width:0.0749996;stroke-linecap:butt;stroke-linejoin:miter;stroke-miterlimit:4;stroke-dasharray:none;stroke-opacity:1"
           d="m 81.105,761.773 v 12.473 h 3.122 v 1.133 h 3.683 v -8.313 h 7.067 V 813.93 H 82.266 v 26.433 h 2.738 v 1.489 h 3.543 v -3.543 h -3.543 v 1.488 H 82.832 V 814.5 h 12.711 v -48 H 87.91 v -3.594 h -4.25 v -1.133 z" /></g><g
         id="g274"><path
           inkscape:connector-curvature="0"
           id="path276"
           style="fill:none;stroke:#000000;stroke-width:0.0749996;stroke-linecap:butt;stroke-linejoin:miter;stroke-miterlimit:4;stroke-dasharray:none;stroke-opacity:1"
           d="m 117.957,761.773 v 4.727 h -7.633 v 54.801 h 1.656 v 18.496 h -2.171 v -1.488 h -3.543 v 3.543 h 3.543 v -1.489 h 2.738 v -19.629 h -1.652 v -53.668 h 7.062 v 7.18 h 3.117 v 1.133 h 3.688 v -12.473 h -4.254 v -1.133 z" /></g><g
         id="g278"><path
           inkscape:connector-curvature="0"
           id="path280"
           style="fill:none;stroke:#000000;stroke-width:0.0749996;stroke-linecap:butt;stroke-linejoin:miter;stroke-miterlimit:4;stroke-dasharray:none;stroke-opacity:1"
           d="m 1.172,767.441 v 28.348 h 14.457 v 28.348 h -1.488 v 3.543 h 3.543 v -3.543 h -1.489 v -28.348 h 4.25 v -28.348 h -5.668 v 8.504 h -4.82 v -1.132 H 6.84 v -7.372 z" /></g><g
         id="g282"><path
           inkscape:connector-curvature="0"
           id="path284"
           style="fill:none;stroke:#000000;stroke-width:0.0749996;stroke-linecap:butt;stroke-linejoin:miter;stroke-miterlimit:4;stroke-dasharray:none;stroke-opacity:1"
           d="m 38.02,767.441 v 28.348 h 13.039 v 28.348 H 49.57 v 3.543 h 3.543 v -3.543 h -1.488 v -28.348 h 5.672 v -28.348 h -5.672 v 8.504 h -4.816 v -1.132 h -3.118 v -7.372 z" /></g><g
         id="g286"><path
           inkscape:connector-curvature="0"
           id="path288"
           style="fill:none;stroke:#000000;stroke-width:0.0749996;stroke-linecap:butt;stroke-linejoin:miter;stroke-miterlimit:4;stroke-dasharray:none;stroke-opacity:1"
           d="m 74.871,767.441 v 28.348 h 4.535 v 28.348 h -1.488 v 3.543 h 3.543 v -3.543 h -1.488 v -28.348 h 14.175 v -28.348 h -5.671 v 8.504 H 83.66 v -1.132 h -3.121 v -7.372 z" /></g><g
         id="g290"><path
           inkscape:connector-curvature="0"
           id="path292"
           style="fill:none;stroke:#000000;stroke-width:0.0749996;stroke-linecap:butt;stroke-linejoin:miter;stroke-miterlimit:4;stroke-dasharray:none;stroke-opacity:1"
           d="m 111.723,767.441 v 28.348 h 3.117 v 28.348 h -1.488 v 3.543 h 3.543 v -3.543 h -1.489 v -28.348 h 15.59 v -28.348 h -5.668 v 8.504 h -4.82 v -1.132 h -3.117 v -7.372 z" /></g></g></g></svg>
