<?xml version="1.0" ?>
<svg xmlns="http://www.w3.org/2000/svg" xmlns:ev="http://www.w3.org/2001/xml-events" xmlns:xlink="http://www.w3.org/1999/xlink" baseProfile="full" height="172px" version="1.1" viewBox="7.040728649999998 8.49152865 24.383542700000003 6.9739427" width="600px">
	<defs/>
	<path d="M 9.08115,9.08115 L 29.38385,9.08115 L 29.38385,14.87585 L 9.08115,14.87585 L 9.08115,9.08115" fill="none" stroke="#000000" stroke-width="0.020302700000000003"/>
	<path d="M 15.672,13.953 L 17.09,13.953 L 17.09,10.004 L 15.672,10.004 L 15.672,11.27 L 12.84,11.27 L 12.84,10.563 L 10.004,10.563 L 10.004,13.395 L 12.84,13.395 L 12.84,12.688 L 15.672,12.688 L 15.672,13.953" fill="none" stroke="#000000" stroke-width="0.020302700000000003"/>
	<path d="M 16.9482,10.004 L 21.363,10.004 L 21.363,10.184 L 16.9482,10.184 L 16.9482,10.004" fill="none" stroke="#000000" stroke-width="0.020302700000000003"/>
	<path d="M 16.9482,10.402 L 21.363,10.402 L 21.363,10.578 L 16.9482,10.578 L 16.9482,10.402" fill="none" stroke="#000000" stroke-width="0.020302700000000003"/>
	<path d="M 16.9482,10.797 L 21.363,10.797 L 21.363,10.977 L 16.9482,10.977 L 16.9482,10.797" fill="none" stroke="#000000" stroke-width="0.020302700000000003"/>
	<path d="M 16.9482,11.195 L 21.363,11.195 L 21.363,11.375 L 16.9482,11.375 L 16.9482,11.195" fill="none" stroke="#000000" stroke-width="0.020302700000000003"/>
	<path d="M 16.3814,11.59 L 21.363,11.59 L 21.363,11.77 L 16.3814,11.77 L 16.3814,11.59" fill="none" stroke="#000000" stroke-width="0.020302700000000003"/>
	<path d="M 16.3814,11.988 L 21.363,11.988 L 21.363,12.168 L 16.3814,12.168 L 16.3814,11.988" fill="none" stroke="#000000" stroke-width="0.020302700000000003"/>
	<path d="M 16.3814,12.387 L 21.363,12.387 L 21.363,12.563 L 16.3814,12.563 L 16.3814,12.387" fill="none" stroke="#000000" stroke-width="0.020302700000000003"/>
	<path d="M 16.9482,12.781 L 21.363,12.781 L 21.363,12.961 L 16.9482,12.961 L 16.9482,12.781" fill="none" stroke="#000000" stroke-width="0.020302700000000003"/>
	<path d="M 16.9482,13.18 L 21.363,13.18 L 21.363,13.359 L 16.9482,13.359 L 16.9482,13.18" fill="none" stroke="#000000" stroke-width="0.020302700000000003"/>
	<path d="M 16.9482,13.578 L 21.363,13.578 L 21.363,13.754 L 16.9482,13.754 L 16.9482,13.578" fill="none" stroke="#000000" stroke-width="0.020302700000000003"/>
	<path d="M 21.375,13.953 L 22.793,13.953 L 22.793,12.688 L 25.629,12.688 L 25.629,13.395 L 28.461,13.395 L 28.461,10.563 L 25.629,10.563 L 25.629,11.27 L 22.793,11.27 L 22.793,10.004 L 21.375,10.004 L 21.375,13.953" fill="none" stroke="#000000" stroke-width="0.020302700000000003"/>
	<path d="M 17.109,10.203 L 21.5168,10.203 L 21.5168,10.383 L 17.109,10.383 L 17.109,10.203" fill="none" stroke="#000000" stroke-width="0.020302700000000003"/>
	<path d="M 17.109,10.602 L 21.5168,10.602 L 21.5168,10.777 L 17.109,10.777 L 17.109,10.602" fill="none" stroke="#000000" stroke-width="0.020302700000000003"/>
	<path d="M 17.109,10.996 L 21.5168,10.996 L 21.5168,11.176 L 17.109,11.176 L 17.109,10.996" fill="none" stroke="#000000" stroke-width="0.020302700000000003"/>
	<path d="M 17.109,11.395 L 22.0836,11.395 L 22.0836,11.574 L 17.109,11.574 L 17.109,11.395" fill="none" stroke="#000000" stroke-width="0.020302700000000003"/>
	<path d="M 17.109,11.789 L 22.0836,11.789 L 22.0836,11.969 L 17.109,11.969 L 17.109,11.789" fill="none" stroke="#000000" stroke-width="0.020302700000000003"/>
	<path d="M 17.109,12.188 L 22.0836,12.188 L 22.0836,12.363 L 17.109,12.363 L 17.109,12.188" fill="none" stroke="#000000" stroke-width="0.020302700000000003"/>
	<path d="M 17.109,12.582 L 21.5168,12.582 L 21.5168,12.762 L 17.109,12.762 L 17.109,12.582" fill="none" stroke="#000000" stroke-width="0.020302700000000003"/>
	<path d="M 17.109,12.98 L 21.5168,12.98 L 21.5168,13.16 L 17.109,13.16 L 17.109,12.98" fill="none" stroke="#000000" stroke-width="0.020302700000000003"/>
	<path d="M 17.109,13.379 L 21.5168,13.379 L 21.5168,13.555 L 17.109,13.555 L 17.109,13.379" fill="none" stroke="#000000" stroke-width="0.020302700000000003"/>
	<path d="M 17.109,13.773 L 21.5168,13.773 L 21.5168,13.953 L 17.109,13.953 L 17.109,13.773" fill="none" stroke="#000000" stroke-width="0.020302700000000003"/>
</svg>
