<?xml version="1.0" ?>
<svg xmlns="http://www.w3.org/2000/svg" xmlns:ev="http://www.w3.org/2001/xml-events" xmlns:xlink="http://www.w3.org/1999/xlink" baseProfile="full" height="485px" version="1.1" viewBox="-20.316188500000003 -16.3122885 249.78037700000002 201.733577" width="600px">
	<defs/>
	<path d="M 0.5854999999999979,0.5854999999999979 L 208.5625,0.5854999999999979 L 208.5625,168.52349999999998 L 0.5854999999999979,168.52349999999998 L 0.5854999999999979,0.5854999999999979" fill="none" stroke="#000000" stroke-width="0.207977"/>
	<path d="M 11.527,21.777 L 44.426,21.777 L 44.426,22.348 L 11.527,22.348 L 11.527,21.777" fill="none" stroke="#000000" stroke-width="0.207977"/>
	<path d="M 10.039,24.426 L 13.582,24.426 L 13.582,27.969 L 10.039,27.969 L 10.039,24.426" fill="none" stroke="#000000" stroke-width="0.207977"/>
	<path d="M 98.055,24.777 L 103.723,24.777 L 103.723,30.449 L 98.055,30.449 L 98.055,24.777" fill="none" stroke="#000000" stroke-width="0.207977"/>
	<path d="M 44.199200000000005,10.039 L 98.621,10.039 L 98.621,10.605 L 44.199200000000005,10.605 L 44.199200000000005,10.039" fill="none" stroke="#000000" stroke-width="0.207977"/>
	<path d="M 43.859,10.039 L 44.426,10.039 L 44.426,22.0054 L 43.859,22.0054 L 43.859,10.039" fill="none" stroke="#000000" stroke-width="0.207977"/>
	<path d="M 98.055,23.645 L 100.602,23.645 L 100.602,25.3442 L 98.055,25.3442 L 98.055,23.645" fill="none" stroke="#000000" stroke-width="0.207977"/>
	<path d="M 11.527,22.1196 L 12.094,22.1196 L 12.094,25.8432 L 11.527,25.8432 L 11.527,22.1196" fill="none" stroke="#000000" stroke-width="0.207977"/>
	<path d="M 103.1562,24.777 L 104.852,24.777 L 104.852,27.332 L 103.1562,27.332 L 103.1562,24.777" fill="none" stroke="#000000" stroke-width="0.207977"/>
	<path d="M 96.922,27.898 L 98.62180000000001,27.898 L 98.62180000000001,30.449 L 96.922,30.449 L 96.922,27.898" fill="none" stroke="#000000" stroke-width="0.207977"/>
	<path d="M 101.172,29.881800000000002 L 103.723,29.881800000000002 L 103.723,31.582 L 101.172,31.582 L 101.172,29.881800000000002" fill="none" stroke="#000000" stroke-width="0.207977"/>
	<path d="M 98.055,10.3786 L 98.621,10.3786 L 98.621,24.0978 L 98.055,24.0978 L 98.055,10.3786" fill="none" stroke="#000000" stroke-width="0.207977"/>
	<path d="M 164.719,21.777 L 197.621,21.777 L 197.621,22.348 L 164.719,22.348 L 164.719,21.777" fill="none" stroke="#000000" stroke-width="0.207977"/>
	<path d="M 195.566,24.426 L 199.109,24.426 L 199.109,27.969 L 195.566,27.969 L 195.566,24.426" fill="none" stroke="#000000" stroke-width="0.207977"/>
	<path d="M 105.426,24.777 L 111.094,24.777 L 111.094,30.449 L 105.426,30.449 L 105.426,24.777" fill="none" stroke="#000000" stroke-width="0.207977"/>
	<path d="M 105.426,10.039 L 105.992,10.039 L 105.992,24.0978 L 105.426,24.0978 L 105.426,10.039" fill="none" stroke="#000000" stroke-width="0.207977"/>
	<path d="M 164.719,10.039 L 165.289,10.039 L 165.289,22.0054 L 164.719,22.0054 L 164.719,10.039" fill="none" stroke="#000000" stroke-width="0.207977"/>
	<path d="M 105.426,23.645 L 107.977,23.645 L 107.977,25.3442 L 105.426,25.3442 L 105.426,23.645" fill="none" stroke="#000000" stroke-width="0.207977"/>
	<path d="M 197.055,22.1196 L 197.621,22.1196 L 197.621,25.8432 L 197.055,25.8432 L 197.055,22.1196" fill="none" stroke="#000000" stroke-width="0.207977"/>
	<path d="M 110.5272,24.777 L 112.227,24.777 L 112.227,27.332 L 110.5272,27.332 L 110.5272,24.777" fill="none" stroke="#000000" stroke-width="0.207977"/>
	<path d="M 104.289,27.898 L 105.9928,27.898 L 105.9928,30.449 L 104.289,30.449 L 104.289,27.898" fill="none" stroke="#000000" stroke-width="0.207977"/>
	<path d="M 108.543,29.881800000000002 L 111.094,29.881800000000002 L 111.094,31.582 L 108.543,31.582 L 108.543,29.881800000000002" fill="none" stroke="#000000" stroke-width="0.207977"/>
	<path d="M 105.7656,10.039 L 164.947,10.039 L 164.947,10.605 L 105.7656,10.605 L 105.7656,10.039" fill="none" stroke="#000000" stroke-width="0.207977"/>
	<path d="M 47.844,11.172 L 91.25,11.172 L 91.25,11.742 L 47.844,11.742 L 47.844,11.172" fill="none" stroke="#000000" stroke-width="0.207977"/>
	<path d="M 17.125,24.426 L 20.668,24.426 L 20.668,27.969 L 17.125,27.969 L 17.125,24.426" fill="none" stroke="#000000" stroke-width="0.207977"/>
	<path d="M 90.684,24.777 L 96.352,24.777 L 96.352,30.449 L 90.684,30.449 L 90.684,24.777" fill="none" stroke="#000000" stroke-width="0.207977"/>
	<path d="M 18.9532,22.961 L 48.41,22.961 L 48.41,23.527 L 18.9532,23.527 L 18.9532,22.961" fill="none" stroke="#000000" stroke-width="0.207977"/>
	<path d="M 18.613,22.961 L 19.18,22.961 L 19.18,25.8432 L 18.613,25.8432 L 18.613,22.961" fill="none" stroke="#000000" stroke-width="0.207977"/>
	<path d="M 90.684,23.645 L 93.234,23.645 L 93.234,25.3442 L 90.684,25.3442 L 90.684,23.645" fill="none" stroke="#000000" stroke-width="0.207977"/>
	<path d="M 95.7852,24.777 L 97.488,24.777 L 97.488,27.332 L 95.7852,27.332 L 95.7852,24.777" fill="none" stroke="#000000" stroke-width="0.207977"/>
	<path d="M 89.551,27.898 L 91.2508,27.898 L 91.2508,30.449 L 89.551,30.449 L 89.551,27.898" fill="none" stroke="#000000" stroke-width="0.207977"/>
	<path d="M 93.801,29.881800000000002 L 96.352,29.881800000000002 L 96.352,31.582 L 93.801,31.582 L 93.801,29.881800000000002" fill="none" stroke="#000000" stroke-width="0.207977"/>
	<path d="M 47.844,11.514000000000001 L 48.41,11.514000000000001 L 48.41,23.1874 L 47.844,23.1874 L 47.844,11.514000000000001" fill="none" stroke="#000000" stroke-width="0.207977"/>
	<path d="M 90.684,11.514000000000001 L 91.25,11.514000000000001 L 91.25,24.32468 L 90.684,24.32468 L 90.684,11.514000000000001" fill="none" stroke="#000000" stroke-width="0.207977"/>
	<path d="M 112.793,11.172 L 161.301,11.172 L 161.301,11.742 L 112.793,11.742 L 112.793,11.172" fill="none" stroke="#000000" stroke-width="0.207977"/>
	<path d="M 188.477,24.426 L 192.023,24.426 L 192.023,27.969 L 188.477,27.969 L 188.477,24.426" fill="none" stroke="#000000" stroke-width="0.207977"/>
	<path d="M 112.793,24.777 L 118.465,24.777 L 118.465,30.449 L 112.793,30.449 L 112.793,24.777" fill="none" stroke="#000000" stroke-width="0.207977"/>
	<path d="M 160.734,11.514000000000001 L 161.301,11.514000000000001 L 161.301,23.527 L 160.734,23.527 L 160.734,11.514000000000001" fill="none" stroke="#000000" stroke-width="0.207977"/>
	<path d="M 161.0742,22.961 L 190.535,22.961 L 190.535,23.527 L 161.0742,23.527 L 161.0742,22.961" fill="none" stroke="#000000" stroke-width="0.207977"/>
	<path d="M 112.793,23.645 L 115.344,23.645 L 115.344,25.3442 L 112.793,25.3442 L 112.793,23.645" fill="none" stroke="#000000" stroke-width="0.207977"/>
	<path d="M 189.969,23.3006 L 190.535,23.3006 L 190.535,25.8432 L 189.969,25.8432 L 189.969,23.3006" fill="none" stroke="#000000" stroke-width="0.207977"/>
	<path d="M 117.8978,24.777 L 119.598,24.777 L 119.598,27.332 L 117.8978,27.332 L 117.8978,24.777" fill="none" stroke="#000000" stroke-width="0.207977"/>
	<path d="M 111.66,27.898 L 113.3602,27.898 L 113.3602,30.449 L 111.66,30.449 L 111.66,27.898" fill="none" stroke="#000000" stroke-width="0.207977"/>
	<path d="M 115.91,29.881800000000002 L 118.465,29.881800000000002 L 118.465,31.582 L 115.91,31.582 L 115.91,29.881800000000002" fill="none" stroke="#000000" stroke-width="0.207977"/>
	<path d="M 112.793,11.514000000000001 L 113.359,11.514000000000001 L 113.359,24.32468 L 112.793,24.32468 L 112.793,11.514000000000001" fill="none" stroke="#000000" stroke-width="0.207977"/>
	<path d="M 51.832,12.309 L 52.398,12.309 L 52.398,26.48 L 51.832,26.48 L 51.832,12.309" fill="none" stroke="#000000" stroke-width="0.207977"/>
	<path d="M 24.211,24.426 L 27.754,24.426 L 27.754,27.969 L 24.211,27.969 L 24.211,24.426" fill="none" stroke="#000000" stroke-width="0.207977"/>
	<path d="M 77.641,24.777 L 88.977,24.777 L 88.977,31.582 L 77.641,31.582 L 77.641,24.777" fill="none" stroke="#000000" stroke-width="0.207977"/>
	<path d="M 87.281,12.309 L 87.848,12.309 L 87.848,25.4575 L 87.281,25.4575 L 87.281,12.309" fill="none" stroke="#000000" stroke-width="0.207977"/>
	<path d="M 26.3368,25.914 L 52.0584,25.914 L 52.0584,26.48 L 26.3368,26.48 L 26.3368,25.914" fill="none" stroke="#000000" stroke-width="0.207977"/>
	<path d="M 87.8434,24.777 L 90.117,24.777 L 90.117,27.332 L 87.8434,27.332 L 87.8434,24.777" fill="none" stroke="#000000" stroke-width="0.207977"/>
	<path d="M 76.512,27.898 L 78.7746,27.898 L 78.7746,31.582 L 76.512,31.582 L 76.512,27.898" fill="none" stroke="#000000" stroke-width="0.207977"/>
	<path d="M 52.171600000000005,12.309 L 87.5078,12.309 L 87.5078,12.875 L 52.171600000000005,12.875 L 52.171600000000005,12.309" fill="none" stroke="#000000" stroke-width="0.207977"/>
	<path d="M 156.75,12.309 L 157.316,12.309 L 157.316,26.48 L 156.75,26.48 L 156.75,12.309" fill="none" stroke="#000000" stroke-width="0.207977"/>
	<path d="M 120.164,23.645 L 131.504,23.645 L 131.504,30.449 L 120.164,30.449 L 120.164,23.645" fill="none" stroke="#000000" stroke-width="0.207977"/>
	<path d="M 181.391,24.426 L 184.934,24.426 L 184.934,27.969 L 181.391,27.969 L 181.391,24.426" fill="none" stroke="#000000" stroke-width="0.207977"/>
	<path d="M 120.164,12.309 L 156.9764,12.309 L 156.9764,12.875 L 120.164,12.875 L 120.164,12.309" fill="none" stroke="#000000" stroke-width="0.207977"/>
	<path d="M 130.37,23.645 L 132.637,23.645 L 132.637,27.332 L 130.37,27.332 L 130.37,23.645" fill="none" stroke="#000000" stroke-width="0.207977"/>
	<path d="M 119.031,27.898 L 121.298,27.898 L 121.298,30.449 L 119.031,30.449 L 119.031,27.898" fill="none" stroke="#000000" stroke-width="0.207977"/>
	<path d="M 157.0896,25.914 L 182.8082,25.914 L 182.8082,26.48 L 157.0896,26.48 L 157.0896,25.914" fill="none" stroke="#000000" stroke-width="0.207977"/>
	<path d="M 120.164,12.6486 L 120.727,12.6486 L 120.727,24.3254 L 120.164,24.3254 L 120.164,12.6486" fill="none" stroke="#000000" stroke-width="0.207977"/>
	<path d="M 133.203,17.41 L 153.047,17.41 L 153.047,36.684 L 133.203,36.684 L 133.203,17.41" fill="none" stroke="#000000" stroke-width="0.207977"/>
	<path d="M 181.391,31.512 L 184.934,31.512 L 184.934,35.055 L 181.391,35.055 L 181.391,31.512" fill="none" stroke="#000000" stroke-width="0.207977"/>
	<path d="M 124.699,17.41 L 135.1874,17.41 L 135.1874,23.078 L 124.699,23.078 L 124.699,17.41" fill="none" stroke="#000000" stroke-width="0.207977"/>
	<path d="M 132.07,27.898 L 135.1874,27.898 L 135.1874,36.684 L 132.07,36.684 L 132.07,27.898" fill="none" stroke="#000000" stroke-width="0.207977"/>
	<path d="M 124.699,31.016 L 133.31696,31.016 L 133.31696,36.684 L 124.699,36.684 L 124.699,31.016" fill="none" stroke="#000000" stroke-width="0.207977"/>
	<path d="M 151.0626,33.0 L 182.8082,33.0 L 182.8082,33.566 L 151.0626,33.566 L 151.0626,33.0" fill="none" stroke="#000000" stroke-width="0.207977"/>
	<path d="M 56.102,18.543 L 75.945,18.543 L 75.945,37.82 L 56.102,37.82 L 56.102,18.543" fill="none" stroke="#000000" stroke-width="0.207977"/>
	<path d="M 24.211,31.512 L 27.754,31.512 L 27.754,35.055 L 24.211,35.055 L 24.211,31.512" fill="none" stroke="#000000" stroke-width="0.207977"/>
	<path d="M 73.96069999999999,18.543 L 77.078,18.543 L 77.078,27.332 L 73.96069999999999,27.332 L 73.96069999999999,18.543" fill="none" stroke="#000000" stroke-width="0.207977"/>
	<path d="M 73.96069999999999,32.148 L 84.449,32.148 L 84.449,37.82 L 73.96069999999999,37.82 L 73.96069999999999,32.148" fill="none" stroke="#000000" stroke-width="0.207977"/>
	<path d="M 75.83108,18.543 L 84.449,18.543 L 84.449,24.211 L 75.83108,24.211 L 75.83108,18.543" fill="none" stroke="#000000" stroke-width="0.207977"/>
	<path d="M 26.3368,33.0 L 58.086299999999994,33.0 L 58.086299999999994,33.566 L 26.3368,33.566 L 26.3368,33.0" fill="none" stroke="#000000" stroke-width="0.207977"/>
	<path d="M 27.754,82.891 L 29.246,82.891 L 29.246,83.457 L 27.754,83.457 L 27.754,82.891" fill="none" stroke="#000000" stroke-width="0.207977"/>
	<path d="M 30.738,82.891 L 32.226,82.891 L 32.226,83.457 L 30.738,83.457 L 30.738,82.891" fill="none" stroke="#000000" stroke-width="0.207977"/>
	<path d="M 33.723,82.891 L 35.215,82.891 L 35.215,83.457 L 33.723,83.457 L 33.723,82.891" fill="none" stroke="#000000" stroke-width="0.207977"/>
	<path d="M 36.707,82.891 L 38.199,82.891 L 38.199,83.457 L 36.707,83.457 L 36.707,82.891" fill="none" stroke="#000000" stroke-width="0.207977"/>
	<path d="M 39.691,82.891 L 41.175,82.891 L 41.175,83.457 L 39.691,83.457 L 39.691,82.891" fill="none" stroke="#000000" stroke-width="0.207977"/>
	<path d="M 42.676,82.891 L 44.164,82.891 L 44.164,83.457 L 42.676,83.457 L 42.676,82.891" fill="none" stroke="#000000" stroke-width="0.207977"/>
	<path d="M 45.656,82.891 L 47.148,82.891 L 47.148,83.457 L 45.656,83.457 L 45.656,82.891" fill="none" stroke="#000000" stroke-width="0.207977"/>
	<path d="M 48.641,82.891 L 50.133,82.891 L 50.133,83.457 L 48.641,83.457 L 48.641,82.891" fill="none" stroke="#000000" stroke-width="0.207977"/>
	<path d="M 51.625,82.891 L 53.117,82.891 L 53.117,83.457 L 51.625,83.457 L 51.625,82.891" fill="none" stroke="#000000" stroke-width="0.207977"/>
	<path d="M 54.609,82.891 L 56.097,82.891 L 56.097,83.457 L 54.609,83.457 L 54.609,82.891" fill="none" stroke="#000000" stroke-width="0.207977"/>
	<path d="M 153.047,82.891 L 154.539,82.891 L 154.539,83.457 L 153.047,83.457 L 153.047,82.891" fill="none" stroke="#000000" stroke-width="0.207977"/>
	<path d="M 156.031,82.891 L 157.523,82.891 L 157.523,83.457 L 156.031,83.457 L 156.031,82.891" fill="none" stroke="#000000" stroke-width="0.207977"/>
	<path d="M 159.012,82.891 L 160.508,82.891 L 160.508,83.457 L 159.012,83.457 L 159.012,82.891" fill="none" stroke="#000000" stroke-width="0.207977"/>
	<path d="M 161.996,82.891 L 163.488,82.891 L 163.488,83.457 L 161.996,83.457 L 161.996,82.891" fill="none" stroke="#000000" stroke-width="0.207977"/>
	<path d="M 164.977,82.891 L 166.469,82.891 L 166.469,83.457 L 164.977,83.457 L 164.977,82.891" fill="none" stroke="#000000" stroke-width="0.207977"/>
	<path d="M 167.965,82.891 L 169.457,82.891 L 169.457,83.457 L 167.965,83.457 L 167.965,82.891" fill="none" stroke="#000000" stroke-width="0.207977"/>
	<path d="M 170.949,82.891 L 172.441,82.891 L 172.441,83.457 L 170.949,83.457 L 170.949,82.891" fill="none" stroke="#000000" stroke-width="0.207977"/>
	<path d="M 173.934,82.891 L 175.426,82.891 L 175.426,83.457 L 173.934,83.457 L 173.934,82.891" fill="none" stroke="#000000" stroke-width="0.207977"/>
	<path d="M 176.918,82.891 L 178.406,82.891 L 178.406,83.457 L 176.918,83.457 L 176.918,82.891" fill="none" stroke="#000000" stroke-width="0.207977"/>
	<path d="M 179.902,82.891 L 181.386,82.891 L 181.386,83.457 L 179.902,83.457 L 179.902,82.891" fill="none" stroke="#000000" stroke-width="0.207977"/>
	<path d="M 50.504,85.156 L 93.801,85.156 L 93.801,85.723 L 50.504,85.723 L 50.504,85.156" fill="none" stroke="#000000" stroke-width="0.207977"/>
	<path d="M 49.016,155.527 L 52.559,155.527 L 52.559,159.07 L 49.016,159.07 L 49.016,155.527" fill="none" stroke="#000000" stroke-width="0.207977"/>
	<path d="M 50.504,85.4962 L 51.07,85.4962 L 51.07,156.9442 L 50.504,156.9442 L 50.504,85.4962" fill="none" stroke="#000000" stroke-width="0.207977"/>
	<path d="M 61.133,98.48 L 86.148,98.48 L 86.148,99.047 L 61.133,99.047 L 61.133,98.48" fill="none" stroke="#000000" stroke-width="0.207977"/>
	<path d="M 61.133,149.008 L 72.328,149.008 L 72.328,149.574 L 61.133,149.574 L 61.133,149.008" fill="none" stroke="#000000" stroke-width="0.207977"/>
	<path d="M 70.273,155.527 L 73.816,155.527 L 73.816,159.07 L 70.273,159.07 L 70.273,155.527" fill="none" stroke="#000000" stroke-width="0.207977"/>
	<path d="M 61.133,98.8202 L 61.699,98.8202 L 61.699,149.23440000000002 L 61.133,149.23440000000002 L 61.133,98.8202" fill="none" stroke="#000000" stroke-width="0.207977"/>
	<path d="M 71.762,149.3476 L 72.328,149.3476 L 72.328,156.9442 L 71.762,156.9442 L 71.762,149.3476" fill="none" stroke="#000000" stroke-width="0.207977"/>
	<path d="M 63.184,108.332 L 63.75,108.332 L 63.75,123.07 L 63.184,123.07 L 63.184,108.332" fill="none" stroke="#000000" stroke-width="0.207977"/>
	<path d="M 160.133,108.332 L 160.699,108.332 L 160.699,123.07 L 160.133,123.07 L 160.133,108.332" fill="none" stroke="#000000" stroke-width="0.207977"/>
	<path d="M 163.887,127.395 L 164.457,127.395 L 164.457,150.141 L 163.887,150.141 L 163.887,127.395" fill="none" stroke="#000000" stroke-width="0.207977"/>
	<path d="M 112.793,155.527 L 116.336,155.527 L 116.336,159.07 L 112.793,159.07 L 112.793,155.527" fill="none" stroke="#000000" stroke-width="0.207977"/>
	<path d="M 148.793,127.395 L 164.115,127.395 L 164.115,127.961 L 148.793,127.961 L 148.793,127.395" fill="none" stroke="#000000" stroke-width="0.207977"/>
	<path d="M 114.281,149.574 L 114.848,149.574 L 114.848,156.9442 L 114.281,156.9442 L 114.281,149.574" fill="none" stroke="#000000" stroke-width="0.207977"/>
	<path d="M 114.6212,149.574 L 164.115,149.574 L 164.115,150.141 L 114.6212,150.141 L 114.6212,149.574" fill="none" stroke="#000000" stroke-width="0.207977"/>
	<path d="M 63.184,137.813 L 63.754,137.813 L 63.754,144.898 L 63.184,144.898 L 63.184,137.813" fill="none" stroke="#000000" stroke-width="0.207977"/>
	<path d="M 63.525999999999996,144.332 L 70.273,144.332 L 70.273,144.898 L 63.525999999999996,144.898 L 63.525999999999996,144.332" fill="none" stroke="#000000" stroke-width="0.207977"/>
	<path d="M 153.613,144.332 L 160.699,144.332 L 160.699,144.898 L 153.613,144.898 L 153.613,144.332" fill="none" stroke="#000000" stroke-width="0.207977"/>
	<path d="M 160.133,137.813 L 160.699,137.813 L 160.699,144.5584 L 160.133,144.5584 L 160.133,137.813" fill="none" stroke="#000000" stroke-width="0.207977"/>
	<path d="M 34.559,144.898 L 35.125,144.898 L 35.125,148.441 L 34.559,148.441 L 34.559,144.898" fill="none" stroke="#000000" stroke-width="0.207977"/>
	<path d="M 174.023,144.898 L 174.585,144.898 L 174.585,148.441 L 174.023,148.441 L 174.023,144.898" fill="none" stroke="#000000" stroke-width="0.207977"/>
	<path d="M 29.527,149.93 L 33.07,149.93 L 33.07,150.496 L 29.527,150.496 L 29.527,149.93" fill="none" stroke="#000000" stroke-width="0.207977"/>
	<path d="M 36.613,149.93 L 40.156,149.93 L 40.156,150.496 L 36.613,150.496 L 36.613,149.93" fill="none" stroke="#000000" stroke-width="0.207977"/>
	<path d="M 168.992,149.93 L 172.535,149.93 L 172.535,150.496 L 168.992,150.496 L 168.992,149.93" fill="none" stroke="#000000" stroke-width="0.207977"/>
	<path d="M 176.078,149.93 L 179.621,149.93 L 179.621,150.496 L 176.078,150.496 L 176.078,149.93" fill="none" stroke="#000000" stroke-width="0.207977"/>
	<path d="M 34.559,151.984 L 35.125,151.984 L 35.125,155.527 L 34.559,155.527 L 34.559,151.984" fill="none" stroke="#000000" stroke-width="0.207977"/>
	<path d="M 174.023,151.984 L 174.585,151.984 L 174.585,155.527 L 174.023,155.527 L 174.023,151.984" fill="none" stroke="#000000" stroke-width="0.207977"/>
</svg>
