<?xml version="1.0" ?>
<svg xmlns="http://www.w3.org/2000/svg" xmlns:ev="http://www.w3.org/2001/xml-events" xmlns:xlink="http://www.w3.org/1999/xlink" baseProfile="full" height="464px" version="1.1" viewBox="-22.591503100000004 -17.5036031 268.5030062 207.4482062" width="600px">
	<defs/>
	<path d="M -0.12310000000000265,-0.12310000000000265 L 223.44310000000002,-0.12310000000000265 L 223.44310000000002,172.5641 L -0.12310000000000265,172.5641 L -0.12310000000000265,-0.12310000000000265" fill="none" stroke="#000000" stroke-width="0.22356620000000002"/>
	<path d="M 188.477,10.039 L 213.281,10.039 L 213.281,17.129 L 188.477,17.129 L 188.477,10.039" fill="none" stroke="#000000" stroke-width="0.22356620000000002"/>
	<path d="M 188.477,16.42 L 192.02,16.42 L 192.02,24.215 L 188.477,24.215 L 188.477,16.42" fill="none" stroke="#000000" stroke-width="0.22356620000000002"/>
	<path d="M 50.945,13.371 L 105.707,13.371 L 105.707,13.938 L 50.945,13.938 L 50.945,13.371" fill="none" stroke="#000000" stroke-width="0.22356620000000002"/>
	<path d="M 18.613,25.109 L 51.512,25.109 L 51.512,25.68 L 18.613,25.68 L 18.613,25.109" fill="none" stroke="#000000" stroke-width="0.22356620000000002"/>
	<path d="M 17.125,27.758 L 20.668,27.758 L 20.668,31.301 L 17.125,31.301 L 17.125,27.758" fill="none" stroke="#000000" stroke-width="0.22356620000000002"/>
	<path d="M 105.141,28.109 L 110.809,28.109 L 110.809,33.781 L 105.141,33.781 L 105.141,28.109" fill="none" stroke="#000000" stroke-width="0.22356620000000002"/>
	<path d="M 50.945,13.7112 L 51.512,13.7112 L 51.512,25.337400000000002 L 50.945,25.337400000000002 L 50.945,13.7112" fill="none" stroke="#000000" stroke-width="0.22356620000000002"/>
	<path d="M 105.141,26.977 L 107.691,26.977 L 107.691,28.6762 L 105.141,28.6762 L 105.141,26.977" fill="none" stroke="#000000" stroke-width="0.22356620000000002"/>
	<path d="M 18.613,25.4516 L 19.18,25.4516 L 19.18,29.1752 L 18.613,29.1752 L 18.613,25.4516" fill="none" stroke="#000000" stroke-width="0.22356620000000002"/>
	<path d="M 110.2422,28.109 L 111.941,28.109 L 111.941,30.664 L 110.2422,30.664 L 110.2422,28.109" fill="none" stroke="#000000" stroke-width="0.22356620000000002"/>
	<path d="M 104.008,31.23 L 105.7078,31.23 L 105.7078,33.781 L 104.008,33.781 L 104.008,31.23" fill="none" stroke="#000000" stroke-width="0.22356620000000002"/>
	<path d="M 108.258,33.2138 L 110.809,33.2138 L 110.809,34.914 L 108.258,34.914 L 108.258,33.2138" fill="none" stroke="#000000" stroke-width="0.22356620000000002"/>
	<path d="M 105.141,13.7112 L 105.707,13.7112 L 105.707,27.65668 L 105.141,27.65668 L 105.141,13.7112" fill="none" stroke="#000000" stroke-width="0.22356620000000002"/>
	<path d="M 171.805,25.109 L 204.707,25.109 L 204.707,25.68 L 171.805,25.68 L 171.805,25.109" fill="none" stroke="#000000" stroke-width="0.22356620000000002"/>
	<path d="M 202.652,27.758 L 206.195,27.758 L 206.195,31.301 L 202.652,31.301 L 202.652,27.758" fill="none" stroke="#000000" stroke-width="0.22356620000000002"/>
	<path d="M 112.512,28.109 L 118.18,28.109 L 118.18,33.781 L 112.512,33.781 L 112.512,28.109" fill="none" stroke="#000000" stroke-width="0.22356620000000002"/>
	<path d="M 112.512,13.371 L 172.03300000000002,13.371 L 172.03300000000002,13.938 L 112.512,13.938 L 112.512,13.371" fill="none" stroke="#000000" stroke-width="0.22356620000000002"/>
	<path d="M 171.805,13.371 L 172.375,13.371 L 172.375,25.337400000000002 L 171.805,25.337400000000002 L 171.805,13.371" fill="none" stroke="#000000" stroke-width="0.22356620000000002"/>
	<path d="M 112.512,26.977 L 115.063,26.977 L 115.063,28.6762 L 112.512,28.6762 L 112.512,26.977" fill="none" stroke="#000000" stroke-width="0.22356620000000002"/>
	<path d="M 204.141,25.4516 L 204.707,25.4516 L 204.707,29.1752 L 204.141,29.1752 L 204.141,25.4516" fill="none" stroke="#000000" stroke-width="0.22356620000000002"/>
	<path d="M 117.6132,28.109 L 119.313,28.109 L 119.313,30.664 L 117.6132,30.664 L 117.6132,28.109" fill="none" stroke="#000000" stroke-width="0.22356620000000002"/>
	<path d="M 111.375,31.23 L 113.0788,31.23 L 113.0788,33.781 L 111.375,33.781 L 111.375,31.23" fill="none" stroke="#000000" stroke-width="0.22356620000000002"/>
	<path d="M 115.629,33.2138 L 118.18,33.2138 L 118.18,34.914 L 115.629,34.914 L 115.629,33.2138" fill="none" stroke="#000000" stroke-width="0.22356620000000002"/>
	<path d="M 112.512,13.7112 L 113.078,13.7112 L 113.078,27.4298 L 112.512,27.4298 L 112.512,13.7112" fill="none" stroke="#000000" stroke-width="0.22356620000000002"/>
	<path d="M 41.645,13.586 L 42.211,13.586 L 42.211,17.129 L 41.645,17.129 L 41.645,13.586" fill="none" stroke="#000000" stroke-width="0.22356620000000002"/>
	<path d="M 181.109,13.586 L 181.671,13.586 L 181.671,17.129 L 181.109,17.129 L 181.109,13.586" fill="none" stroke="#000000" stroke-width="0.22356620000000002"/>
	<path d="M 54.93,14.504 L 98.336,14.504 L 98.336,15.074 L 54.93,15.074 L 54.93,14.504" fill="none" stroke="#000000" stroke-width="0.22356620000000002"/>
	<path d="M 24.211,27.758 L 27.754,27.758 L 27.754,31.301 L 24.211,31.301 L 24.211,27.758" fill="none" stroke="#000000" stroke-width="0.22356620000000002"/>
	<path d="M 97.77,28.109 L 103.441,28.109 L 103.441,33.781 L 97.77,33.781 L 97.77,28.109" fill="none" stroke="#000000" stroke-width="0.22356620000000002"/>
	<path d="M 26.0392,26.293 L 55.496,26.293 L 55.496,26.859 L 26.0392,26.859 L 26.0392,26.293" fill="none" stroke="#000000" stroke-width="0.22356620000000002"/>
	<path d="M 25.699,26.293 L 26.266,26.293 L 26.266,29.1752 L 25.699,29.1752 L 25.699,26.293" fill="none" stroke="#000000" stroke-width="0.22356620000000002"/>
	<path d="M 97.77,26.977 L 100.32,26.977 L 100.32,28.6762 L 97.77,28.6762 L 97.77,26.977" fill="none" stroke="#000000" stroke-width="0.22356620000000002"/>
	<path d="M 102.8739,28.109 L 104.574,28.109 L 104.574,30.664 L 102.8739,30.664 L 102.8739,28.109" fill="none" stroke="#000000" stroke-width="0.22356620000000002"/>
	<path d="M 96.637,31.23 L 98.33709999999999,31.23 L 98.33709999999999,33.781 L 96.637,33.781 L 96.637,31.23" fill="none" stroke="#000000" stroke-width="0.22356620000000002"/>
	<path d="M 100.887,33.2138 L 103.441,33.2138 L 103.441,34.914 L 100.887,34.914 L 100.887,33.2138" fill="none" stroke="#000000" stroke-width="0.22356620000000002"/>
	<path d="M 54.93,14.846 L 55.496,14.846 L 55.496,26.5194 L 54.93,26.5194 L 54.93,14.846" fill="none" stroke="#000000" stroke-width="0.22356620000000002"/>
	<path d="M 97.77,14.846 L 98.336,14.846 L 98.336,27.65668 L 97.77,27.65668 L 97.77,14.846" fill="none" stroke="#000000" stroke-width="0.22356620000000002"/>
	<path d="M 119.879,14.504 L 168.387,14.504 L 168.387,15.074 L 119.879,15.074 L 119.879,14.504" fill="none" stroke="#000000" stroke-width="0.22356620000000002"/>
	<path d="M 195.566,27.758 L 199.109,27.758 L 199.109,31.301 L 195.566,31.301 L 195.566,27.758" fill="none" stroke="#000000" stroke-width="0.22356620000000002"/>
	<path d="M 119.879,28.109 L 125.551,28.109 L 125.551,33.781 L 119.879,33.781 L 119.879,28.109" fill="none" stroke="#000000" stroke-width="0.22356620000000002"/>
	<path d="M 167.82,14.846 L 168.387,14.846 L 168.387,26.859 L 167.82,26.859 L 167.82,14.846" fill="none" stroke="#000000" stroke-width="0.22356620000000002"/>
	<path d="M 168.1602,26.293 L 197.621,26.293 L 197.621,26.859 L 168.1602,26.859 L 168.1602,26.293" fill="none" stroke="#000000" stroke-width="0.22356620000000002"/>
	<path d="M 119.879,26.977 L 122.43,26.977 L 122.43,28.6762 L 119.879,28.6762 L 119.879,26.977" fill="none" stroke="#000000" stroke-width="0.22356620000000002"/>
	<path d="M 197.055,26.6326 L 197.621,26.6326 L 197.621,29.1752 L 197.055,29.1752 L 197.055,26.6326" fill="none" stroke="#000000" stroke-width="0.22356620000000002"/>
	<path d="M 124.9838,28.109 L 126.684,28.109 L 126.684,30.664 L 124.9838,30.664 L 124.9838,28.109" fill="none" stroke="#000000" stroke-width="0.22356620000000002"/>
	<path d="M 118.746,31.23 L 120.4462,31.23 L 120.4462,33.781 L 118.746,33.781 L 118.746,31.23" fill="none" stroke="#000000" stroke-width="0.22356620000000002"/>
	<path d="M 122.996,33.2138 L 125.551,33.2138 L 125.551,34.914 L 122.996,34.914 L 122.996,33.2138" fill="none" stroke="#000000" stroke-width="0.22356620000000002"/>
	<path d="M 119.879,14.846 L 120.445,14.846 L 120.445,27.65668 L 119.879,27.65668 L 119.879,14.846" fill="none" stroke="#000000" stroke-width="0.22356620000000002"/>
	<path d="M 31.297,27.758 L 34.84,27.758 L 34.84,31.301 L 31.297,31.301 L 31.297,27.758" fill="none" stroke="#000000" stroke-width="0.22356620000000002"/>
	<path d="M 84.727,28.109 L 96.066,28.109 L 96.066,34.914 L 84.727,34.914 L 84.727,28.109" fill="none" stroke="#000000" stroke-width="0.22356620000000002"/>
	<path d="M 58.918,15.641 L 59.484,15.641 L 59.484,29.4728 L 58.918,29.4728 L 58.918,15.641" fill="none" stroke="#000000" stroke-width="0.22356620000000002"/>
	<path d="M 94.367,15.641 L 94.934,15.641 L 94.934,28.7895 L 94.367,28.7895 L 94.367,15.641" fill="none" stroke="#000000" stroke-width="0.22356620000000002"/>
	<path d="M 33.4228,29.246 L 59.484,29.246 L 59.484,29.813 L 33.4228,29.813 L 33.4228,29.246" fill="none" stroke="#000000" stroke-width="0.22356620000000002"/>
	<path d="M 94.9321,28.109 L 97.203,28.109 L 97.203,30.664 L 94.9321,30.664 L 94.9321,28.109" fill="none" stroke="#000000" stroke-width="0.22356620000000002"/>
	<path d="M 83.598,31.23 L 85.8609,31.23 L 85.8609,34.914 L 83.598,34.914 L 83.598,31.23" fill="none" stroke="#000000" stroke-width="0.22356620000000002"/>
	<path d="M 59.257600000000004,15.641 L 94.5938,15.641 L 94.5938,16.207 L 59.257600000000004,16.207 L 59.257600000000004,15.641" fill="none" stroke="#000000" stroke-width="0.22356620000000002"/>
	<path d="M 127.25,26.977 L 138.59,26.977 L 138.59,33.781 L 127.25,33.781 L 127.25,26.977" fill="none" stroke="#000000" stroke-width="0.22356620000000002"/>
	<path d="M 188.477,27.758 L 192.02,27.758 L 192.02,31.301 L 188.477,31.301 L 188.477,27.758" fill="none" stroke="#000000" stroke-width="0.22356620000000002"/>
	<path d="M 127.5896,15.641 L 164.402,15.641 L 164.402,16.207 L 127.5896,16.207 L 127.5896,15.641" fill="none" stroke="#000000" stroke-width="0.22356620000000002"/>
	<path d="M 127.25,15.641 L 127.816,15.641 L 127.816,27.6574 L 127.25,27.6574 L 127.25,15.641" fill="none" stroke="#000000" stroke-width="0.22356620000000002"/>
	<path d="M 137.45600000000002,26.977 L 139.723,26.977 L 139.723,30.664 L 137.45600000000002,30.664 L 137.45600000000002,26.977" fill="none" stroke="#000000" stroke-width="0.22356620000000002"/>
	<path d="M 126.117,31.23 L 128.38400000000001,31.23 L 128.38400000000001,33.781 L 126.117,33.781 L 126.117,31.23" fill="none" stroke="#000000" stroke-width="0.22356620000000002"/>
	<path d="M 163.836,29.246 L 189.8942,29.246 L 189.8942,29.813 L 163.836,29.813 L 163.836,29.246" fill="none" stroke="#000000" stroke-width="0.22356620000000002"/>
	<path d="M 163.836,15.9806 L 164.402,15.9806 L 164.402,29.4728 L 163.836,29.4728 L 163.836,15.9806" fill="none" stroke="#000000" stroke-width="0.22356620000000002"/>
	<path d="M 36.613,18.617 L 40.156,18.617 L 40.156,19.179 L 36.613,19.179 L 36.613,18.617" fill="none" stroke="#000000" stroke-width="0.22356620000000002"/>
	<path d="M 43.699,18.617 L 47.242,18.617 L 47.242,19.179 L 43.699,19.179 L 43.699,18.617" fill="none" stroke="#000000" stroke-width="0.22356620000000002"/>
	<path d="M 176.078,18.617 L 179.621,18.617 L 179.621,19.179 L 176.078,19.179 L 176.078,18.617" fill="none" stroke="#000000" stroke-width="0.22356620000000002"/>
	<path d="M 183.164,18.617 L 186.707,18.617 L 186.707,19.179 L 183.164,19.179 L 183.164,18.617" fill="none" stroke="#000000" stroke-width="0.22356620000000002"/>
	<path d="M 10.039,20.672 L 13.578,20.672 L 13.578,24.215 L 10.039,24.215 L 10.039,20.672" fill="none" stroke="#000000" stroke-width="0.22356620000000002"/>
	<path d="M 17.125,20.672 L 20.668,20.672 L 20.668,24.215 L 17.125,24.215 L 17.125,20.672" fill="none" stroke="#000000" stroke-width="0.22356620000000002"/>
	<path d="M 24.211,20.672 L 27.754,20.672 L 27.754,24.215 L 24.211,24.215 L 24.211,20.672" fill="none" stroke="#000000" stroke-width="0.22356620000000002"/>
	<path d="M 19.250799999999998,22.16 L 25.6282,22.16 L 25.6282,22.727 L 19.250799999999998,22.727 L 19.250799999999998,22.16" fill="none" stroke="#000000" stroke-width="0.22356620000000002"/>
	<path d="M 41.645,20.672 L 42.211,20.672 L 42.211,24.215 L 41.645,24.215 L 41.645,20.672" fill="none" stroke="#000000" stroke-width="0.22356620000000002"/>
	<path d="M 181.109,20.672 L 181.671,20.672 L 181.671,24.215 L 181.109,24.215 L 181.109,20.672" fill="none" stroke="#000000" stroke-width="0.22356620000000002"/>
	<path d="M 195.566,20.672 L 199.109,20.672 L 199.109,24.215 L 195.566,24.215 L 195.566,20.672" fill="none" stroke="#000000" stroke-width="0.22356620000000002"/>
	<path d="M 202.652,20.672 L 206.195,20.672 L 206.195,24.215 L 202.652,24.215 L 202.652,20.672" fill="none" stroke="#000000" stroke-width="0.22356620000000002"/>
	<path d="M 197.6918,22.16 L 204.0692,22.16 L 204.0692,22.727 L 197.6918,22.727 L 197.6918,22.16" fill="none" stroke="#000000" stroke-width="0.22356620000000002"/>
	<path d="M 209.738,20.672 L 213.281,20.672 L 213.281,24.215 L 209.738,24.215 L 209.738,20.672" fill="none" stroke="#000000" stroke-width="0.22356620000000002"/>
	<path d="M 140.289,20.742 L 160.133,20.742 L 160.133,40.016 L 140.289,40.016 L 140.289,20.742" fill="none" stroke="#000000" stroke-width="0.22356620000000002"/>
	<path d="M 188.477,34.844 L 192.02,34.844 L 192.02,38.387 L 188.477,38.387 L 188.477,34.844" fill="none" stroke="#000000" stroke-width="0.22356620000000002"/>
	<path d="M 131.785,20.742 L 142.27339999999998,20.742 L 142.27339999999998,26.41 L 131.785,26.41 L 131.785,20.742" fill="none" stroke="#000000" stroke-width="0.22356620000000002"/>
	<path d="M 139.156,31.23 L 142.27339999999998,31.23 L 142.27339999999998,40.016 L 139.156,40.016 L 139.156,31.23" fill="none" stroke="#000000" stroke-width="0.22356620000000002"/>
	<path d="M 131.785,34.348 L 140.40296,34.348 L 140.40296,40.016 L 131.785,40.016 L 131.785,34.348" fill="none" stroke="#000000" stroke-width="0.22356620000000002"/>
	<path d="M 158.14860000000002,36.332 L 189.8942,36.332 L 189.8942,36.898 L 158.14860000000002,36.898 L 158.14860000000002,36.332" fill="none" stroke="#000000" stroke-width="0.22356620000000002"/>
	<path d="M 63.188,21.875 L 83.031,21.875 L 83.031,41.152 L 63.188,41.152 L 63.188,21.875" fill="none" stroke="#000000" stroke-width="0.22356620000000002"/>
	<path d="M 31.297,34.844 L 34.84,34.844 L 34.84,38.387 L 31.297,38.387 L 31.297,34.844" fill="none" stroke="#000000" stroke-width="0.22356620000000002"/>
	<path d="M 81.0467,21.875 L 84.164,21.875 L 84.164,30.664 L 81.0467,30.664 L 81.0467,21.875" fill="none" stroke="#000000" stroke-width="0.22356620000000002"/>
	<path d="M 81.0467,35.48 L 91.535,35.48 L 91.535,41.152 L 81.0467,41.152 L 81.0467,35.48" fill="none" stroke="#000000" stroke-width="0.22356620000000002"/>
	<path d="M 82.91708,21.875 L 91.535,21.875 L 91.535,27.543 L 82.91708,27.543 L 82.91708,21.875" fill="none" stroke="#000000" stroke-width="0.22356620000000002"/>
	<path d="M 33.4228,36.332 L 65.1723,36.332 L 65.1723,36.898 L 33.4228,36.898 L 33.4228,36.332" fill="none" stroke="#000000" stroke-width="0.22356620000000002"/>
	<path d="M 24.211,34.844 L 27.754,34.844 L 27.754,38.387 L 24.211,38.387 L 24.211,34.844" fill="none" stroke="#000000" stroke-width="0.22356620000000002"/>
	<path d="M 105.141,35.48 L 110.809,35.48 L 110.809,41.152 L 105.141,41.152 L 105.141,35.48" fill="none" stroke="#000000" stroke-width="0.22356620000000002"/>
	<path d="M 45.613,39.875 L 46.18,39.875 L 46.18,44.48 L 45.613,44.48 L 45.613,39.875" fill="none" stroke="#000000" stroke-width="0.22356620000000002"/>
	<path d="M 105.141,34.348 L 107.691,34.348 L 107.691,36.0472 L 105.141,36.0472 L 105.141,34.348" fill="none" stroke="#000000" stroke-width="0.22356620000000002"/>
	<path d="M 25.699,36.9698 L 26.266,36.9698 L 26.266,40.441 L 25.699,40.441 L 25.699,36.9698" fill="none" stroke="#000000" stroke-width="0.22356620000000002"/>
	<path d="M 110.2422,35.48 L 111.941,35.48 L 111.941,38.031 L 110.2422,38.031 L 110.2422,35.48" fill="none" stroke="#000000" stroke-width="0.22356620000000002"/>
	<path d="M 104.008,38.598 L 105.7078,38.598 L 105.7078,41.152 L 104.008,41.152 L 104.008,38.598" fill="none" stroke="#000000" stroke-width="0.22356620000000002"/>
	<path d="M 108.258,40.5848 L 110.809,40.5848 L 110.809,42.285 L 108.258,42.285 L 108.258,40.5848" fill="none" stroke="#000000" stroke-width="0.22356620000000002"/>
	<path d="M 92.809,40.9256 L 93.375,40.9256 L 93.375,44.48 L 92.809,44.48 L 92.809,40.9256" fill="none" stroke="#000000" stroke-width="0.22356620000000002"/>
	<path d="M 92.809,40.586 L 104.68792,40.586 L 104.68792,41.152 L 92.809,41.152 L 92.809,40.586" fill="none" stroke="#000000" stroke-width="0.22356620000000002"/>
	<path d="M 26.0392,39.875 L 45.8398,39.875 L 45.8398,40.441 L 26.0392,40.441 L 26.0392,39.875" fill="none" stroke="#000000" stroke-width="0.22356620000000002"/>
	<path d="M 45.9532,43.914 L 93.0354,43.914 L 93.0354,44.48 L 45.9532,44.48 L 45.9532,43.914" fill="none" stroke="#000000" stroke-width="0.22356620000000002"/>
	<path d="M 195.566,34.844 L 199.109,34.844 L 199.109,38.387 L 195.566,38.387 L 195.566,34.844" fill="none" stroke="#000000" stroke-width="0.22356620000000002"/>
	<path d="M 112.512,35.48 L 118.18,35.48 L 118.18,41.152 L 112.512,41.152 L 112.512,35.48" fill="none" stroke="#000000" stroke-width="0.22356620000000002"/>
	<path d="M 177.141,39.875 L 197.621,39.875 L 197.621,40.441 L 177.141,40.441 L 177.141,39.875" fill="none" stroke="#000000" stroke-width="0.22356620000000002"/>
	<path d="M 130.227,42.781 L 177.707,42.781 L 177.707,43.348 L 130.227,43.348 L 130.227,42.781" fill="none" stroke="#000000" stroke-width="0.22356620000000002"/>
	<path d="M 112.512,34.348 L 115.063,34.348 L 115.063,36.0472 L 112.512,36.0472 L 112.512,34.348" fill="none" stroke="#000000" stroke-width="0.22356620000000002"/>
	<path d="M 117.6132,35.48 L 119.313,35.48 L 119.313,38.031 L 117.6132,38.031 L 117.6132,35.48" fill="none" stroke="#000000" stroke-width="0.22356620000000002"/>
	<path d="M 111.375,38.598 L 113.0788,38.598 L 113.0788,41.152 L 111.375,41.152 L 111.375,38.598" fill="none" stroke="#000000" stroke-width="0.22356620000000002"/>
	<path d="M 115.629,40.5848 L 118.18,40.5848 L 118.18,42.285 L 115.629,42.285 L 115.629,40.5848" fill="none" stroke="#000000" stroke-width="0.22356620000000002"/>
	<path d="M 130.227,37.465 L 130.793,37.465 L 130.793,43.007799999999996 L 130.227,43.007799999999996 L 130.227,37.465" fill="none" stroke="#000000" stroke-width="0.22356620000000002"/>
	<path d="M 197.055,36.9698 L 197.621,36.9698 L 197.621,40.1014 L 197.055,40.1014 L 197.055,36.9698" fill="none" stroke="#000000" stroke-width="0.22356620000000002"/>
	<path d="M 177.141,40.214600000000004 L 177.707,40.214600000000004 L 177.707,43.007799999999996 L 177.141,43.007799999999996 L 177.141,40.214600000000004" fill="none" stroke="#000000" stroke-width="0.22356620000000002"/>
	<path d="M 118.63308,37.465 L 130.45340000000002,37.465 L 130.45340000000002,38.031 L 118.63308,38.031 L 118.63308,37.465" fill="none" stroke="#000000" stroke-width="0.22356620000000002"/>
	<path d="M 31.297,41.93 L 34.84,41.93 L 34.84,45.473 L 31.297,45.473 L 31.297,41.93" fill="none" stroke="#000000" stroke-width="0.22356620000000002"/>
	<path d="M 105.141,42.852 L 110.809,42.852 L 110.809,48.52 L 105.141,48.52 L 105.141,42.852" fill="none" stroke="#000000" stroke-width="0.22356620000000002"/>
	<path d="M 105.141,41.719 L 107.691,41.719 L 107.691,43.4188 L 105.141,43.4188 L 105.141,41.719" fill="none" stroke="#000000" stroke-width="0.22356620000000002"/>
	<path d="M 33.4228,43.418 L 45.043,43.418 L 45.043,43.984 L 33.4228,43.984 L 33.4228,43.418" fill="none" stroke="#000000" stroke-width="0.22356620000000002"/>
	<path d="M 110.2422,42.852 L 111.941,42.852 L 111.941,45.402 L 110.2422,45.402 L 110.2422,42.852" fill="none" stroke="#000000" stroke-width="0.22356620000000002"/>
	<path d="M 104.008,45.969 L 105.7078,45.969 L 105.7078,48.52 L 104.008,48.52 L 104.008,45.969" fill="none" stroke="#000000" stroke-width="0.22356620000000002"/>
	<path d="M 108.258,47.9532 L 110.809,47.9532 L 110.809,49.656 L 108.258,49.656 L 108.258,47.9532" fill="none" stroke="#000000" stroke-width="0.22356620000000002"/>
	<path d="M 94.367,46.311 L 94.934,46.311 L 94.934,47.527 L 94.367,47.527 L 94.367,46.311" fill="none" stroke="#000000" stroke-width="0.22356620000000002"/>
	<path d="M 94.367,45.969 L 104.68792,45.969 L 104.68792,46.539 L 94.367,46.539 L 94.367,45.969" fill="none" stroke="#000000" stroke-width="0.22356620000000002"/>
	<path d="M 44.477,46.961 L 94.5938,46.961 L 94.5938,47.527 L 44.477,47.527 L 44.477,46.961" fill="none" stroke="#000000" stroke-width="0.22356620000000002"/>
	<path d="M 44.477,43.757600000000004 L 45.043,43.757600000000004 L 45.043,47.1874 L 44.477,47.1874 L 44.477,43.757600000000004" fill="none" stroke="#000000" stroke-width="0.22356620000000002"/>
	<path d="M 188.477,41.93 L 192.02,41.93 L 192.02,45.473 L 188.477,45.473 L 188.477,41.93" fill="none" stroke="#000000" stroke-width="0.22356620000000002"/>
	<path d="M 112.512,42.852 L 118.18,42.852 L 118.18,48.52 L 112.512,48.52 L 112.512,42.852" fill="none" stroke="#000000" stroke-width="0.22356620000000002"/>
	<path d="M 178.273,43.418 L 178.84,43.418 L 178.84,46.395 L 178.273,46.395 L 178.273,43.418" fill="none" stroke="#000000" stroke-width="0.22356620000000002"/>
	<path d="M 128.949,44.836 L 129.52,44.836 L 129.52,46.395 L 128.949,46.395 L 128.949,44.836" fill="none" stroke="#000000" stroke-width="0.22356620000000002"/>
	<path d="M 112.512,41.719 L 115.063,41.719 L 115.063,43.4188 L 112.512,43.4188 L 112.512,41.719" fill="none" stroke="#000000" stroke-width="0.22356620000000002"/>
	<path d="M 117.6132,42.852 L 119.313,42.852 L 119.313,45.402 L 117.6132,45.402 L 117.6132,42.852" fill="none" stroke="#000000" stroke-width="0.22356620000000002"/>
	<path d="M 111.375,45.969 L 113.0788,45.969 L 113.0788,48.52 L 111.375,48.52 L 111.375,45.969" fill="none" stroke="#000000" stroke-width="0.22356620000000002"/>
	<path d="M 115.629,47.9532 L 118.18,47.9532 L 118.18,49.656 L 115.629,49.656 L 115.629,47.9532" fill="none" stroke="#000000" stroke-width="0.22356620000000002"/>
	<path d="M 178.6132,43.418 L 189.8942,43.418 L 189.8942,43.984 L 178.6132,43.984 L 178.6132,43.418" fill="none" stroke="#000000" stroke-width="0.22356620000000002"/>
	<path d="M 129.29160000000002,45.828 L 178.4998,45.828 L 178.4998,46.395 L 129.29160000000002,46.395 L 129.29160000000002,45.828" fill="none" stroke="#000000" stroke-width="0.22356620000000002"/>
	<path d="M 118.63308,44.836 L 129.1774,44.836 L 129.1774,45.402 L 118.63308,45.402 L 118.63308,44.836" fill="none" stroke="#000000" stroke-width="0.22356620000000002"/>
	<path d="M 34.84,86.223 L 36.332,86.223 L 36.332,86.789 L 34.84,86.789 L 34.84,86.223" fill="none" stroke="#000000" stroke-width="0.22356620000000002"/>
	<path d="M 37.824,86.223 L 39.316,86.223 L 39.316,86.789 L 37.824,86.789 L 37.824,86.223" fill="none" stroke="#000000" stroke-width="0.22356620000000002"/>
	<path d="M 40.809,86.223 L 42.301,86.223 L 42.301,86.789 L 40.809,86.789 L 40.809,86.223" fill="none" stroke="#000000" stroke-width="0.22356620000000002"/>
	<path d="M 43.793,86.223 L 45.285,86.223 L 45.285,86.789 L 43.793,86.789 L 43.793,86.223" fill="none" stroke="#000000" stroke-width="0.22356620000000002"/>
	<path d="M 46.777,86.223 L 48.261,86.223 L 48.261,86.789 L 46.777,86.789 L 46.777,86.223" fill="none" stroke="#000000" stroke-width="0.22356620000000002"/>
	<path d="M 49.762,86.223 L 51.25,86.223 L 51.25,86.789 L 49.762,86.789 L 49.762,86.223" fill="none" stroke="#000000" stroke-width="0.22356620000000002"/>
	<path d="M 52.742,86.223 L 54.234,86.223 L 54.234,86.789 L 52.742,86.789 L 52.742,86.223" fill="none" stroke="#000000" stroke-width="0.22356620000000002"/>
	<path d="M 55.727,86.223 L 57.219,86.223 L 57.219,86.789 L 55.727,86.789 L 55.727,86.223" fill="none" stroke="#000000" stroke-width="0.22356620000000002"/>
	<path d="M 58.711,86.223 L 60.203,86.223 L 60.203,86.789 L 58.711,86.789 L 58.711,86.223" fill="none" stroke="#000000" stroke-width="0.22356620000000002"/>
	<path d="M 61.695,86.223 L 63.183,86.223 L 63.183,86.789 L 61.695,86.789 L 61.695,86.223" fill="none" stroke="#000000" stroke-width="0.22356620000000002"/>
	<path d="M 160.133,86.223 L 161.625,86.223 L 161.625,86.789 L 160.133,86.789 L 160.133,86.223" fill="none" stroke="#000000" stroke-width="0.22356620000000002"/>
	<path d="M 163.117,86.223 L 164.609,86.223 L 164.609,86.789 L 163.117,86.789 L 163.117,86.223" fill="none" stroke="#000000" stroke-width="0.22356620000000002"/>
	<path d="M 166.098,86.223 L 167.594,86.223 L 167.594,86.789 L 166.098,86.789 L 166.098,86.223" fill="none" stroke="#000000" stroke-width="0.22356620000000002"/>
	<path d="M 169.082,86.223 L 170.574,86.223 L 170.574,86.789 L 169.082,86.789 L 169.082,86.223" fill="none" stroke="#000000" stroke-width="0.22356620000000002"/>
	<path d="M 172.066,86.223 L 173.554,86.223 L 173.554,86.789 L 172.066,86.789 L 172.066,86.223" fill="none" stroke="#000000" stroke-width="0.22356620000000002"/>
	<path d="M 175.051,86.223 L 176.543,86.223 L 176.543,86.789 L 175.051,86.789 L 175.051,86.223" fill="none" stroke="#000000" stroke-width="0.22356620000000002"/>
	<path d="M 178.035,86.223 L 179.527,86.223 L 179.527,86.789 L 178.035,86.789 L 178.035,86.223" fill="none" stroke="#000000" stroke-width="0.22356620000000002"/>
	<path d="M 181.02,86.223 L 182.512,86.223 L 182.512,86.789 L 181.02,86.789 L 181.02,86.223" fill="none" stroke="#000000" stroke-width="0.22356620000000002"/>
	<path d="M 184.004,86.223 L 185.492,86.223 L 185.492,86.789 L 184.004,86.789 L 184.004,86.223" fill="none" stroke="#000000" stroke-width="0.22356620000000002"/>
	<path d="M 186.988,86.223 L 188.472,86.223 L 188.472,86.789 L 186.988,86.789 L 186.988,86.223" fill="none" stroke="#000000" stroke-width="0.22356620000000002"/>
	<path d="M 57.59,88.488 L 100.887,88.488 L 100.887,89.055 L 57.59,89.055 L 57.59,88.488" fill="none" stroke="#000000" stroke-width="0.22356620000000002"/>
	<path d="M 56.102,158.859 L 59.645,158.859 L 59.645,162.402 L 56.102,162.402 L 56.102,158.859" fill="none" stroke="#000000" stroke-width="0.22356620000000002"/>
	<path d="M 57.59,88.82820000000001 L 58.156,88.82820000000001 L 58.156,160.2762 L 57.59,160.2762 L 57.59,88.82820000000001" fill="none" stroke="#000000" stroke-width="0.22356620000000002"/>
	<path d="M 68.219,101.813 L 93.234,101.813 L 93.234,102.379 L 68.219,102.379 L 68.219,101.813" fill="none" stroke="#000000" stroke-width="0.22356620000000002"/>
	<path d="M 68.219,152.34 L 79.414,152.34 L 79.414,152.906 L 68.219,152.906 L 68.219,152.34" fill="none" stroke="#000000" stroke-width="0.22356620000000002"/>
	<path d="M 77.359,158.859 L 80.902,158.859 L 80.902,162.402 L 77.359,162.402 L 77.359,158.859" fill="none" stroke="#000000" stroke-width="0.22356620000000002"/>
	<path d="M 68.219,102.1526 L 68.785,102.1526 L 68.785,152.56640000000002 L 68.219,152.56640000000002 L 68.219,102.1526" fill="none" stroke="#000000" stroke-width="0.22356620000000002"/>
	<path d="M 78.848,152.6796 L 79.414,152.6796 L 79.414,160.2762 L 78.848,160.2762 L 78.848,152.6796" fill="none" stroke="#000000" stroke-width="0.22356620000000002"/>
	<path d="M 70.273,111.664 L 70.835,111.664 L 70.835,126.402 L 70.273,126.402 L 70.273,111.664" fill="none" stroke="#000000" stroke-width="0.22356620000000002"/>
	<path d="M 167.219,111.664 L 167.785,111.664 L 167.785,126.402 L 167.219,126.402 L 167.219,111.664" fill="none" stroke="#000000" stroke-width="0.22356620000000002"/>
	<path d="M 98.621,158.859 L 102.164,158.859 L 102.164,162.402 L 98.621,162.402 L 98.621,158.859" fill="none" stroke="#000000" stroke-width="0.22356620000000002"/>
	<path d="M 100.109,115.207 L 100.676,115.207 L 100.676,160.2762 L 100.109,160.2762 L 100.109,115.207" fill="none" stroke="#000000" stroke-width="0.22356620000000002"/>
	<path d="M 170.973,130.727 L 171.543,130.727 L 171.543,153.473 L 170.973,153.473 L 170.973,130.727" fill="none" stroke="#000000" stroke-width="0.22356620000000002"/>
	<path d="M 119.879,158.859 L 123.422,158.859 L 123.422,162.402 L 119.879,162.402 L 119.879,158.859" fill="none" stroke="#000000" stroke-width="0.22356620000000002"/>
	<path d="M 155.879,130.727 L 171.20100000000002,130.727 L 171.20100000000002,131.293 L 155.879,131.293 L 155.879,130.727" fill="none" stroke="#000000" stroke-width="0.22356620000000002"/>
	<path d="M 121.367,152.906 L 171.20100000000002,152.906 L 171.20100000000002,153.473 L 121.367,153.473 L 121.367,152.906" fill="none" stroke="#000000" stroke-width="0.22356620000000002"/>
	<path d="M 121.367,153.24620000000002 L 121.934,153.24620000000002 L 121.934,160.2762 L 121.367,160.2762 L 121.367,153.24620000000002" fill="none" stroke="#000000" stroke-width="0.22356620000000002"/>
	<path d="M 70.273,141.145 L 70.84,141.145 L 70.84,148.23 L 70.273,148.23 L 70.273,141.145" fill="none" stroke="#000000" stroke-width="0.22356620000000002"/>
	<path d="M 70.6132,147.664 L 77.359,147.664 L 77.359,148.23 L 70.6132,148.23 L 70.6132,147.664" fill="none" stroke="#000000" stroke-width="0.22356620000000002"/>
	<path d="M 160.699,147.664 L 167.785,147.664 L 167.785,148.23 L 160.699,148.23 L 160.699,147.664" fill="none" stroke="#000000" stroke-width="0.22356620000000002"/>
	<path d="M 167.219,141.145 L 167.785,141.145 L 167.785,147.8904 L 167.219,147.8904 L 167.219,141.145" fill="none" stroke="#000000" stroke-width="0.22356620000000002"/>
	<path d="M 41.645,148.23 L 42.211,148.23 L 42.211,151.773 L 41.645,151.773 L 41.645,148.23" fill="none" stroke="#000000" stroke-width="0.22356620000000002"/>
	<path d="M 181.109,148.23 L 181.671,148.23 L 181.671,151.773 L 181.109,151.773 L 181.109,148.23" fill="none" stroke="#000000" stroke-width="0.22356620000000002"/>
	<path d="M 36.613,153.262 L 40.156,153.262 L 40.156,153.828 L 36.613,153.828 L 36.613,153.262" fill="none" stroke="#000000" stroke-width="0.22356620000000002"/>
	<path d="M 43.699,153.262 L 47.242,153.262 L 47.242,153.828 L 43.699,153.828 L 43.699,153.262" fill="none" stroke="#000000" stroke-width="0.22356620000000002"/>
	<path d="M 176.078,153.262 L 179.621,153.262 L 179.621,153.828 L 176.078,153.828 L 176.078,153.262" fill="none" stroke="#000000" stroke-width="0.22356620000000002"/>
	<path d="M 183.164,153.262 L 186.707,153.262 L 186.707,153.828 L 183.164,153.828 L 183.164,153.262" fill="none" stroke="#000000" stroke-width="0.22356620000000002"/>
	<path d="M 41.645,155.316 L 42.211,155.316 L 42.211,158.859 L 41.645,158.859 L 41.645,155.316" fill="none" stroke="#000000" stroke-width="0.22356620000000002"/>
	<path d="M 181.109,155.316 L 181.671,155.316 L 181.671,158.859 L 181.109,158.859 L 181.109,155.316" fill="none" stroke="#000000" stroke-width="0.22356620000000002"/>
</svg>
