<?xml version="1.0" ?>
<svg xmlns="http://www.w3.org/2000/svg" xmlns:ev="http://www.w3.org/2001/xml-events" xmlns:xlink="http://www.w3.org/1999/xlink" baseProfile="full" height="136px" version="1.1" viewBox="-20.316188500000003 -4.187288500000002 249.78037700000002 56.233577000000004" width="600px">
	<defs/>
	<path d="M 0.5854999999999979,0.5854999999999979 L 208.5625,0.5854999999999979 L 208.5625,47.2735 L 0.5854999999999979,47.2735 L 0.5854999999999979,0.5854999999999979" fill="none" stroke="#000000" stroke-width="0.207977"/>
	<path d="M 11.527,21.777 L 44.426,21.777 L 44.426,22.348 L 11.527,22.348 L 11.527,21.777" fill="none" stroke="#000000" stroke-width="0.207977"/>
	<path d="M 10.039,24.426 L 13.582,24.426 L 13.582,27.969 L 10.039,27.969 L 10.039,24.426" fill="none" stroke="#000000" stroke-width="0.207977"/>
	<path d="M 98.055,24.777 L 103.723,24.777 L 103.723,30.449 L 98.055,30.449 L 98.055,24.777" fill="none" stroke="#000000" stroke-width="0.207977"/>
	<path d="M 44.199200000000005,10.039 L 98.621,10.039 L 98.621,10.605 L 44.199200000000005,10.605 L 44.199200000000005,10.039" fill="none" stroke="#000000" stroke-width="0.207977"/>
	<path d="M 43.859,10.039 L 44.426,10.039 L 44.426,22.0054 L 43.859,22.0054 L 43.859,10.039" fill="none" stroke="#000000" stroke-width="0.207977"/>
	<path d="M 98.055,23.645 L 100.602,23.645 L 100.602,25.3442 L 98.055,25.3442 L 98.055,23.645" fill="none" stroke="#000000" stroke-width="0.207977"/>
	<path d="M 11.527,22.1196 L 12.094,22.1196 L 12.094,24.780299999999997 L 11.527,24.780299999999997 L 11.527,22.1196" fill="none" stroke="#000000" stroke-width="0.207977"/>
	<path d="M 103.1562,24.777 L 104.852,24.777 L 104.852,27.332 L 103.1562,27.332 L 103.1562,24.777" fill="none" stroke="#000000" stroke-width="0.207977"/>
	<path d="M 96.922,27.898 L 98.62180000000001,27.898 L 98.62180000000001,30.449 L 96.922,30.449 L 96.922,27.898" fill="none" stroke="#000000" stroke-width="0.207977"/>
	<path d="M 101.172,29.881800000000002 L 103.723,29.881800000000002 L 103.723,31.582 L 101.172,31.582 L 101.172,29.881800000000002" fill="none" stroke="#000000" stroke-width="0.207977"/>
	<path d="M 98.055,10.3786 L 98.621,10.3786 L 98.621,24.0978 L 98.055,24.0978 L 98.055,10.3786" fill="none" stroke="#000000" stroke-width="0.207977"/>
	<path d="M 164.719,21.777 L 197.621,21.777 L 197.621,22.348 L 164.719,22.348 L 164.719,21.777" fill="none" stroke="#000000" stroke-width="0.207977"/>
	<path d="M 195.566,24.426 L 199.109,24.426 L 199.109,27.969 L 195.566,27.969 L 195.566,24.426" fill="none" stroke="#000000" stroke-width="0.207977"/>
	<path d="M 105.426,24.777 L 111.094,24.777 L 111.094,30.449 L 105.426,30.449 L 105.426,24.777" fill="none" stroke="#000000" stroke-width="0.207977"/>
	<path d="M 105.426,10.039 L 105.992,10.039 L 105.992,24.0978 L 105.426,24.0978 L 105.426,10.039" fill="none" stroke="#000000" stroke-width="0.207977"/>
	<path d="M 164.719,10.039 L 165.289,10.039 L 165.289,22.0054 L 164.719,22.0054 L 164.719,10.039" fill="none" stroke="#000000" stroke-width="0.207977"/>
	<path d="M 105.426,23.645 L 107.977,23.645 L 107.977,25.3442 L 105.426,25.3442 L 105.426,23.645" fill="none" stroke="#000000" stroke-width="0.207977"/>
	<path d="M 197.055,22.1196 L 197.621,22.1196 L 197.621,24.780299999999997 L 197.055,24.780299999999997 L 197.055,22.1196" fill="none" stroke="#000000" stroke-width="0.207977"/>
	<path d="M 110.5272,24.777 L 112.227,24.777 L 112.227,27.332 L 110.5272,27.332 L 110.5272,24.777" fill="none" stroke="#000000" stroke-width="0.207977"/>
	<path d="M 104.289,27.898 L 105.9928,27.898 L 105.9928,30.449 L 104.289,30.449 L 104.289,27.898" fill="none" stroke="#000000" stroke-width="0.207977"/>
	<path d="M 108.543,29.881800000000002 L 111.094,29.881800000000002 L 111.094,31.582 L 108.543,31.582 L 108.543,29.881800000000002" fill="none" stroke="#000000" stroke-width="0.207977"/>
	<path d="M 105.7656,10.039 L 164.947,10.039 L 164.947,10.605 L 105.7656,10.605 L 105.7656,10.039" fill="none" stroke="#000000" stroke-width="0.207977"/>
	<path d="M 47.844,11.172 L 91.25,11.172 L 91.25,11.742 L 47.844,11.742 L 47.844,11.172" fill="none" stroke="#000000" stroke-width="0.207977"/>
	<path d="M 17.125,24.426 L 20.668,24.426 L 20.668,27.969 L 17.125,27.969 L 17.125,24.426" fill="none" stroke="#000000" stroke-width="0.207977"/>
	<path d="M 90.684,24.777 L 96.352,24.777 L 96.352,30.449 L 90.684,30.449 L 90.684,24.777" fill="none" stroke="#000000" stroke-width="0.207977"/>
	<path d="M 18.9532,22.961 L 48.41,22.961 L 48.41,23.527 L 18.9532,23.527 L 18.9532,22.961" fill="none" stroke="#000000" stroke-width="0.207977"/>
	<path d="M 18.613,22.961 L 19.18,22.961 L 19.18,24.780299999999997 L 18.613,24.780299999999997 L 18.613,22.961" fill="none" stroke="#000000" stroke-width="0.207977"/>
	<path d="M 90.684,23.645 L 93.234,23.645 L 93.234,25.3442 L 90.684,25.3442 L 90.684,23.645" fill="none" stroke="#000000" stroke-width="0.207977"/>
	<path d="M 95.7852,24.777 L 97.488,24.777 L 97.488,27.332 L 95.7852,27.332 L 95.7852,24.777" fill="none" stroke="#000000" stroke-width="0.207977"/>
	<path d="M 89.551,27.898 L 91.2508,27.898 L 91.2508,30.449 L 89.551,30.449 L 89.551,27.898" fill="none" stroke="#000000" stroke-width="0.207977"/>
	<path d="M 93.801,29.881800000000002 L 96.352,29.881800000000002 L 96.352,31.582 L 93.801,31.582 L 93.801,29.881800000000002" fill="none" stroke="#000000" stroke-width="0.207977"/>
	<path d="M 47.844,11.514000000000001 L 48.41,11.514000000000001 L 48.41,23.1874 L 47.844,23.1874 L 47.844,11.514000000000001" fill="none" stroke="#000000" stroke-width="0.207977"/>
	<path d="M 90.684,11.514000000000001 L 91.25,11.514000000000001 L 91.25,24.32468 L 90.684,24.32468 L 90.684,11.514000000000001" fill="none" stroke="#000000" stroke-width="0.207977"/>
	<path d="M 112.793,11.172 L 161.301,11.172 L 161.301,11.742 L 112.793,11.742 L 112.793,11.172" fill="none" stroke="#000000" stroke-width="0.207977"/>
	<path d="M 188.477,24.426 L 192.023,24.426 L 192.023,27.969 L 188.477,27.969 L 188.477,24.426" fill="none" stroke="#000000" stroke-width="0.207977"/>
	<path d="M 112.793,24.777 L 118.465,24.777 L 118.465,30.449 L 112.793,30.449 L 112.793,24.777" fill="none" stroke="#000000" stroke-width="0.207977"/>
	<path d="M 160.734,11.514000000000001 L 161.301,11.514000000000001 L 161.301,23.527 L 160.734,23.527 L 160.734,11.514000000000001" fill="none" stroke="#000000" stroke-width="0.207977"/>
	<path d="M 161.0742,22.961 L 190.535,22.961 L 190.535,23.527 L 161.0742,23.527 L 161.0742,22.961" fill="none" stroke="#000000" stroke-width="0.207977"/>
	<path d="M 112.793,23.645 L 115.344,23.645 L 115.344,25.3442 L 112.793,25.3442 L 112.793,23.645" fill="none" stroke="#000000" stroke-width="0.207977"/>
	<path d="M 189.969,23.3006 L 190.535,23.3006 L 190.535,24.780299999999997 L 189.969,24.780299999999997 L 189.969,23.3006" fill="none" stroke="#000000" stroke-width="0.207977"/>
	<path d="M 117.8978,24.777 L 119.598,24.777 L 119.598,27.332 L 117.8978,27.332 L 117.8978,24.777" fill="none" stroke="#000000" stroke-width="0.207977"/>
	<path d="M 111.66,27.898 L 113.3602,27.898 L 113.3602,30.449 L 111.66,30.449 L 111.66,27.898" fill="none" stroke="#000000" stroke-width="0.207977"/>
	<path d="M 115.91,29.881800000000002 L 118.465,29.881800000000002 L 118.465,31.582 L 115.91,31.582 L 115.91,29.881800000000002" fill="none" stroke="#000000" stroke-width="0.207977"/>
	<path d="M 112.793,11.514000000000001 L 113.359,11.514000000000001 L 113.359,24.32468 L 112.793,24.32468 L 112.793,11.514000000000001" fill="none" stroke="#000000" stroke-width="0.207977"/>
	<path d="M 51.832,12.309 L 52.398,12.309 L 52.398,26.48 L 51.832,26.48 L 51.832,12.309" fill="none" stroke="#000000" stroke-width="0.207977"/>
	<path d="M 24.211,24.426 L 27.754,24.426 L 27.754,27.969 L 24.211,27.969 L 24.211,24.426" fill="none" stroke="#000000" stroke-width="0.207977"/>
	<path d="M 77.641,24.777 L 88.977,24.777 L 88.977,31.582 L 77.641,31.582 L 77.641,24.777" fill="none" stroke="#000000" stroke-width="0.207977"/>
	<path d="M 87.281,12.309 L 87.848,12.309 L 87.848,25.4575 L 87.281,25.4575 L 87.281,12.309" fill="none" stroke="#000000" stroke-width="0.207977"/>
	<path d="M 27.399700000000003,25.914 L 52.0584,25.914 L 52.0584,26.48 L 27.399700000000003,26.48 L 27.399700000000003,25.914" fill="none" stroke="#000000" stroke-width="0.207977"/>
	<path d="M 87.8434,24.777 L 90.117,24.777 L 90.117,27.332 L 87.8434,27.332 L 87.8434,24.777" fill="none" stroke="#000000" stroke-width="0.207977"/>
	<path d="M 76.512,27.898 L 78.7746,27.898 L 78.7746,31.582 L 76.512,31.582 L 76.512,27.898" fill="none" stroke="#000000" stroke-width="0.207977"/>
	<path d="M 52.171600000000005,12.309 L 87.5078,12.309 L 87.5078,12.875 L 52.171600000000005,12.875 L 52.171600000000005,12.309" fill="none" stroke="#000000" stroke-width="0.207977"/>
	<path d="M 156.75,12.309 L 157.316,12.309 L 157.316,26.48 L 156.75,26.48 L 156.75,12.309" fill="none" stroke="#000000" stroke-width="0.207977"/>
	<path d="M 120.164,23.645 L 131.504,23.645 L 131.504,30.449 L 120.164,30.449 L 120.164,23.645" fill="none" stroke="#000000" stroke-width="0.207977"/>
	<path d="M 181.391,24.426 L 184.934,24.426 L 184.934,27.969 L 181.391,27.969 L 181.391,24.426" fill="none" stroke="#000000" stroke-width="0.207977"/>
	<path d="M 120.164,12.309 L 156.9764,12.309 L 156.9764,12.875 L 120.164,12.875 L 120.164,12.309" fill="none" stroke="#000000" stroke-width="0.207977"/>
	<path d="M 130.37,23.645 L 132.637,23.645 L 132.637,27.332 L 130.37,27.332 L 130.37,23.645" fill="none" stroke="#000000" stroke-width="0.207977"/>
	<path d="M 119.031,27.898 L 121.298,27.898 L 121.298,30.449 L 119.031,30.449 L 119.031,27.898" fill="none" stroke="#000000" stroke-width="0.207977"/>
	<path d="M 157.0896,25.914 L 181.7453,25.914 L 181.7453,26.48 L 157.0896,26.48 L 157.0896,25.914" fill="none" stroke="#000000" stroke-width="0.207977"/>
	<path d="M 120.164,12.6486 L 120.727,12.6486 L 120.727,24.3254 L 120.164,24.3254 L 120.164,12.6486" fill="none" stroke="#000000" stroke-width="0.207977"/>
	<path d="M 133.203,17.41 L 153.047,17.41 L 153.047,36.684 L 133.203,36.684 L 133.203,17.41" fill="none" stroke="#000000" stroke-width="0.207977"/>
	<path d="M 181.391,31.512 L 184.934,31.512 L 184.934,35.055 L 181.391,35.055 L 181.391,31.512" fill="none" stroke="#000000" stroke-width="0.207977"/>
	<path d="M 124.699,17.41 L 135.1874,17.41 L 135.1874,23.078 L 124.699,23.078 L 124.699,17.41" fill="none" stroke="#000000" stroke-width="0.207977"/>
	<path d="M 132.07,27.898 L 135.1874,27.898 L 135.1874,36.684 L 132.07,36.684 L 132.07,27.898" fill="none" stroke="#000000" stroke-width="0.207977"/>
	<path d="M 124.699,31.016 L 132.38173999999998,31.016 L 132.38173999999998,36.684 L 124.699,36.684 L 124.699,31.016" fill="none" stroke="#000000" stroke-width="0.207977"/>
	<path d="M 151.0626,33.0 L 181.7453,33.0 L 181.7453,33.566 L 151.0626,33.566 L 151.0626,33.0" fill="none" stroke="#000000" stroke-width="0.207977"/>
	<path d="M 56.102,18.543 L 75.945,18.543 L 75.945,37.82 L 56.102,37.82 L 56.102,18.543" fill="none" stroke="#000000" stroke-width="0.207977"/>
	<path d="M 24.211,31.512 L 27.754,31.512 L 27.754,35.055 L 24.211,35.055 L 24.211,31.512" fill="none" stroke="#000000" stroke-width="0.207977"/>
	<path d="M 73.96069999999999,18.543 L 77.078,18.543 L 77.078,27.332 L 73.96069999999999,27.332 L 73.96069999999999,18.543" fill="none" stroke="#000000" stroke-width="0.207977"/>
	<path d="M 73.96069999999999,32.148 L 84.449,32.148 L 84.449,37.82 L 73.96069999999999,37.82 L 73.96069999999999,32.148" fill="none" stroke="#000000" stroke-width="0.207977"/>
	<path d="M 76.76627,18.543 L 84.449,18.543 L 84.449,24.211 L 76.76627,24.211 L 76.76627,18.543" fill="none" stroke="#000000" stroke-width="0.207977"/>
	<path d="M 27.399700000000003,33.0 L 58.086299999999994,33.0 L 58.086299999999994,33.566 L 27.399700000000003,33.566 L 27.399700000000003,33.0" fill="none" stroke="#000000" stroke-width="0.207977"/>
</svg>
