<?xml version="1.0" ?>
<svg xmlns="http://www.w3.org/2000/svg" xmlns:ev="http://www.w3.org/2001/xml-events" xmlns:xlink="http://www.w3.org/1999/xlink" baseProfile="full" height="600px" version="1.1" viewBox="3.0915295 3.0915295 82.557941 82.557941" width="600px">
	<defs/>
	<path d="M 10.0,10.0 L 10.0,78.741 L 78.741,78.741 L 78.741,10.0 L 10.0,10.0" fill="none" stroke="#000000" stroke-width="0.068741"/>
	<path d="M 42.315,46.695 L 46.284,46.695 L 46.284,46.78 L 42.315,46.78 L 42.315,46.695" fill="none" stroke="#000000" stroke-width="0.068741"/>
	<path d="M 29.843,46.411 L 46.284,46.411 L 46.284,46.496 L 29.843,46.496 L 29.843,46.411" fill="none" stroke="#000000" stroke-width="0.068741"/>
	<path d="M 32.961,46.128 L 46.284,46.128 L 46.284,46.213 L 32.961,46.213 L 32.961,46.128" fill="none" stroke="#000000" stroke-width="0.068741"/>
	<path d="M 36.079,45.844 L 46.284,45.844 L 46.284,45.929 L 36.079,45.929 L 36.079,45.844" fill="none" stroke="#000000" stroke-width="0.068741"/>
	<path d="M 39.197,45.561 L 46.284,45.561 L 46.284,45.646 L 39.197,45.646 L 39.197,45.561" fill="none" stroke="#000000" stroke-width="0.068741"/>
	<path d="M 10.0,47.078 L 30.693,47.078 L 30.693,48.863 L 10.0,48.863 L 10.0,47.078" fill="none" stroke="#000000" stroke-width="0.068741"/>
	<path d="M 29.843,46.369 L 30.693,46.369 L 30.693,47.2565 L 29.843,47.2565 L 29.843,46.369" fill="none" stroke="#000000" stroke-width="0.068741"/>
	<path d="M 10.0,36.277 L 33.811,36.277 L 33.811,38.063 L 10.0,38.063 L 10.0,36.277" fill="none" stroke="#000000" stroke-width="0.068741"/>
	<path d="M 32.961,37.8844 L 33.811,37.8844 L 33.811,46.255 L 32.961,46.255 L 32.961,37.8844" fill="none" stroke="#000000" stroke-width="0.068741"/>
	<path d="M 10.0,29.077 L 36.929,29.077 L 36.929,30.863 L 10.0,30.863 L 10.0,29.077" fill="none" stroke="#000000" stroke-width="0.068741"/>
	<path d="M 36.079,30.6844 L 36.929,30.6844 L 36.929,45.972 L 36.079,45.972 L 36.079,30.6844" fill="none" stroke="#000000" stroke-width="0.068741"/>
	<path d="M 10.0,21.877 L 40.048,21.877 L 40.048,23.663 L 10.0,23.663 L 10.0,21.877" fill="none" stroke="#000000" stroke-width="0.068741"/>
	<path d="M 39.197,23.4844 L 40.048,23.4844 L 40.048,45.688 L 39.197,45.688 L 39.197,23.4844" fill="none" stroke="#000000" stroke-width="0.068741"/>
	<path d="M 18.277,75.878 L 43.166,75.878 L 43.166,77.664 L 18.277,77.664 L 18.277,75.878" fill="none" stroke="#000000" stroke-width="0.068741"/>
	<path d="M 42.315,46.652 L 43.166,46.652 L 43.166,76.0566 L 42.315,76.0566 L 42.315,46.652" fill="none" stroke="#000000" stroke-width="0.068741"/>
	<path d="M 18.277,77.4854 L 20.063,77.4854 L 20.063,78.741 L 18.277,78.741 L 18.277,77.4854" fill="none" stroke="#000000" stroke-width="0.068741"/>
</svg>
